G04 EAGLE Gerber RS-274X export*
G75*
%MOMM*%
%FSLAX34Y34*%
%LPD*%
%INBottom Copper*%
%IPPOS*%
%AMOC8*
5,1,8,0,0,1.08239X$1,22.5*%
G01*
G04 Define Apertures*
%ADD10P,1.92449X8X22.5*%
%ADD11C,1.676400*%
%ADD12C,1.508000*%
%ADD13P,1.42962X8X202.5*%
%ADD14R,1.508000X1.508000*%
%ADD15P,1.42962X8X22.5*%
%ADD16C,1.408000*%
%ADD17C,2.625000*%
%ADD18C,1.320800*%
%ADD19C,1.270000*%
%ADD20R,2.184400X2.184400*%
G36*
X608956Y10220D02*
X608658Y10160D01*
X41342Y10160D01*
X41084Y10205D01*
X40825Y10362D01*
X40647Y10608D01*
X40580Y10904D01*
X40633Y11202D01*
X40799Y11457D01*
X41050Y11626D01*
X48544Y14730D01*
X55270Y21456D01*
X58910Y30244D01*
X58910Y39756D01*
X55270Y48544D01*
X48544Y55270D01*
X39756Y58910D01*
X30244Y58910D01*
X21456Y55270D01*
X14730Y48544D01*
X11626Y41050D01*
X11486Y40829D01*
X11241Y40650D01*
X10946Y40580D01*
X10647Y40631D01*
X10392Y40794D01*
X10220Y41044D01*
X10160Y41342D01*
X10160Y518658D01*
X10205Y518916D01*
X10362Y519175D01*
X10608Y519353D01*
X10904Y519420D01*
X11202Y519367D01*
X11457Y519202D01*
X11626Y518950D01*
X14730Y511456D01*
X21456Y504730D01*
X30244Y501090D01*
X39756Y501090D01*
X48544Y504730D01*
X55270Y511456D01*
X58910Y520244D01*
X58910Y529756D01*
X55270Y538544D01*
X48544Y545270D01*
X41050Y548374D01*
X40829Y548514D01*
X40650Y548759D01*
X40580Y549054D01*
X40631Y549353D01*
X40794Y549608D01*
X41044Y549780D01*
X41342Y549840D01*
X608658Y549840D01*
X608916Y549795D01*
X609175Y549638D01*
X609353Y549392D01*
X609420Y549096D01*
X609367Y548798D01*
X609202Y548544D01*
X608950Y548374D01*
X601456Y545270D01*
X594730Y538544D01*
X591090Y529756D01*
X591090Y520244D01*
X594730Y511456D01*
X601456Y504730D01*
X610244Y501090D01*
X619756Y501090D01*
X628544Y504730D01*
X635270Y511456D01*
X638374Y518950D01*
X638514Y519171D01*
X638759Y519350D01*
X639054Y519420D01*
X639353Y519369D01*
X639608Y519206D01*
X639780Y518956D01*
X639840Y518658D01*
X639840Y41342D01*
X639795Y41084D01*
X639638Y40825D01*
X639392Y40647D01*
X639096Y40580D01*
X638798Y40633D01*
X638544Y40799D01*
X638374Y41050D01*
X635270Y48544D01*
X628544Y55270D01*
X619756Y58910D01*
X610244Y58910D01*
X601456Y55270D01*
X594730Y48544D01*
X591090Y39756D01*
X591090Y30244D01*
X594730Y21456D01*
X601456Y14730D01*
X608950Y11626D01*
X609171Y11486D01*
X609350Y11241D01*
X609420Y10946D01*
X609369Y10647D01*
X609206Y10392D01*
X608956Y10220D01*
G37*
%LPC*%
G36*
X333386Y527286D02*
X342014Y527286D01*
X348114Y533386D01*
X348114Y542014D01*
X342014Y548114D01*
X333386Y548114D01*
X327286Y542014D01*
X327286Y533386D01*
X333386Y527286D01*
G37*
G36*
X307986Y527286D02*
X316614Y527286D01*
X322714Y533386D01*
X322714Y542014D01*
X316614Y548114D01*
X307986Y548114D01*
X301886Y542014D01*
X301886Y533386D01*
X307986Y527286D01*
G37*
G36*
X282586Y527286D02*
X291214Y527286D01*
X297314Y533386D01*
X297314Y542014D01*
X291214Y548114D01*
X282586Y548114D01*
X276486Y542014D01*
X276486Y533386D01*
X282586Y527286D01*
G37*
G36*
X257186Y527286D02*
X265814Y527286D01*
X271914Y533386D01*
X271914Y542014D01*
X265814Y548114D01*
X257186Y548114D01*
X251086Y542014D01*
X251086Y533386D01*
X257186Y527286D01*
G37*
G36*
X231786Y527286D02*
X240414Y527286D01*
X246514Y533386D01*
X246514Y542014D01*
X240414Y548114D01*
X231786Y548114D01*
X225686Y542014D01*
X225686Y533386D01*
X231786Y527286D01*
G37*
G36*
X206386Y527286D02*
X215014Y527286D01*
X221114Y533386D01*
X221114Y542014D01*
X215014Y548114D01*
X206386Y548114D01*
X200286Y542014D01*
X200286Y533386D01*
X206386Y527286D01*
G37*
G36*
X180986Y527286D02*
X189614Y527286D01*
X195714Y533386D01*
X195714Y542014D01*
X189614Y548114D01*
X180986Y548114D01*
X174886Y542014D01*
X174886Y533386D01*
X180986Y527286D01*
G37*
G36*
X561986Y527286D02*
X570614Y527286D01*
X576714Y533386D01*
X576714Y542014D01*
X570614Y548114D01*
X561986Y548114D01*
X555886Y542014D01*
X555886Y533386D01*
X561986Y527286D01*
G37*
G36*
X130186Y527286D02*
X138814Y527286D01*
X144914Y533386D01*
X144914Y542014D01*
X138814Y548114D01*
X130186Y548114D01*
X124086Y542014D01*
X124086Y533386D01*
X130186Y527286D01*
G37*
G36*
X104786Y527286D02*
X113414Y527286D01*
X119514Y533386D01*
X119514Y542014D01*
X113414Y548114D01*
X104786Y548114D01*
X98686Y542014D01*
X98686Y533386D01*
X104786Y527286D01*
G37*
G36*
X79386Y527286D02*
X88014Y527286D01*
X94114Y533386D01*
X94114Y542014D01*
X88014Y548114D01*
X79386Y548114D01*
X73286Y542014D01*
X73286Y533386D01*
X79386Y527286D01*
G37*
G36*
X155586Y527286D02*
X164214Y527286D01*
X170314Y533386D01*
X170314Y542014D01*
X164214Y548114D01*
X155586Y548114D01*
X149486Y542014D01*
X149486Y533386D01*
X155586Y527286D01*
G37*
G36*
X536586Y527286D02*
X545214Y527286D01*
X551314Y533386D01*
X551314Y542014D01*
X545214Y548114D01*
X536586Y548114D01*
X530486Y542014D01*
X530486Y533386D01*
X536586Y527286D01*
G37*
G36*
X511186Y527286D02*
X519814Y527286D01*
X525914Y533386D01*
X525914Y542014D01*
X519814Y548114D01*
X511186Y548114D01*
X505086Y542014D01*
X505086Y533386D01*
X511186Y527286D01*
G37*
G36*
X485786Y527286D02*
X494414Y527286D01*
X500514Y533386D01*
X500514Y542014D01*
X494414Y548114D01*
X485786Y548114D01*
X479686Y542014D01*
X479686Y533386D01*
X485786Y527286D01*
G37*
G36*
X460386Y527286D02*
X469014Y527286D01*
X475114Y533386D01*
X475114Y542014D01*
X469014Y548114D01*
X460386Y548114D01*
X454286Y542014D01*
X454286Y533386D01*
X460386Y527286D01*
G37*
G36*
X434986Y527286D02*
X443614Y527286D01*
X449714Y533386D01*
X449714Y542014D01*
X443614Y548114D01*
X434986Y548114D01*
X428886Y542014D01*
X428886Y533386D01*
X434986Y527286D01*
G37*
G36*
X409586Y527286D02*
X418214Y527286D01*
X424314Y533386D01*
X424314Y542014D01*
X418214Y548114D01*
X409586Y548114D01*
X403486Y542014D01*
X403486Y533386D01*
X409586Y527286D01*
G37*
G36*
X384186Y527286D02*
X392814Y527286D01*
X398914Y533386D01*
X398914Y542014D01*
X392814Y548114D01*
X384186Y548114D01*
X378086Y542014D01*
X378086Y533386D01*
X384186Y527286D01*
G37*
G36*
X358786Y527286D02*
X367414Y527286D01*
X373514Y533386D01*
X373514Y542014D01*
X367414Y548114D01*
X358786Y548114D01*
X352686Y542014D01*
X352686Y533386D01*
X358786Y527286D01*
G37*
G36*
X377070Y513062D02*
X387738Y513062D01*
X387738Y523730D01*
X383766Y523730D01*
X377070Y517034D01*
X377070Y513062D01*
G37*
G36*
X389262Y513062D02*
X399930Y513062D01*
X399930Y517034D01*
X393234Y523730D01*
X389262Y523730D01*
X389262Y513062D01*
G37*
G36*
X180986Y501886D02*
X189614Y501886D01*
X195714Y507986D01*
X195714Y516614D01*
X189614Y522714D01*
X180986Y522714D01*
X174886Y516614D01*
X174886Y507986D01*
X180986Y501886D01*
G37*
G36*
X155586Y501886D02*
X164214Y501886D01*
X170314Y507986D01*
X170314Y516614D01*
X164214Y522714D01*
X155586Y522714D01*
X149486Y516614D01*
X149486Y507986D01*
X155586Y501886D01*
G37*
G36*
X130186Y501886D02*
X138814Y501886D01*
X144914Y507986D01*
X144914Y516614D01*
X138814Y522714D01*
X130186Y522714D01*
X124086Y516614D01*
X124086Y507986D01*
X130186Y501886D01*
G37*
G36*
X104786Y501886D02*
X113414Y501886D01*
X119514Y507986D01*
X119514Y516614D01*
X113414Y522714D01*
X104786Y522714D01*
X98686Y516614D01*
X98686Y507986D01*
X104786Y501886D01*
G37*
G36*
X79386Y501886D02*
X88014Y501886D01*
X94114Y507986D01*
X94114Y516614D01*
X88014Y522714D01*
X79386Y522714D01*
X73286Y516614D01*
X73286Y507986D01*
X79386Y501886D01*
G37*
G36*
X561986Y501886D02*
X570614Y501886D01*
X576714Y507986D01*
X576714Y516614D01*
X570614Y522714D01*
X561986Y522714D01*
X555886Y516614D01*
X555886Y507986D01*
X561986Y501886D01*
G37*
G36*
X536586Y501886D02*
X545214Y501886D01*
X551314Y507986D01*
X551314Y516614D01*
X545214Y522714D01*
X536586Y522714D01*
X530486Y516614D01*
X530486Y507986D01*
X536586Y501886D01*
G37*
G36*
X511186Y501886D02*
X519814Y501886D01*
X525914Y507986D01*
X525914Y516614D01*
X519814Y522714D01*
X511186Y522714D01*
X505086Y516614D01*
X505086Y507986D01*
X511186Y501886D01*
G37*
G36*
X485786Y501886D02*
X494414Y501886D01*
X500514Y507986D01*
X500514Y516614D01*
X494414Y522714D01*
X485786Y522714D01*
X479686Y516614D01*
X479686Y507986D01*
X485786Y501886D01*
G37*
G36*
X460386Y501886D02*
X469014Y501886D01*
X475114Y507986D01*
X475114Y516614D01*
X469014Y522714D01*
X460386Y522714D01*
X454286Y516614D01*
X454286Y507986D01*
X460386Y501886D01*
G37*
G36*
X434986Y501886D02*
X443614Y501886D01*
X449714Y507986D01*
X449714Y516614D01*
X443614Y522714D01*
X434986Y522714D01*
X428886Y516614D01*
X428886Y507986D01*
X434986Y501886D01*
G37*
G36*
X409586Y501886D02*
X418214Y501886D01*
X424314Y507986D01*
X424314Y516614D01*
X418214Y522714D01*
X409586Y522714D01*
X403486Y516614D01*
X403486Y507986D01*
X409586Y501886D01*
G37*
G36*
X358786Y501886D02*
X367414Y501886D01*
X373514Y507986D01*
X373514Y516614D01*
X367414Y522714D01*
X358786Y522714D01*
X352686Y516614D01*
X352686Y507986D01*
X358786Y501886D01*
G37*
G36*
X333386Y501886D02*
X342014Y501886D01*
X348114Y507986D01*
X348114Y516614D01*
X342014Y522714D01*
X333386Y522714D01*
X327286Y516614D01*
X327286Y507986D01*
X333386Y501886D01*
G37*
G36*
X307986Y501886D02*
X316614Y501886D01*
X322714Y507986D01*
X322714Y516614D01*
X316614Y522714D01*
X307986Y522714D01*
X301886Y516614D01*
X301886Y507986D01*
X307986Y501886D01*
G37*
G36*
X282586Y501886D02*
X291214Y501886D01*
X297314Y507986D01*
X297314Y516614D01*
X291214Y522714D01*
X282586Y522714D01*
X276486Y516614D01*
X276486Y507986D01*
X282586Y501886D01*
G37*
G36*
X257186Y501886D02*
X265814Y501886D01*
X271914Y507986D01*
X271914Y516614D01*
X265814Y522714D01*
X257186Y522714D01*
X251086Y516614D01*
X251086Y507986D01*
X257186Y501886D01*
G37*
G36*
X231786Y501886D02*
X240414Y501886D01*
X246514Y507986D01*
X246514Y516614D01*
X240414Y522714D01*
X231786Y522714D01*
X225686Y516614D01*
X225686Y507986D01*
X231786Y501886D01*
G37*
G36*
X206386Y501886D02*
X215014Y501886D01*
X221114Y507986D01*
X221114Y516614D01*
X215014Y522714D01*
X206386Y522714D01*
X200286Y516614D01*
X200286Y507986D01*
X206386Y501886D01*
G37*
G36*
X389262Y500870D02*
X393234Y500870D01*
X399930Y507566D01*
X399930Y511538D01*
X389262Y511538D01*
X389262Y500870D01*
G37*
G36*
X383766Y500870D02*
X387738Y500870D01*
X387738Y511538D01*
X377070Y511538D01*
X377070Y507566D01*
X383766Y500870D01*
G37*
G36*
X522829Y400736D02*
X539171Y400736D01*
X540064Y401629D01*
X540064Y417971D01*
X539097Y418938D01*
X538934Y419180D01*
X538874Y419477D01*
X538874Y450566D01*
X537675Y453460D01*
X522669Y468466D01*
X522506Y468708D01*
X522446Y469005D01*
X522446Y481553D01*
X521553Y482446D01*
X498447Y482446D01*
X497554Y481553D01*
X497554Y458447D01*
X498447Y457554D01*
X510995Y457554D01*
X511281Y457498D01*
X511534Y457331D01*
X522903Y445962D01*
X523066Y445720D01*
X523126Y445423D01*
X523126Y419477D01*
X523070Y419191D01*
X522903Y418938D01*
X521936Y417971D01*
X521936Y401629D01*
X522829Y400736D01*
G37*
G36*
X111282Y62221D02*
X114689Y62221D01*
X117836Y63525D01*
X120245Y65934D01*
X121549Y69082D01*
X121549Y72489D01*
X120245Y75636D01*
X117836Y78045D01*
X116310Y78677D01*
X116063Y78842D01*
X60297Y134608D01*
X60134Y134850D01*
X60074Y135147D01*
X60074Y249366D01*
X58875Y252260D01*
X48097Y263038D01*
X47934Y263280D01*
X47874Y263577D01*
X47874Y397223D01*
X47930Y397509D01*
X48097Y397762D01*
X81984Y431649D01*
X82226Y431812D01*
X82523Y431872D01*
X82567Y431872D01*
X87328Y436633D01*
X87328Y443367D01*
X86294Y444401D01*
X86129Y444648D01*
X85875Y445260D01*
X83660Y447475D01*
X83048Y447729D01*
X82801Y447894D01*
X82567Y448128D01*
X82236Y448128D01*
X81944Y448186D01*
X80766Y448674D01*
X77634Y448674D01*
X76456Y448186D01*
X76164Y448128D01*
X75833Y448128D01*
X75599Y447894D01*
X75352Y447729D01*
X74740Y447475D01*
X72525Y445260D01*
X72271Y444648D01*
X72106Y444401D01*
X71072Y443367D01*
X71072Y443323D01*
X71016Y443037D01*
X70849Y442784D01*
X49175Y421110D01*
X48955Y420957D01*
X48660Y420888D01*
X48361Y420938D01*
X48106Y421102D01*
X47934Y421352D01*
X47874Y421649D01*
X47874Y456792D01*
X47925Y457067D01*
X48089Y457322D01*
X48339Y457494D01*
X48636Y457554D01*
X51553Y457554D01*
X52446Y458447D01*
X52446Y481553D01*
X51553Y482446D01*
X28447Y482446D01*
X27554Y481553D01*
X27554Y458447D01*
X28447Y457554D01*
X31364Y457554D01*
X31639Y457503D01*
X31894Y457339D01*
X32066Y457089D01*
X32126Y456792D01*
X32126Y258434D01*
X33325Y255540D01*
X44103Y244762D01*
X44266Y244520D01*
X44326Y244223D01*
X44326Y130004D01*
X45525Y127110D01*
X104928Y67707D01*
X105093Y67460D01*
X105725Y65934D01*
X108134Y63525D01*
X111282Y62221D01*
G37*
G36*
X498434Y362126D02*
X554382Y362126D01*
X557276Y363325D01*
X588475Y394524D01*
X589674Y397418D01*
X589674Y400123D01*
X589730Y400409D01*
X589897Y400662D01*
X590864Y401629D01*
X590864Y417971D01*
X589971Y418864D01*
X573629Y418864D01*
X572736Y417971D01*
X572736Y401372D01*
X572680Y401086D01*
X572513Y400833D01*
X549777Y378097D01*
X549536Y377934D01*
X549238Y377874D01*
X503577Y377874D01*
X503291Y377930D01*
X503038Y378097D01*
X414460Y466675D01*
X411566Y467874D01*
X323208Y467874D01*
X322933Y467925D01*
X322678Y468089D01*
X322506Y468339D01*
X322446Y468636D01*
X322446Y471553D01*
X321553Y472446D01*
X298447Y472446D01*
X297554Y471553D01*
X297554Y448447D01*
X298447Y447554D01*
X321553Y447554D01*
X322446Y448447D01*
X322446Y451364D01*
X322497Y451639D01*
X322661Y451894D01*
X322911Y452066D01*
X323208Y452126D01*
X406423Y452126D01*
X406709Y452070D01*
X406962Y451903D01*
X495540Y363325D01*
X498434Y362126D01*
G37*
G36*
X178333Y367972D02*
X185067Y367972D01*
X185098Y368003D01*
X185339Y368166D01*
X185636Y368226D01*
X217666Y368226D01*
X220560Y369425D01*
X236675Y385540D01*
X237874Y388434D01*
X237874Y446792D01*
X237925Y447067D01*
X238089Y447322D01*
X238339Y447494D01*
X238636Y447554D01*
X241553Y447554D01*
X242446Y448447D01*
X242446Y471553D01*
X241553Y472446D01*
X218447Y472446D01*
X217554Y471553D01*
X217554Y448447D01*
X218447Y447554D01*
X221364Y447554D01*
X221639Y447503D01*
X221894Y447339D01*
X222066Y447089D01*
X222126Y446792D01*
X222126Y393577D01*
X222070Y393291D01*
X221903Y393038D01*
X213062Y384197D01*
X212820Y384034D01*
X212523Y383974D01*
X185636Y383974D01*
X185350Y384030D01*
X185098Y384197D01*
X185067Y384228D01*
X178333Y384228D01*
X173572Y379467D01*
X173572Y372733D01*
X178333Y367972D01*
G37*
G36*
X188447Y397554D02*
X211553Y397554D01*
X212446Y398447D01*
X212446Y421553D01*
X211553Y422446D01*
X208350Y422446D01*
X208070Y422499D01*
X207816Y422665D01*
X207646Y422916D01*
X206675Y425260D01*
X189151Y442784D01*
X188988Y443026D01*
X188928Y443323D01*
X188928Y443367D01*
X184167Y448128D01*
X177433Y448128D01*
X172672Y443367D01*
X172672Y436633D01*
X177433Y431872D01*
X177477Y431872D01*
X177763Y431816D01*
X178016Y431649D01*
X187331Y422334D01*
X187494Y422092D01*
X187554Y421795D01*
X187554Y398447D01*
X188447Y397554D01*
G37*
G36*
X283349Y369312D02*
X358752Y369312D01*
X361646Y370511D01*
X398466Y407331D01*
X398708Y407494D01*
X399005Y407554D01*
X411553Y407554D01*
X412446Y408447D01*
X412446Y431553D01*
X411553Y432446D01*
X388447Y432446D01*
X387554Y431553D01*
X387554Y419005D01*
X387498Y418719D01*
X387331Y418466D01*
X354148Y385283D01*
X353906Y385120D01*
X353609Y385060D01*
X288492Y385060D01*
X288206Y385116D01*
X287954Y385283D01*
X284397Y388840D01*
X284234Y389081D01*
X284174Y389378D01*
X284174Y397773D01*
X284232Y398064D01*
X285364Y400797D01*
X285364Y404403D01*
X283984Y407734D01*
X281434Y410284D01*
X278103Y411664D01*
X274497Y411664D01*
X271166Y410284D01*
X268616Y407734D01*
X267236Y404403D01*
X267236Y400797D01*
X268368Y398064D01*
X268426Y397773D01*
X268426Y384235D01*
X269625Y381341D01*
X280455Y370511D01*
X283349Y369312D01*
G37*
G36*
X546320Y410562D02*
X555638Y410562D01*
X555638Y419880D01*
X547808Y419880D01*
X546320Y418392D01*
X546320Y410562D01*
G37*
G36*
X557162Y410562D02*
X566480Y410562D01*
X566480Y418392D01*
X564992Y419880D01*
X557162Y419880D01*
X557162Y410562D01*
G37*
G36*
X497429Y400736D02*
X513771Y400736D01*
X514664Y401629D01*
X514664Y417971D01*
X513771Y418864D01*
X497429Y418864D01*
X496536Y417971D01*
X496536Y401629D01*
X497429Y400736D01*
G37*
G36*
X302062Y403362D02*
X311380Y403362D01*
X311380Y404605D01*
X309845Y408310D01*
X307010Y411145D01*
X303305Y412680D01*
X302062Y412680D01*
X302062Y403362D01*
G37*
G36*
X291220Y403362D02*
X300538Y403362D01*
X300538Y412680D01*
X299295Y412680D01*
X295590Y411145D01*
X292755Y408310D01*
X291220Y404605D01*
X291220Y403362D01*
G37*
G36*
X557162Y399720D02*
X564992Y399720D01*
X566480Y401208D01*
X566480Y409038D01*
X557162Y409038D01*
X557162Y399720D01*
G37*
G36*
X547808Y399720D02*
X555638Y399720D01*
X555638Y409038D01*
X546320Y409038D01*
X546320Y401208D01*
X547808Y399720D01*
G37*
G36*
X302062Y392520D02*
X303305Y392520D01*
X307010Y394055D01*
X309845Y396890D01*
X311380Y400595D01*
X311380Y401838D01*
X302062Y401838D01*
X302062Y392520D01*
G37*
G36*
X299295Y392520D02*
X300538Y392520D01*
X300538Y401838D01*
X291220Y401838D01*
X291220Y400595D01*
X292755Y396890D01*
X295590Y394055D01*
X299295Y392520D01*
G37*
G36*
X82983Y295268D02*
X86217Y295268D01*
X89204Y296505D01*
X91491Y298792D01*
X92728Y301779D01*
X92728Y318221D01*
X91491Y321208D01*
X89204Y323495D01*
X86217Y324732D01*
X82983Y324732D01*
X79996Y323495D01*
X79357Y322856D01*
X79127Y322698D01*
X78831Y322633D01*
X78532Y322688D01*
X78280Y322856D01*
X78097Y323038D01*
X77934Y323280D01*
X77874Y323577D01*
X77874Y362423D01*
X77930Y362709D01*
X78097Y362962D01*
X82884Y367749D01*
X83126Y367912D01*
X83423Y367972D01*
X83467Y367972D01*
X88228Y372733D01*
X88228Y379467D01*
X83467Y384228D01*
X76733Y384228D01*
X71972Y379467D01*
X71972Y379423D01*
X71916Y379137D01*
X71749Y378884D01*
X63325Y370460D01*
X62126Y367566D01*
X62126Y318434D01*
X63325Y315540D01*
X75540Y303325D01*
X76002Y303133D01*
X76240Y302977D01*
X76412Y302727D01*
X76472Y302429D01*
X76472Y301779D01*
X77709Y298792D01*
X79996Y296505D01*
X82983Y295268D01*
G37*
G36*
X384397Y40236D02*
X387804Y40236D01*
X389329Y40868D01*
X389621Y40926D01*
X430366Y40926D01*
X433260Y42125D01*
X466675Y75540D01*
X467874Y78434D01*
X467874Y311166D01*
X466675Y314060D01*
X454433Y326302D01*
X454273Y326538D01*
X454210Y326835D01*
X454249Y327034D01*
X454249Y332914D01*
X452019Y338298D01*
X447898Y342419D01*
X442514Y344649D01*
X436686Y344649D01*
X431302Y342419D01*
X427181Y338298D01*
X424951Y332914D01*
X424951Y327086D01*
X427181Y321702D01*
X431302Y317581D01*
X436686Y315351D01*
X442560Y315351D01*
X442747Y315390D01*
X443045Y315334D01*
X443298Y315167D01*
X451903Y306562D01*
X452066Y306320D01*
X452126Y306023D01*
X452126Y83577D01*
X452070Y83291D01*
X451903Y83038D01*
X425762Y56897D01*
X425520Y56734D01*
X425223Y56674D01*
X389621Y56674D01*
X389329Y56732D01*
X387804Y57364D01*
X384397Y57364D01*
X381249Y56060D01*
X378840Y53651D01*
X377536Y50504D01*
X377536Y47097D01*
X378840Y43949D01*
X381249Y41540D01*
X384397Y40236D01*
G37*
G36*
X348447Y297554D02*
X371553Y297554D01*
X372446Y298447D01*
X372446Y301364D01*
X372497Y301639D01*
X372661Y301894D01*
X372911Y302066D01*
X373208Y302126D01*
X381566Y302126D01*
X384460Y303325D01*
X396302Y315167D01*
X396538Y315327D01*
X396835Y315390D01*
X397034Y315351D01*
X402914Y315351D01*
X408298Y317581D01*
X412419Y321702D01*
X414649Y327086D01*
X414649Y332914D01*
X412419Y338298D01*
X408298Y342419D01*
X402914Y344649D01*
X397086Y344649D01*
X391702Y342419D01*
X387581Y338298D01*
X385351Y332914D01*
X385351Y327040D01*
X385390Y326853D01*
X385334Y326555D01*
X385167Y326302D01*
X376962Y318097D01*
X376720Y317934D01*
X376423Y317874D01*
X373208Y317874D01*
X372933Y317925D01*
X372678Y318089D01*
X372506Y318339D01*
X372446Y318636D01*
X372446Y321553D01*
X371553Y322446D01*
X348447Y322446D01*
X347554Y321553D01*
X347554Y298447D01*
X348447Y297554D01*
G37*
G36*
X136162Y310762D02*
X144544Y310762D01*
X144544Y318423D01*
X143152Y321784D01*
X140580Y324356D01*
X137219Y325748D01*
X136162Y325748D01*
X136162Y310762D01*
G37*
G36*
X126256Y310762D02*
X134638Y310762D01*
X134638Y325748D01*
X133581Y325748D01*
X130220Y324356D01*
X127648Y321784D01*
X126256Y318423D01*
X126256Y310762D01*
G37*
G36*
X264397Y40236D02*
X267804Y40236D01*
X270951Y41540D01*
X273360Y43949D01*
X274664Y47097D01*
X274664Y50504D01*
X273360Y53651D01*
X270951Y56060D01*
X267804Y57364D01*
X264397Y57364D01*
X262871Y56732D01*
X262579Y56674D01*
X244777Y56674D01*
X244491Y56730D01*
X244238Y56897D01*
X158097Y143038D01*
X157934Y143280D01*
X157874Y143577D01*
X157874Y186423D01*
X157930Y186709D01*
X158097Y186962D01*
X186675Y215540D01*
X187874Y218434D01*
X187874Y251566D01*
X186675Y254460D01*
X169565Y271570D01*
X169407Y271801D01*
X169342Y272097D01*
X169398Y272395D01*
X169565Y272648D01*
X194406Y297489D01*
X194648Y297652D01*
X194945Y297712D01*
X195370Y297712D01*
X199011Y299220D01*
X201798Y302007D01*
X203306Y305648D01*
X203306Y309589D01*
X201798Y313230D01*
X199011Y316016D01*
X195370Y317524D01*
X191430Y317524D01*
X187789Y316016D01*
X185002Y313230D01*
X183494Y309589D01*
X183494Y309164D01*
X183438Y308878D01*
X183271Y308625D01*
X152743Y278097D01*
X152502Y277934D01*
X152204Y277874D01*
X135477Y277874D01*
X135191Y277930D01*
X134938Y278097D01*
X118097Y294938D01*
X117934Y295180D01*
X117874Y295477D01*
X117874Y301014D01*
X117932Y301306D01*
X118128Y301779D01*
X118128Y318221D01*
X116891Y321208D01*
X114604Y323495D01*
X111617Y324732D01*
X108383Y324732D01*
X105396Y323495D01*
X103109Y321208D01*
X101872Y318221D01*
X101872Y301779D01*
X102068Y301306D01*
X102126Y301014D01*
X102126Y290334D01*
X103325Y287440D01*
X127440Y263325D01*
X130334Y262126D01*
X156423Y262126D01*
X156709Y262070D01*
X156962Y261903D01*
X171903Y246962D01*
X172066Y246720D01*
X172126Y246423D01*
X172126Y223577D01*
X172070Y223291D01*
X171903Y223038D01*
X143325Y194460D01*
X142126Y191566D01*
X142126Y138434D01*
X143325Y135540D01*
X236740Y42125D01*
X239634Y40926D01*
X262579Y40926D01*
X262871Y40868D01*
X264397Y40236D01*
G37*
G36*
X394982Y82126D02*
X398266Y82126D01*
X401160Y83325D01*
X431775Y113940D01*
X432974Y116834D01*
X432974Y189085D01*
X431775Y191979D01*
X309460Y314294D01*
X306566Y315492D01*
X301451Y315492D01*
X301165Y315548D01*
X300912Y315716D01*
X300611Y316016D01*
X296970Y317524D01*
X293030Y317524D01*
X289389Y316016D01*
X286602Y313230D01*
X285094Y309589D01*
X285094Y305648D01*
X286602Y302007D01*
X289389Y299220D01*
X293030Y297712D01*
X296970Y297712D01*
X300611Y299220D01*
X300898Y299507D01*
X301129Y299665D01*
X301425Y299730D01*
X301723Y299675D01*
X301976Y299507D01*
X417003Y184480D01*
X417166Y184238D01*
X417226Y183941D01*
X417226Y121977D01*
X417170Y121691D01*
X417003Y121439D01*
X393661Y98097D01*
X393420Y97934D01*
X393122Y97874D01*
X251818Y97874D01*
X243577Y97874D01*
X243291Y97930D01*
X243038Y98097D01*
X241136Y100000D01*
X240985Y100214D01*
X240913Y100508D01*
X240961Y100808D01*
X241123Y101065D01*
X241372Y101238D01*
X241668Y101301D01*
X241966Y101243D01*
X244397Y100236D01*
X247804Y100236D01*
X249329Y100868D01*
X249621Y100926D01*
X290366Y100926D01*
X293260Y102125D01*
X326675Y135540D01*
X327874Y138434D01*
X327874Y181566D01*
X326675Y184460D01*
X298097Y213038D01*
X297934Y213280D01*
X297874Y213577D01*
X297874Y236792D01*
X297925Y237067D01*
X298089Y237322D01*
X298339Y237494D01*
X298636Y237554D01*
X301553Y237554D01*
X302446Y238447D01*
X302446Y261553D01*
X301553Y262446D01*
X278447Y262446D01*
X277554Y261553D01*
X277554Y238447D01*
X278447Y237554D01*
X281364Y237554D01*
X281639Y237503D01*
X281894Y237339D01*
X282066Y237089D01*
X282126Y236792D01*
X282126Y208434D01*
X283325Y205540D01*
X311903Y176962D01*
X312066Y176720D01*
X312126Y176423D01*
X312126Y143577D01*
X312070Y143291D01*
X311903Y143038D01*
X285762Y116897D01*
X285520Y116734D01*
X285223Y116674D01*
X249621Y116674D01*
X249329Y116732D01*
X247804Y117364D01*
X244397Y117364D01*
X241249Y116060D01*
X238840Y113651D01*
X237536Y110504D01*
X237536Y107097D01*
X238543Y104666D01*
X238600Y104411D01*
X238554Y104111D01*
X238395Y103853D01*
X238147Y103678D01*
X237851Y103612D01*
X237553Y103668D01*
X237300Y103836D01*
X213097Y128038D01*
X212934Y128280D01*
X212874Y128577D01*
X212874Y165173D01*
X212932Y165464D01*
X213816Y167599D01*
X213981Y167846D01*
X228038Y181903D01*
X228280Y182066D01*
X228577Y182126D01*
X241323Y182126D01*
X241609Y182070D01*
X241862Y181903D01*
X258043Y165722D01*
X258208Y165475D01*
X258840Y163949D01*
X261249Y161540D01*
X264397Y160236D01*
X267804Y160236D01*
X270951Y161540D01*
X273360Y163949D01*
X274664Y167097D01*
X274664Y170504D01*
X273360Y173651D01*
X270951Y176060D01*
X269425Y176692D01*
X269178Y176857D01*
X249360Y196675D01*
X246466Y197874D01*
X223434Y197874D01*
X220540Y196675D01*
X202846Y178981D01*
X202599Y178816D01*
X199866Y177684D01*
X197316Y175134D01*
X195936Y171803D01*
X195936Y168197D01*
X197068Y165464D01*
X197126Y165173D01*
X197126Y123434D01*
X198325Y120540D01*
X235540Y83325D01*
X238434Y82126D01*
X248382Y82126D01*
X394982Y82126D01*
G37*
G36*
X136162Y294252D02*
X137219Y294252D01*
X140580Y295644D01*
X143152Y298216D01*
X144544Y301577D01*
X144544Y309238D01*
X136162Y309238D01*
X136162Y294252D01*
G37*
G36*
X133581Y294252D02*
X134638Y294252D01*
X134638Y309238D01*
X126256Y309238D01*
X126256Y301577D01*
X127648Y298216D01*
X130220Y295644D01*
X133581Y294252D01*
G37*
G36*
X136282Y62221D02*
X139689Y62221D01*
X142836Y63525D01*
X145245Y65934D01*
X146549Y69082D01*
X146549Y72489D01*
X145917Y74014D01*
X145859Y74306D01*
X145859Y93581D01*
X144660Y96475D01*
X108097Y133038D01*
X107934Y133280D01*
X107874Y133577D01*
X107874Y196423D01*
X107930Y196709D01*
X108097Y196962D01*
X118466Y207331D01*
X118708Y207494D01*
X119005Y207554D01*
X131553Y207554D01*
X132446Y208447D01*
X132446Y231553D01*
X131553Y232446D01*
X108447Y232446D01*
X107554Y231553D01*
X107554Y219005D01*
X107498Y218719D01*
X107331Y218466D01*
X93325Y204460D01*
X92126Y201566D01*
X92126Y128434D01*
X93325Y125540D01*
X129888Y88977D01*
X130051Y88735D01*
X130111Y88438D01*
X130111Y74306D01*
X130053Y74014D01*
X129421Y72489D01*
X129421Y69082D01*
X130725Y65934D01*
X133134Y63525D01*
X136282Y62221D01*
G37*
G36*
X169920Y170762D02*
X179238Y170762D01*
X179238Y180080D01*
X177995Y180080D01*
X174290Y178545D01*
X171455Y175710D01*
X169920Y172005D01*
X169920Y170762D01*
G37*
G36*
X180762Y170762D02*
X190080Y170762D01*
X190080Y172005D01*
X188545Y175710D01*
X185710Y178545D01*
X182005Y180080D01*
X180762Y180080D01*
X180762Y170762D01*
G37*
G36*
X384397Y160236D02*
X387804Y160236D01*
X390951Y161540D01*
X393360Y163949D01*
X394664Y167097D01*
X394664Y170504D01*
X393360Y173651D01*
X390951Y176060D01*
X387804Y177364D01*
X384397Y177364D01*
X381249Y176060D01*
X378840Y173651D01*
X377536Y170504D01*
X377536Y167097D01*
X378840Y163949D01*
X381249Y161540D01*
X384397Y160236D01*
G37*
G36*
X555497Y83536D02*
X559103Y83536D01*
X562434Y84916D01*
X564984Y87466D01*
X566116Y90199D01*
X566281Y90446D01*
X577289Y101454D01*
X578488Y104348D01*
X578488Y156352D01*
X577289Y159246D01*
X569887Y166648D01*
X569724Y166890D01*
X569664Y167187D01*
X569664Y172971D01*
X568771Y173864D01*
X552429Y173864D01*
X551536Y172971D01*
X551536Y156629D01*
X552429Y155736D01*
X558213Y155736D01*
X558499Y155680D01*
X558752Y155513D01*
X562517Y151748D01*
X562680Y151506D01*
X562740Y151209D01*
X562740Y109491D01*
X562684Y109205D01*
X562517Y108952D01*
X555146Y101581D01*
X554899Y101416D01*
X552166Y100284D01*
X549616Y97734D01*
X548236Y94403D01*
X548236Y90797D01*
X549616Y87466D01*
X552166Y84916D01*
X555497Y83536D01*
G37*
G36*
X530497Y83536D02*
X534103Y83536D01*
X537434Y84916D01*
X539984Y87466D01*
X541364Y90797D01*
X541364Y94403D01*
X539984Y97734D01*
X537434Y100284D01*
X534702Y101416D01*
X534454Y101581D01*
X528097Y107938D01*
X527934Y108180D01*
X527874Y108477D01*
X527874Y146023D01*
X527930Y146309D01*
X528097Y146562D01*
X537048Y155513D01*
X537290Y155676D01*
X537587Y155736D01*
X543371Y155736D01*
X544264Y156629D01*
X544264Y172971D01*
X543371Y173864D01*
X527029Y173864D01*
X526136Y172971D01*
X526136Y167187D01*
X526080Y166901D01*
X525913Y166648D01*
X513325Y154060D01*
X512126Y151166D01*
X512126Y103334D01*
X513325Y100440D01*
X523319Y90446D01*
X523484Y90199D01*
X524616Y87466D01*
X527166Y84916D01*
X530497Y83536D01*
G37*
G36*
X180762Y159920D02*
X182005Y159920D01*
X185710Y161455D01*
X188545Y164290D01*
X190080Y167995D01*
X190080Y169238D01*
X180762Y169238D01*
X180762Y159920D01*
G37*
G36*
X177995Y159920D02*
X179238Y159920D01*
X179238Y169238D01*
X169920Y169238D01*
X169920Y167995D01*
X171455Y164290D01*
X174290Y161455D01*
X177995Y159920D01*
G37*
G36*
X178405Y71547D02*
X187223Y71547D01*
X187223Y80365D01*
X186079Y80365D01*
X182558Y78907D01*
X179863Y76212D01*
X178405Y72691D01*
X178405Y71547D01*
G37*
G36*
X188747Y71547D02*
X197565Y71547D01*
X197565Y72691D01*
X196107Y76212D01*
X193412Y78907D01*
X189891Y80365D01*
X188747Y80365D01*
X188747Y71547D01*
G37*
G36*
X161282Y62221D02*
X164689Y62221D01*
X167836Y63525D01*
X170245Y65934D01*
X171549Y69082D01*
X171549Y72489D01*
X170245Y75636D01*
X167836Y78045D01*
X164689Y79349D01*
X161282Y79349D01*
X158134Y78045D01*
X155725Y75636D01*
X154421Y72489D01*
X154421Y69082D01*
X155725Y65934D01*
X158134Y63525D01*
X161282Y62221D01*
G37*
G36*
X188747Y61205D02*
X189891Y61205D01*
X193412Y62663D01*
X196107Y65358D01*
X197565Y68879D01*
X197565Y70023D01*
X188747Y70023D01*
X188747Y61205D01*
G37*
G36*
X186079Y61205D02*
X187223Y61205D01*
X187223Y70023D01*
X178405Y70023D01*
X178405Y68879D01*
X179863Y65358D01*
X182558Y62663D01*
X186079Y61205D01*
G37*
%LPD*%
D10*
X83700Y512300D03*
X83700Y537700D03*
X109100Y512300D03*
X109100Y537700D03*
X134500Y512300D03*
X134500Y537700D03*
X159900Y512300D03*
X159900Y537700D03*
X185300Y512300D03*
X185300Y537700D03*
X210700Y512300D03*
X210700Y537700D03*
X236100Y512300D03*
X236100Y537700D03*
X261500Y512300D03*
X261500Y537700D03*
X286900Y512300D03*
X286900Y537700D03*
X312300Y512300D03*
X312300Y537700D03*
X337700Y512300D03*
X337700Y537700D03*
X363100Y512300D03*
X363100Y537700D03*
X388500Y512300D03*
X388500Y537700D03*
X413900Y512300D03*
X413900Y537700D03*
X439300Y512300D03*
X439300Y537700D03*
X464700Y512300D03*
X464700Y537700D03*
X490100Y512300D03*
X490100Y537700D03*
X515500Y512300D03*
X515500Y537700D03*
X540900Y512300D03*
X540900Y537700D03*
X566300Y512300D03*
X566300Y537700D03*
D11*
X193400Y307618D03*
X295000Y307618D03*
D12*
X532300Y92600D03*
X557300Y92600D03*
X276300Y402600D03*
X301300Y402600D03*
D13*
X181700Y376100D03*
X80100Y376100D03*
D14*
X560600Y164800D03*
X535200Y164800D03*
X581800Y409800D03*
X556400Y409800D03*
X531000Y409800D03*
X505600Y409800D03*
D15*
X79200Y440000D03*
X180800Y440000D03*
D16*
X112985Y70785D03*
X137985Y70785D03*
X162985Y70785D03*
X187985Y70785D03*
D17*
X400000Y330000D03*
X439600Y330000D03*
D12*
X180000Y170000D03*
X205000Y170000D03*
D18*
X110000Y303396D02*
X110000Y316604D01*
X135400Y316604D02*
X135400Y303396D01*
X84600Y303396D02*
X84600Y316604D01*
D16*
X386100Y48800D03*
X266100Y168800D03*
X246100Y108800D03*
X386100Y168800D03*
X266100Y48800D03*
D19*
X140000Y270000D02*
X131900Y270000D01*
X140000Y270000D02*
X155782Y270000D01*
X193400Y307618D01*
X110000Y310000D02*
X110000Y291900D01*
X131900Y270000D01*
X241200Y48800D02*
X266100Y48800D01*
X241200Y48800D02*
X150000Y140000D01*
X150000Y190000D01*
X180000Y220000D01*
X180000Y250000D01*
X160000Y270000D01*
X155782Y270000D01*
X305000Y307618D02*
X425100Y187518D01*
X305000Y307618D02*
X295000Y307618D01*
X425100Y118400D02*
X396700Y90000D01*
X250100Y90000D01*
X205000Y125000D02*
X205000Y170000D01*
X205000Y125000D02*
X240000Y90000D01*
X250100Y90000D01*
X425100Y118400D02*
X425100Y187518D01*
X225000Y190000D02*
X205000Y170000D01*
X225000Y190000D02*
X244900Y190000D01*
X266100Y168800D01*
D20*
X510000Y470000D03*
D19*
X531000Y449000D01*
X531000Y409800D01*
D20*
X310000Y460000D03*
D19*
X410000Y460000D01*
X500000Y370000D01*
X552816Y370000D02*
X581800Y398985D01*
X552816Y370000D02*
X500000Y370000D01*
X581800Y398985D02*
X581800Y409800D01*
D20*
X400000Y420000D03*
D19*
X284915Y377186D02*
X276300Y385801D01*
X276300Y402600D01*
X357186Y377186D02*
X400000Y420000D01*
X357186Y377186D02*
X284915Y377186D01*
D20*
X230000Y460000D03*
D19*
X230000Y390000D01*
X216100Y376100D01*
X181700Y376100D01*
X520000Y149600D02*
X535200Y164800D01*
X520000Y149600D02*
X520000Y104900D01*
X532300Y92600D01*
X570614Y154786D02*
X560600Y164800D01*
X570614Y154786D02*
X570614Y105914D01*
X557300Y92600D01*
D20*
X40000Y470000D03*
D19*
X79200Y440800D02*
X79200Y440000D01*
X40000Y400800D02*
X40000Y260000D01*
X52200Y247800D01*
X40000Y400800D02*
X79200Y440000D01*
X40000Y470000D02*
X40000Y400800D01*
X52200Y247800D02*
X52200Y131570D01*
X112985Y70785D01*
X200000Y420800D02*
X180800Y440000D01*
X200000Y420800D02*
X200000Y410000D01*
D20*
X200000Y410000D03*
X120000Y220000D03*
D19*
X100000Y200000D01*
X100000Y130000D01*
X137985Y92015D01*
X137985Y70785D01*
X380000Y310000D02*
X400000Y330000D01*
X380000Y310000D02*
X360000Y310000D01*
D20*
X360000Y310000D03*
X290000Y250000D03*
D19*
X290000Y210000D01*
X320000Y180000D01*
X320000Y140000D01*
X288800Y108800D01*
X246100Y108800D01*
X428800Y48800D02*
X460000Y80000D01*
X460000Y309600D01*
X439600Y330000D01*
X428800Y48800D02*
X386100Y48800D01*
X70000Y366000D02*
X80100Y376100D01*
X70000Y366000D02*
X70000Y320000D01*
X80000Y310000D01*
X84600Y310000D01*
M02*
