G04 EAGLE Gerber RS-274X export*
G75*
%MOMM*%
%FSLAX34Y34*%
%LPD*%
%INSilkscreen Top*%
%IPPOS*%
%AMOC8*
5,1,8,0,0,1.08239X$1,22.5*%
G01*
G04 Define Apertures*
%ADD10C,0.152400*%
%ADD11R,0.508000X2.540000*%
%ADD12R,1.905000X0.762000*%
%ADD13R,0.863600X0.609600*%
%ADD14C,0.127000*%
%ADD15C,0.203200*%
G36*
X234040Y301268D02*
X234040Y313968D01*
X244200Y307618D01*
X234040Y301268D01*
G37*
G36*
X86929Y556750D02*
X85440Y556750D01*
X85440Y569091D01*
X87385Y569091D01*
X94059Y558510D01*
X93980Y559991D01*
X93953Y560998D01*
X93953Y569091D01*
X95460Y569091D01*
X95460Y556750D01*
X93445Y556750D01*
X86842Y567260D01*
X86885Y566411D01*
X86929Y564948D01*
X86929Y556750D01*
G37*
G36*
X77928Y556575D02*
X77469Y556587D01*
X77027Y556623D01*
X76600Y556684D01*
X76188Y556769D01*
X75793Y556878D01*
X75413Y557011D01*
X75049Y557168D01*
X74700Y557350D01*
X74370Y557554D01*
X74060Y557779D01*
X73770Y558025D01*
X73501Y558292D01*
X73251Y558579D01*
X73022Y558887D01*
X72813Y559216D01*
X72625Y559566D01*
X72457Y559934D01*
X72312Y560319D01*
X72190Y560721D01*
X72089Y561139D01*
X72011Y561574D01*
X71956Y562025D01*
X71922Y562493D01*
X71911Y562977D01*
X71917Y563341D01*
X71936Y563695D01*
X71967Y564039D01*
X72011Y564373D01*
X72067Y564697D01*
X72135Y565011D01*
X72216Y565315D01*
X72309Y565609D01*
X72415Y565893D01*
X72534Y566167D01*
X72808Y566685D01*
X73131Y567164D01*
X73505Y567602D01*
X73923Y567994D01*
X74379Y568334D01*
X74621Y568484D01*
X74873Y568621D01*
X75134Y568745D01*
X75406Y568856D01*
X75686Y568955D01*
X75976Y569039D01*
X76276Y569111D01*
X76586Y569170D01*
X76905Y569216D01*
X77233Y569249D01*
X77572Y569268D01*
X77919Y569275D01*
X78402Y569263D01*
X78864Y569227D01*
X79306Y569166D01*
X79728Y569082D01*
X80129Y568974D01*
X80511Y568841D01*
X80872Y568685D01*
X81212Y568504D01*
X81532Y568300D01*
X81830Y568072D01*
X82106Y567821D01*
X82360Y567547D01*
X82592Y567250D01*
X82802Y566929D01*
X82990Y566585D01*
X83157Y566218D01*
X81572Y565692D01*
X81456Y565954D01*
X81324Y566199D01*
X81176Y566429D01*
X81012Y566643D01*
X80832Y566841D01*
X80635Y567023D01*
X80422Y567189D01*
X80192Y567339D01*
X79949Y567473D01*
X79695Y567588D01*
X79429Y567686D01*
X79153Y567766D01*
X78866Y567828D01*
X78567Y567873D01*
X78257Y567899D01*
X77937Y567908D01*
X77439Y567888D01*
X76969Y567826D01*
X76528Y567723D01*
X76115Y567579D01*
X75731Y567393D01*
X75375Y567167D01*
X75048Y566899D01*
X74749Y566590D01*
X74482Y566245D01*
X74251Y565870D01*
X74055Y565464D01*
X73895Y565028D01*
X73770Y564561D01*
X73681Y564064D01*
X73628Y563536D01*
X73610Y562977D01*
X73629Y562424D01*
X73684Y561899D01*
X73777Y561401D01*
X73907Y560931D01*
X74074Y560489D01*
X74278Y560075D01*
X74519Y559688D01*
X74797Y559329D01*
X75107Y559006D01*
X75442Y558726D01*
X75805Y558489D01*
X76193Y558295D01*
X76607Y558144D01*
X77048Y558036D01*
X77514Y557971D01*
X78007Y557950D01*
X78326Y557960D01*
X78635Y557990D01*
X78934Y558040D01*
X79223Y558110D01*
X79501Y558201D01*
X79770Y558311D01*
X80029Y558441D01*
X80277Y558591D01*
X80516Y558762D01*
X80745Y558952D01*
X80963Y559163D01*
X81171Y559393D01*
X81370Y559644D01*
X81558Y559915D01*
X81736Y560205D01*
X81904Y560516D01*
X83271Y559833D01*
X83071Y559446D01*
X82851Y559084D01*
X82612Y558745D01*
X82354Y558429D01*
X82077Y558138D01*
X81780Y557871D01*
X81464Y557627D01*
X81129Y557407D01*
X80777Y557212D01*
X80412Y557043D01*
X80032Y556900D01*
X79639Y556783D01*
X79232Y556692D01*
X78811Y556627D01*
X78377Y556588D01*
X77928Y556575D01*
G37*
G36*
X106038Y556750D02*
X98304Y556750D01*
X98304Y558090D01*
X101448Y558090D01*
X101448Y567584D01*
X98663Y565596D01*
X98663Y567085D01*
X101580Y569091D01*
X103033Y569091D01*
X103033Y558090D01*
X106038Y558090D01*
X106038Y556750D01*
G37*
G36*
X238818Y275868D02*
X234203Y275868D01*
X234203Y288209D01*
X238284Y288209D01*
X238671Y288203D01*
X239046Y288185D01*
X239410Y288154D01*
X239762Y288111D01*
X240104Y288056D01*
X240434Y287988D01*
X240754Y287908D01*
X241062Y287816D01*
X241359Y287712D01*
X241644Y287595D01*
X241919Y287466D01*
X242182Y287325D01*
X242434Y287171D01*
X242675Y287005D01*
X242905Y286827D01*
X243123Y286637D01*
X243330Y286435D01*
X243523Y286223D01*
X243702Y286001D01*
X243869Y285768D01*
X244022Y285525D01*
X244161Y285271D01*
X244288Y285007D01*
X244401Y284733D01*
X244501Y284448D01*
X244587Y284153D01*
X244660Y283848D01*
X244720Y283532D01*
X244767Y283206D01*
X244800Y282870D01*
X244820Y282523D01*
X244827Y282166D01*
X244815Y281696D01*
X244780Y281241D01*
X244722Y280801D01*
X244641Y280376D01*
X244536Y279966D01*
X244408Y279570D01*
X244257Y279190D01*
X244082Y278824D01*
X243886Y278477D01*
X243671Y278150D01*
X243437Y277845D01*
X243182Y277560D01*
X242909Y277296D01*
X242616Y277053D01*
X242303Y276831D01*
X241972Y276630D01*
X241623Y276452D01*
X241262Y276297D01*
X240888Y276166D01*
X240500Y276059D01*
X240099Y275976D01*
X239686Y275916D01*
X239259Y275880D01*
X238818Y275868D01*
G37*
%LPC*%
G36*
X238626Y277208D02*
X238960Y277218D01*
X239284Y277246D01*
X239598Y277292D01*
X239901Y277357D01*
X240194Y277441D01*
X240477Y277543D01*
X240750Y277664D01*
X241012Y277804D01*
X241262Y277961D01*
X241497Y278135D01*
X241717Y278325D01*
X241922Y278531D01*
X242112Y278754D01*
X242288Y278993D01*
X242448Y279249D01*
X242593Y279521D01*
X242723Y279807D01*
X242835Y280106D01*
X242930Y280418D01*
X243007Y280743D01*
X243068Y281079D01*
X243111Y281429D01*
X243137Y281791D01*
X243145Y282166D01*
X243126Y282722D01*
X243067Y283245D01*
X242968Y283733D01*
X242831Y284188D01*
X242654Y284608D01*
X242438Y284995D01*
X242183Y285347D01*
X241888Y285665D01*
X241557Y285947D01*
X241190Y286192D01*
X240787Y286399D01*
X240350Y286568D01*
X239878Y286700D01*
X239370Y286794D01*
X238827Y286850D01*
X238249Y286869D01*
X235876Y286869D01*
X235876Y277208D01*
X238626Y277208D01*
G37*
%LPD*%
G36*
X254800Y275868D02*
X247066Y275868D01*
X247066Y277208D01*
X250211Y277208D01*
X250211Y286703D01*
X247425Y284715D01*
X247425Y286203D01*
X250342Y288209D01*
X251796Y288209D01*
X251796Y277208D01*
X254800Y277208D01*
X254800Y275868D01*
G37*
G36*
X500635Y117825D02*
X500168Y117837D01*
X499717Y117873D01*
X499283Y117933D01*
X498865Y118018D01*
X498463Y118126D01*
X498077Y118258D01*
X497708Y118415D01*
X497355Y118596D01*
X497020Y118799D01*
X496706Y119024D01*
X496412Y119270D01*
X496139Y119538D01*
X495885Y119828D01*
X495653Y120138D01*
X495440Y120471D01*
X495248Y120825D01*
X495078Y121197D01*
X494930Y121584D01*
X494805Y121987D01*
X494703Y122404D01*
X494624Y122837D01*
X494567Y123286D01*
X494533Y123749D01*
X494521Y124227D01*
X494528Y124592D01*
X494547Y124947D01*
X494578Y125292D01*
X494623Y125627D01*
X494680Y125951D01*
X494749Y126266D01*
X494832Y126570D01*
X494927Y126865D01*
X495034Y127149D01*
X495154Y127423D01*
X495287Y127687D01*
X495433Y127941D01*
X495762Y128419D01*
X496142Y128856D01*
X496567Y129247D01*
X496794Y129423D01*
X497031Y129586D01*
X497279Y129736D01*
X497536Y129873D01*
X497803Y129997D01*
X498080Y130108D01*
X498366Y130205D01*
X498663Y130290D01*
X498970Y130362D01*
X499287Y130420D01*
X499613Y130466D01*
X499950Y130499D01*
X500296Y130518D01*
X500652Y130525D01*
X501115Y130513D01*
X501563Y130478D01*
X501995Y130419D01*
X502411Y130338D01*
X502811Y130232D01*
X503196Y130103D01*
X503566Y129951D01*
X503919Y129776D01*
X504255Y129578D01*
X504571Y129359D01*
X504866Y129119D01*
X505140Y128857D01*
X505394Y128575D01*
X505628Y128271D01*
X505842Y127946D01*
X506035Y127599D01*
X506206Y127234D01*
X506355Y126853D01*
X506480Y126456D01*
X506583Y126043D01*
X506663Y125613D01*
X506720Y125167D01*
X506754Y124705D01*
X506766Y124227D01*
X506754Y123751D01*
X506720Y123290D01*
X506662Y122843D01*
X506581Y122412D01*
X506477Y121996D01*
X506350Y121595D01*
X506199Y121209D01*
X506026Y120838D01*
X505831Y120485D01*
X505616Y120153D01*
X505380Y119842D01*
X505125Y119552D01*
X504849Y119284D01*
X504554Y119036D01*
X504238Y118810D01*
X503902Y118604D01*
X503548Y118422D01*
X503179Y118263D01*
X502794Y118129D01*
X502393Y118020D01*
X501977Y117934D01*
X501545Y117874D01*
X501098Y117837D01*
X500635Y117825D01*
G37*
%LPC*%
G36*
X500635Y119182D02*
X501154Y119203D01*
X501641Y119265D01*
X502098Y119368D01*
X502523Y119512D01*
X502918Y119697D01*
X503281Y119924D01*
X503614Y120192D01*
X503915Y120501D01*
X504183Y120847D01*
X504415Y121228D01*
X504612Y121643D01*
X504772Y122091D01*
X504897Y122574D01*
X504987Y123091D01*
X505040Y123642D01*
X505058Y124227D01*
X505040Y124788D01*
X504986Y125317D01*
X504896Y125816D01*
X504770Y126283D01*
X504608Y126720D01*
X504410Y127126D01*
X504176Y127501D01*
X503906Y127845D01*
X503603Y128153D01*
X503271Y128419D01*
X502909Y128645D01*
X502517Y128830D01*
X502095Y128974D01*
X501644Y129076D01*
X501163Y129138D01*
X500652Y129158D01*
X500138Y129138D01*
X499653Y129077D01*
X499198Y128976D01*
X498774Y128834D01*
X498379Y128652D01*
X498015Y128429D01*
X497681Y128166D01*
X497377Y127862D01*
X497106Y127522D01*
X496871Y127149D01*
X496672Y126743D01*
X496510Y126305D01*
X496383Y125835D01*
X496293Y125331D01*
X496239Y124796D01*
X496221Y124227D01*
X496239Y123662D01*
X496294Y123127D01*
X496385Y122621D01*
X496513Y122146D01*
X496677Y121701D01*
X496878Y121285D01*
X497116Y120900D01*
X497390Y120544D01*
X497696Y120225D01*
X498031Y119949D01*
X498394Y119714D01*
X498786Y119523D01*
X499206Y119374D01*
X499654Y119268D01*
X500130Y119204D01*
X500635Y119182D01*
G37*
%LPD*%
G36*
X588354Y117825D02*
X587887Y117837D01*
X587436Y117873D01*
X587001Y117933D01*
X586583Y118018D01*
X586181Y118126D01*
X585796Y118258D01*
X585427Y118415D01*
X585074Y118596D01*
X584739Y118799D01*
X584425Y119024D01*
X584131Y119270D01*
X583857Y119538D01*
X583604Y119828D01*
X583371Y120138D01*
X583159Y120471D01*
X582967Y120825D01*
X582797Y121197D01*
X582649Y121584D01*
X582524Y121987D01*
X582422Y122404D01*
X582342Y122837D01*
X582286Y123286D01*
X582252Y123749D01*
X582240Y124227D01*
X582247Y124592D01*
X582266Y124947D01*
X582297Y125292D01*
X582341Y125627D01*
X582398Y125951D01*
X582468Y126266D01*
X582550Y126570D01*
X582645Y126865D01*
X582753Y127149D01*
X582873Y127423D01*
X583006Y127687D01*
X583152Y127941D01*
X583481Y128419D01*
X583861Y128856D01*
X584285Y129247D01*
X584513Y129423D01*
X584750Y129586D01*
X584997Y129736D01*
X585254Y129873D01*
X585521Y129997D01*
X585798Y130108D01*
X586085Y130205D01*
X586382Y130290D01*
X586689Y130362D01*
X587005Y130420D01*
X587332Y130466D01*
X587668Y130499D01*
X588015Y130518D01*
X588371Y130525D01*
X588834Y130513D01*
X589282Y130478D01*
X589713Y130419D01*
X590129Y130338D01*
X590530Y130232D01*
X590915Y130103D01*
X591284Y129951D01*
X591638Y129776D01*
X591974Y129578D01*
X592289Y129359D01*
X592584Y129119D01*
X592859Y128857D01*
X593113Y128575D01*
X593347Y128271D01*
X593560Y127946D01*
X593753Y127599D01*
X593925Y127234D01*
X594073Y126853D01*
X594199Y126456D01*
X594302Y126043D01*
X594382Y125613D01*
X594439Y125167D01*
X594473Y124705D01*
X594485Y124227D01*
X594473Y123751D01*
X594438Y123290D01*
X594381Y122843D01*
X594300Y122412D01*
X594196Y121996D01*
X594068Y121595D01*
X593918Y121209D01*
X593745Y120838D01*
X593549Y120485D01*
X593334Y120153D01*
X593099Y119842D01*
X592844Y119552D01*
X592568Y119284D01*
X592272Y119036D01*
X591957Y118810D01*
X591621Y118604D01*
X591267Y118422D01*
X590897Y118263D01*
X590513Y118129D01*
X590112Y118020D01*
X589696Y117934D01*
X589264Y117874D01*
X588817Y117837D01*
X588354Y117825D01*
G37*
%LPC*%
G36*
X588354Y119182D02*
X588872Y119203D01*
X589360Y119265D01*
X589817Y119368D01*
X590242Y119512D01*
X590637Y119697D01*
X591000Y119924D01*
X591332Y120192D01*
X591634Y120501D01*
X591902Y120847D01*
X592134Y121228D01*
X592330Y121643D01*
X592491Y122091D01*
X592616Y122574D01*
X592705Y123091D01*
X592759Y123642D01*
X592777Y124227D01*
X592759Y124788D01*
X592705Y125317D01*
X592615Y125816D01*
X592489Y126283D01*
X592327Y126720D01*
X592129Y127126D01*
X591895Y127501D01*
X591625Y127845D01*
X591322Y128153D01*
X590990Y128419D01*
X590628Y128645D01*
X590236Y128830D01*
X589814Y128974D01*
X589363Y129076D01*
X588882Y129138D01*
X588371Y129158D01*
X587856Y129138D01*
X587372Y129077D01*
X586917Y128976D01*
X586492Y128834D01*
X586098Y128652D01*
X585734Y128429D01*
X585400Y128166D01*
X585095Y127862D01*
X584825Y127522D01*
X584590Y127149D01*
X584391Y126743D01*
X584228Y126305D01*
X584102Y125835D01*
X584012Y125331D01*
X583957Y124796D01*
X583939Y124227D01*
X583958Y123662D01*
X584012Y123127D01*
X584104Y122621D01*
X584232Y122146D01*
X584396Y121701D01*
X584597Y121285D01*
X584835Y120900D01*
X585109Y120544D01*
X585415Y120225D01*
X585750Y119949D01*
X586113Y119714D01*
X586505Y119523D01*
X586924Y119374D01*
X587372Y119268D01*
X587849Y119204D01*
X588354Y119182D01*
G37*
%LPD*%
G36*
X598472Y118000D02*
X596800Y118000D01*
X596800Y130341D01*
X602606Y130341D01*
X603113Y130326D01*
X603589Y130282D01*
X604036Y130210D01*
X604453Y130108D01*
X604841Y129976D01*
X605199Y129816D01*
X605527Y129627D01*
X605825Y129408D01*
X606091Y129163D01*
X606321Y128896D01*
X606516Y128606D01*
X606676Y128292D01*
X606800Y127956D01*
X606889Y127597D01*
X606942Y127216D01*
X606959Y126811D01*
X606947Y126474D01*
X606909Y126151D01*
X606847Y125841D01*
X606759Y125545D01*
X606646Y125263D01*
X606509Y124995D01*
X606346Y124740D01*
X606158Y124499D01*
X605948Y124275D01*
X605719Y124074D01*
X605471Y123893D01*
X605361Y123827D01*
X605204Y123735D01*
X604919Y123598D01*
X604614Y123482D01*
X604290Y123389D01*
X603947Y123316D01*
X605438Y121053D01*
X607450Y118000D01*
X605523Y118000D01*
X602317Y123124D01*
X598472Y123124D01*
X598472Y118000D01*
G37*
%LPC*%
G36*
X602510Y124446D02*
X602831Y124456D01*
X603134Y124485D01*
X603418Y124533D01*
X603683Y124601D01*
X603929Y124687D01*
X604156Y124794D01*
X604365Y124919D01*
X604555Y125064D01*
X604725Y125226D01*
X604871Y125403D01*
X604996Y125596D01*
X605097Y125805D01*
X605176Y126029D01*
X605233Y126268D01*
X605267Y126523D01*
X605278Y126794D01*
X605266Y127055D01*
X605232Y127300D01*
X605175Y127530D01*
X605095Y127743D01*
X604992Y127940D01*
X604866Y128121D01*
X604718Y128287D01*
X604546Y128436D01*
X604354Y128568D01*
X604141Y128683D01*
X603907Y128780D01*
X603654Y128860D01*
X603381Y128921D01*
X603087Y128965D01*
X602774Y128992D01*
X602440Y129001D01*
X598472Y129001D01*
X598472Y124446D01*
X602510Y124446D01*
G37*
%LPD*%
G36*
X559414Y118000D02*
X557925Y118000D01*
X557925Y130341D01*
X559869Y130341D01*
X566543Y119760D01*
X566464Y121241D01*
X566438Y122248D01*
X566438Y130341D01*
X567944Y130341D01*
X567944Y118000D01*
X565930Y118000D01*
X559326Y128510D01*
X559370Y127661D01*
X559414Y126198D01*
X559414Y118000D01*
G37*
G36*
X555678Y118000D02*
X545956Y118000D01*
X545956Y130341D01*
X555319Y130341D01*
X555319Y128974D01*
X547629Y128974D01*
X547629Y125016D01*
X554793Y125016D01*
X554793Y123667D01*
X547629Y123667D01*
X547629Y119366D01*
X555678Y119366D01*
X555678Y118000D01*
G37*
G36*
X487747Y117825D02*
X487198Y117837D01*
X486678Y117874D01*
X486188Y117935D01*
X485728Y118021D01*
X485298Y118131D01*
X484897Y118266D01*
X484526Y118425D01*
X484184Y118609D01*
X483872Y118817D01*
X483590Y119050D01*
X483337Y119307D01*
X483114Y119589D01*
X482920Y119895D01*
X482756Y120225D01*
X482622Y120581D01*
X482518Y120960D01*
X484138Y121284D01*
X484218Y121016D01*
X484318Y120765D01*
X484437Y120533D01*
X484576Y120320D01*
X484735Y120125D01*
X484913Y119949D01*
X485111Y119791D01*
X485329Y119651D01*
X485567Y119529D01*
X485826Y119423D01*
X486105Y119333D01*
X486404Y119260D01*
X486724Y119203D01*
X487065Y119162D01*
X487426Y119138D01*
X487808Y119130D01*
X488201Y119139D01*
X488572Y119165D01*
X488919Y119208D01*
X489243Y119269D01*
X489544Y119347D01*
X489822Y119443D01*
X490077Y119556D01*
X490308Y119686D01*
X490515Y119833D01*
X490693Y119997D01*
X490845Y120176D01*
X490969Y120372D01*
X491065Y120585D01*
X491134Y120813D01*
X491175Y121058D01*
X491189Y121319D01*
X491171Y121607D01*
X491120Y121867D01*
X491033Y122098D01*
X490913Y122300D01*
X490761Y122481D01*
X490581Y122644D01*
X490373Y122791D01*
X490138Y122922D01*
X489876Y123040D01*
X489590Y123148D01*
X489280Y123246D01*
X488946Y123334D01*
X487414Y123693D01*
X486726Y123855D01*
X486127Y124017D01*
X485616Y124179D01*
X485193Y124341D01*
X484835Y124508D01*
X484516Y124684D01*
X484237Y124869D01*
X483998Y125064D01*
X483792Y125272D01*
X483611Y125496D01*
X483457Y125738D01*
X483328Y125997D01*
X483226Y126274D01*
X483154Y126570D01*
X483110Y126887D01*
X483096Y127223D01*
X483115Y127608D01*
X483172Y127970D01*
X483266Y128309D01*
X483399Y128626D01*
X483570Y128920D01*
X483778Y129192D01*
X484024Y129440D01*
X484309Y129666D01*
X484628Y129868D01*
X484981Y130042D01*
X485366Y130189D01*
X485784Y130310D01*
X486234Y130404D01*
X486717Y130471D01*
X487233Y130511D01*
X487782Y130525D01*
X488292Y130515D01*
X488771Y130484D01*
X489219Y130434D01*
X489636Y130364D01*
X490023Y130273D01*
X490378Y130163D01*
X490702Y130032D01*
X490996Y129881D01*
X491264Y129706D01*
X491511Y129502D01*
X491737Y129271D01*
X491942Y129011D01*
X492126Y128722D01*
X492290Y128405D01*
X492433Y128060D01*
X492555Y127687D01*
X490908Y127398D01*
X490833Y127635D01*
X490742Y127855D01*
X490636Y128058D01*
X490514Y128244D01*
X490377Y128414D01*
X490225Y128566D01*
X490058Y128702D01*
X489875Y128821D01*
X489675Y128925D01*
X489457Y129015D01*
X489221Y129091D01*
X488966Y129153D01*
X488693Y129201D01*
X488402Y129236D01*
X488092Y129257D01*
X487764Y129263D01*
X487405Y129256D01*
X487068Y129233D01*
X486752Y129195D01*
X486459Y129141D01*
X486187Y129072D01*
X485938Y128988D01*
X485710Y128888D01*
X485504Y128773D01*
X485322Y128643D01*
X485163Y128498D01*
X485029Y128337D01*
X484920Y128162D01*
X484834Y127972D01*
X484774Y127766D01*
X484737Y127546D01*
X484725Y127310D01*
X484744Y127038D01*
X484800Y126790D01*
X484895Y126567D01*
X485027Y126369D01*
X485195Y126190D01*
X485396Y126025D01*
X485631Y125874D01*
X485898Y125738D01*
X486254Y125602D01*
X486750Y125450D01*
X487388Y125284D01*
X488167Y125103D01*
X489301Y124836D01*
X489854Y124687D01*
X490383Y124512D01*
X490883Y124307D01*
X491351Y124070D01*
X491569Y123936D01*
X491772Y123787D01*
X491961Y123625D01*
X492135Y123448D01*
X492292Y123256D01*
X492431Y123047D01*
X492552Y122822D01*
X492656Y122581D01*
X492738Y122320D01*
X492797Y122038D01*
X492832Y121733D01*
X492844Y121407D01*
X492823Y120992D01*
X492761Y120601D01*
X492656Y120235D01*
X492510Y119892D01*
X492322Y119573D01*
X492093Y119279D01*
X491821Y119008D01*
X491508Y118762D01*
X491157Y118542D01*
X490772Y118352D01*
X490353Y118191D01*
X489900Y118059D01*
X489413Y117957D01*
X488891Y117883D01*
X488336Y117840D01*
X487747Y117825D01*
G37*
G36*
X538559Y117825D02*
X538010Y117837D01*
X537491Y117874D01*
X537001Y117935D01*
X536541Y118021D01*
X536110Y118131D01*
X535709Y118266D01*
X535338Y118425D01*
X534996Y118609D01*
X534684Y118817D01*
X534402Y119050D01*
X534149Y119307D01*
X533926Y119589D01*
X533733Y119895D01*
X533569Y120225D01*
X533435Y120581D01*
X533330Y120960D01*
X534951Y121284D01*
X535030Y121016D01*
X535130Y120765D01*
X535249Y120533D01*
X535388Y120320D01*
X535547Y120125D01*
X535726Y119949D01*
X535924Y119791D01*
X536142Y119651D01*
X536380Y119529D01*
X536638Y119423D01*
X536917Y119333D01*
X537217Y119260D01*
X537537Y119203D01*
X537877Y119162D01*
X538239Y119138D01*
X538620Y119130D01*
X539014Y119139D01*
X539384Y119165D01*
X539732Y119208D01*
X540056Y119269D01*
X540357Y119347D01*
X540635Y119443D01*
X540889Y119556D01*
X541121Y119686D01*
X541327Y119833D01*
X541506Y119997D01*
X541657Y120176D01*
X541781Y120372D01*
X541877Y120585D01*
X541946Y120813D01*
X541987Y121058D01*
X542001Y121319D01*
X541984Y121607D01*
X541932Y121867D01*
X541846Y122098D01*
X541725Y122300D01*
X541573Y122481D01*
X541394Y122644D01*
X541186Y122791D01*
X540950Y122922D01*
X540688Y123040D01*
X540403Y123148D01*
X540093Y123246D01*
X539759Y123334D01*
X538226Y123693D01*
X537539Y123855D01*
X536940Y124017D01*
X536429Y124179D01*
X536006Y124341D01*
X535647Y124508D01*
X535328Y124684D01*
X535049Y124869D01*
X534810Y125064D01*
X534604Y125272D01*
X534424Y125496D01*
X534269Y125738D01*
X534140Y125997D01*
X534039Y126274D01*
X533966Y126570D01*
X533923Y126887D01*
X533908Y127223D01*
X533927Y127608D01*
X533984Y127970D01*
X534079Y128309D01*
X534211Y128626D01*
X534382Y128920D01*
X534591Y129192D01*
X534837Y129440D01*
X535121Y129666D01*
X535441Y129868D01*
X535793Y130042D01*
X536178Y130189D01*
X536596Y130310D01*
X537046Y130404D01*
X537530Y130471D01*
X538045Y130511D01*
X538594Y130525D01*
X539104Y130515D01*
X539583Y130484D01*
X540031Y130434D01*
X540449Y130364D01*
X540835Y130273D01*
X541190Y130163D01*
X541515Y130032D01*
X541808Y129881D01*
X542076Y129706D01*
X542323Y129502D01*
X542549Y129271D01*
X542754Y129011D01*
X542939Y128722D01*
X543103Y128405D01*
X543245Y128060D01*
X543367Y127687D01*
X541721Y127398D01*
X541645Y127635D01*
X541554Y127855D01*
X541448Y128058D01*
X541327Y128244D01*
X541190Y128414D01*
X541038Y128566D01*
X540870Y128702D01*
X540687Y128821D01*
X540488Y128925D01*
X540270Y129015D01*
X540033Y129091D01*
X539779Y129153D01*
X539506Y129201D01*
X539214Y129236D01*
X538905Y129257D01*
X538577Y129263D01*
X538217Y129256D01*
X537880Y129233D01*
X537565Y129195D01*
X537272Y129141D01*
X537000Y129072D01*
X536750Y128988D01*
X536523Y128888D01*
X536317Y128773D01*
X536134Y128643D01*
X535976Y128498D01*
X535842Y128337D01*
X535732Y128162D01*
X535647Y127972D01*
X535586Y127766D01*
X535550Y127546D01*
X535537Y127310D01*
X535556Y127038D01*
X535613Y126790D01*
X535707Y126567D01*
X535839Y126369D01*
X536007Y126190D01*
X536208Y126025D01*
X536443Y125874D01*
X536711Y125738D01*
X537066Y125602D01*
X537563Y125450D01*
X538200Y125284D01*
X538979Y125103D01*
X540114Y124836D01*
X540667Y124687D01*
X541195Y124512D01*
X541696Y124307D01*
X542163Y124070D01*
X542381Y123936D01*
X542585Y123787D01*
X542773Y123625D01*
X542947Y123448D01*
X543104Y123256D01*
X543244Y123047D01*
X543365Y122822D01*
X543468Y122581D01*
X543551Y122320D01*
X543609Y122038D01*
X543645Y121733D01*
X543656Y121407D01*
X543636Y120992D01*
X543573Y120601D01*
X543469Y120235D01*
X543323Y119892D01*
X543135Y119573D01*
X542905Y119279D01*
X542634Y119008D01*
X542321Y118762D01*
X541970Y118542D01*
X541585Y118352D01*
X541166Y118191D01*
X540713Y118059D01*
X540225Y117957D01*
X539704Y117883D01*
X539149Y117840D01*
X538559Y117825D01*
G37*
G36*
X575465Y117825D02*
X574916Y117837D01*
X574397Y117874D01*
X573907Y117935D01*
X573447Y118021D01*
X573016Y118131D01*
X572616Y118266D01*
X572244Y118425D01*
X571903Y118609D01*
X571591Y118817D01*
X571308Y119050D01*
X571056Y119307D01*
X570833Y119589D01*
X570639Y119895D01*
X570475Y120225D01*
X570341Y120581D01*
X570236Y120960D01*
X571857Y121284D01*
X571937Y121016D01*
X572036Y120765D01*
X572156Y120533D01*
X572295Y120320D01*
X572453Y120125D01*
X572632Y119949D01*
X572830Y119791D01*
X573048Y119651D01*
X573286Y119529D01*
X573544Y119423D01*
X573823Y119333D01*
X574123Y119260D01*
X574443Y119203D01*
X574784Y119162D01*
X575145Y119138D01*
X575527Y119130D01*
X575920Y119139D01*
X576290Y119165D01*
X576638Y119208D01*
X576962Y119269D01*
X577263Y119347D01*
X577541Y119443D01*
X577796Y119556D01*
X578027Y119686D01*
X578233Y119833D01*
X578412Y119997D01*
X578564Y120176D01*
X578687Y120372D01*
X578784Y120585D01*
X578852Y120813D01*
X578894Y121058D01*
X578907Y121319D01*
X578890Y121607D01*
X578838Y121867D01*
X578752Y122098D01*
X578631Y122300D01*
X578480Y122481D01*
X578300Y122644D01*
X578092Y122791D01*
X577856Y122922D01*
X577595Y123040D01*
X577309Y123148D01*
X576999Y123246D01*
X576665Y123334D01*
X575132Y123693D01*
X574445Y123855D01*
X573846Y124017D01*
X573335Y124179D01*
X572912Y124341D01*
X572553Y124508D01*
X572234Y124684D01*
X571956Y124869D01*
X571717Y125064D01*
X571511Y125272D01*
X571330Y125496D01*
X571175Y125738D01*
X571047Y125997D01*
X570945Y126274D01*
X570873Y126570D01*
X570829Y126887D01*
X570814Y127223D01*
X570833Y127608D01*
X570890Y127970D01*
X570985Y128309D01*
X571118Y128626D01*
X571288Y128920D01*
X571497Y129192D01*
X571743Y129440D01*
X572028Y129666D01*
X572347Y129868D01*
X572699Y130042D01*
X573085Y130189D01*
X573502Y130310D01*
X573953Y130404D01*
X574436Y130471D01*
X574952Y130511D01*
X575500Y130525D01*
X576010Y130515D01*
X576489Y130484D01*
X576938Y130434D01*
X577355Y130364D01*
X577741Y130273D01*
X578097Y130163D01*
X578421Y130032D01*
X578715Y129881D01*
X578982Y129706D01*
X579229Y129502D01*
X579455Y129271D01*
X579661Y129011D01*
X579845Y128722D01*
X580009Y128405D01*
X580152Y128060D01*
X580274Y127687D01*
X578627Y127398D01*
X578552Y127635D01*
X578461Y127855D01*
X578354Y128058D01*
X578233Y128244D01*
X578096Y128414D01*
X577944Y128566D01*
X577776Y128702D01*
X577594Y128821D01*
X577394Y128925D01*
X577176Y129015D01*
X576940Y129091D01*
X576685Y129153D01*
X576412Y129201D01*
X576121Y129236D01*
X575811Y129257D01*
X575483Y129263D01*
X575124Y129256D01*
X574786Y129233D01*
X574471Y129195D01*
X574178Y129141D01*
X573906Y129072D01*
X573657Y128988D01*
X573429Y128888D01*
X573223Y128773D01*
X573040Y128643D01*
X572882Y128498D01*
X572748Y128337D01*
X572638Y128162D01*
X572553Y127972D01*
X572492Y127766D01*
X572456Y127546D01*
X572444Y127310D01*
X572462Y127038D01*
X572519Y126790D01*
X572614Y126567D01*
X572746Y126369D01*
X572914Y126190D01*
X573115Y126025D01*
X573349Y125874D01*
X573617Y125738D01*
X573972Y125602D01*
X574469Y125450D01*
X575107Y125284D01*
X575886Y125103D01*
X577020Y124836D01*
X577573Y124687D01*
X578102Y124512D01*
X578602Y124307D01*
X579069Y124070D01*
X579288Y123936D01*
X579491Y123787D01*
X579679Y123625D01*
X579853Y123448D01*
X580011Y123256D01*
X580150Y123047D01*
X580271Y122822D01*
X580374Y122581D01*
X580457Y122320D01*
X580516Y122038D01*
X580551Y121733D01*
X580563Y121407D01*
X580542Y120992D01*
X580479Y120601D01*
X580375Y120235D01*
X580229Y119892D01*
X580041Y119573D01*
X579811Y119279D01*
X579540Y119008D01*
X579227Y118762D01*
X578876Y118542D01*
X578491Y118352D01*
X578072Y118191D01*
X577619Y118059D01*
X577132Y117957D01*
X576610Y117883D01*
X576055Y117840D01*
X575465Y117825D01*
G37*
G36*
X521959Y118000D02*
X514050Y118000D01*
X514050Y130341D01*
X515722Y130341D01*
X515722Y119366D01*
X521959Y119366D01*
X521959Y118000D01*
G37*
G36*
X510938Y118000D02*
X509265Y118000D01*
X509265Y130341D01*
X510938Y130341D01*
X510938Y118000D01*
G37*
G36*
X532724Y114435D02*
X522275Y114435D01*
X522275Y115574D01*
X532724Y115574D01*
X532724Y114435D01*
G37*
G36*
X343354Y427825D02*
X342887Y427837D01*
X342436Y427873D01*
X342001Y427933D01*
X341583Y428018D01*
X341181Y428126D01*
X340796Y428258D01*
X340427Y428415D01*
X340074Y428596D01*
X339739Y428799D01*
X339425Y429024D01*
X339131Y429270D01*
X338857Y429538D01*
X338604Y429828D01*
X338371Y430138D01*
X338159Y430471D01*
X337967Y430825D01*
X337797Y431197D01*
X337649Y431584D01*
X337524Y431987D01*
X337422Y432404D01*
X337342Y432837D01*
X337286Y433286D01*
X337252Y433749D01*
X337240Y434227D01*
X337247Y434592D01*
X337266Y434947D01*
X337297Y435292D01*
X337341Y435627D01*
X337398Y435951D01*
X337468Y436266D01*
X337550Y436570D01*
X337645Y436865D01*
X337753Y437149D01*
X337873Y437423D01*
X338006Y437687D01*
X338152Y437941D01*
X338481Y438419D01*
X338861Y438856D01*
X339285Y439247D01*
X339513Y439423D01*
X339750Y439586D01*
X339997Y439736D01*
X340254Y439873D01*
X340521Y439997D01*
X340798Y440108D01*
X341085Y440205D01*
X341382Y440290D01*
X341689Y440362D01*
X342005Y440420D01*
X342332Y440466D01*
X342668Y440499D01*
X343015Y440518D01*
X343371Y440525D01*
X343834Y440513D01*
X344282Y440478D01*
X344713Y440419D01*
X345129Y440338D01*
X345530Y440232D01*
X345915Y440103D01*
X346284Y439951D01*
X346638Y439776D01*
X346974Y439578D01*
X347289Y439359D01*
X347584Y439119D01*
X347859Y438857D01*
X348113Y438575D01*
X348347Y438271D01*
X348560Y437946D01*
X348753Y437599D01*
X348925Y437234D01*
X349073Y436853D01*
X349199Y436456D01*
X349302Y436043D01*
X349382Y435613D01*
X349439Y435167D01*
X349473Y434705D01*
X349485Y434227D01*
X349473Y433751D01*
X349438Y433290D01*
X349381Y432843D01*
X349300Y432412D01*
X349196Y431996D01*
X349068Y431595D01*
X348918Y431209D01*
X348745Y430838D01*
X348549Y430485D01*
X348334Y430153D01*
X348099Y429842D01*
X347844Y429552D01*
X347568Y429284D01*
X347272Y429036D01*
X346957Y428810D01*
X346621Y428604D01*
X346267Y428422D01*
X345897Y428263D01*
X345513Y428129D01*
X345112Y428020D01*
X344696Y427934D01*
X344264Y427874D01*
X343817Y427837D01*
X343354Y427825D01*
G37*
%LPC*%
G36*
X343354Y429182D02*
X343872Y429203D01*
X344360Y429265D01*
X344817Y429368D01*
X345242Y429512D01*
X345637Y429697D01*
X346000Y429924D01*
X346332Y430192D01*
X346634Y430501D01*
X346902Y430847D01*
X347134Y431228D01*
X347330Y431643D01*
X347491Y432091D01*
X347616Y432574D01*
X347705Y433091D01*
X347759Y433642D01*
X347777Y434227D01*
X347759Y434788D01*
X347705Y435317D01*
X347615Y435816D01*
X347489Y436283D01*
X347327Y436720D01*
X347129Y437126D01*
X346895Y437501D01*
X346625Y437845D01*
X346322Y438153D01*
X345990Y438419D01*
X345628Y438645D01*
X345236Y438830D01*
X344814Y438974D01*
X344363Y439076D01*
X343882Y439138D01*
X343371Y439158D01*
X342856Y439138D01*
X342372Y439077D01*
X341917Y438976D01*
X341492Y438834D01*
X341098Y438652D01*
X340734Y438429D01*
X340400Y438166D01*
X340095Y437862D01*
X339825Y437522D01*
X339590Y437149D01*
X339391Y436743D01*
X339228Y436305D01*
X339102Y435835D01*
X339012Y435331D01*
X338957Y434796D01*
X338939Y434227D01*
X338958Y433662D01*
X339012Y433127D01*
X339104Y432621D01*
X339232Y432146D01*
X339396Y431701D01*
X339597Y431285D01*
X339835Y430900D01*
X340109Y430544D01*
X340415Y430225D01*
X340750Y429949D01*
X341113Y429714D01*
X341505Y429523D01*
X341924Y429374D01*
X342372Y429268D01*
X342849Y429204D01*
X343354Y429182D01*
G37*
%LPD*%
G36*
X267722Y428000D02*
X266050Y428000D01*
X266050Y440341D01*
X271856Y440341D01*
X272363Y440326D01*
X272839Y440282D01*
X273286Y440210D01*
X273703Y440108D01*
X274091Y439976D01*
X274449Y439816D01*
X274777Y439627D01*
X275075Y439408D01*
X275341Y439163D01*
X275571Y438896D01*
X275766Y438606D01*
X275926Y438292D01*
X276050Y437956D01*
X276139Y437597D01*
X276192Y437216D01*
X276209Y436811D01*
X276197Y436474D01*
X276159Y436151D01*
X276097Y435841D01*
X276009Y435545D01*
X275896Y435263D01*
X275759Y434995D01*
X275596Y434740D01*
X275408Y434499D01*
X275198Y434275D01*
X274969Y434074D01*
X274721Y433893D01*
X274611Y433827D01*
X274454Y433735D01*
X274169Y433598D01*
X273864Y433482D01*
X273540Y433389D01*
X273197Y433316D01*
X274688Y431053D01*
X276700Y428000D01*
X274773Y428000D01*
X271567Y433124D01*
X267722Y433124D01*
X267722Y428000D01*
G37*
%LPC*%
G36*
X271760Y434446D02*
X272081Y434456D01*
X272384Y434485D01*
X272668Y434533D01*
X272933Y434601D01*
X273179Y434687D01*
X273406Y434794D01*
X273615Y434919D01*
X273805Y435064D01*
X273975Y435226D01*
X274121Y435403D01*
X274246Y435596D01*
X274347Y435805D01*
X274426Y436029D01*
X274483Y436268D01*
X274517Y436523D01*
X274528Y436794D01*
X274516Y437055D01*
X274482Y437300D01*
X274425Y437530D01*
X274345Y437743D01*
X274242Y437940D01*
X274116Y438121D01*
X273968Y438287D01*
X273796Y438436D01*
X273604Y438568D01*
X273391Y438683D01*
X273157Y438780D01*
X272904Y438860D01*
X272631Y438921D01*
X272337Y438965D01*
X272024Y438992D01*
X271690Y439001D01*
X267722Y439001D01*
X267722Y434446D01*
X271760Y434446D01*
G37*
%LPD*%
G36*
X353472Y428000D02*
X351800Y428000D01*
X351800Y440341D01*
X357606Y440341D01*
X358113Y440326D01*
X358589Y440282D01*
X359036Y440210D01*
X359453Y440108D01*
X359841Y439976D01*
X360199Y439816D01*
X360527Y439627D01*
X360825Y439408D01*
X361091Y439163D01*
X361321Y438896D01*
X361516Y438606D01*
X361676Y438292D01*
X361800Y437956D01*
X361889Y437597D01*
X361942Y437216D01*
X361959Y436811D01*
X361947Y436474D01*
X361909Y436151D01*
X361847Y435841D01*
X361759Y435545D01*
X361646Y435263D01*
X361509Y434995D01*
X361346Y434740D01*
X361158Y434499D01*
X360948Y434275D01*
X360719Y434074D01*
X360471Y433893D01*
X360361Y433827D01*
X360204Y433735D01*
X359919Y433598D01*
X359614Y433482D01*
X359290Y433389D01*
X358947Y433316D01*
X360438Y431053D01*
X362450Y428000D01*
X360523Y428000D01*
X357317Y433124D01*
X353472Y433124D01*
X353472Y428000D01*
G37*
%LPC*%
G36*
X357510Y434446D02*
X357831Y434456D01*
X358134Y434485D01*
X358418Y434533D01*
X358683Y434601D01*
X358929Y434687D01*
X359156Y434794D01*
X359365Y434919D01*
X359555Y435064D01*
X359725Y435226D01*
X359871Y435403D01*
X359996Y435596D01*
X360097Y435805D01*
X360176Y436029D01*
X360233Y436268D01*
X360267Y436523D01*
X360278Y436794D01*
X360266Y437055D01*
X360232Y437300D01*
X360175Y437530D01*
X360095Y437743D01*
X359992Y437940D01*
X359866Y438121D01*
X359718Y438287D01*
X359546Y438436D01*
X359354Y438568D01*
X359141Y438683D01*
X358907Y438780D01*
X358654Y438860D01*
X358381Y438921D01*
X358087Y438965D01*
X357774Y438992D01*
X357440Y439001D01*
X353472Y439001D01*
X353472Y434446D01*
X357510Y434446D01*
G37*
%LPD*%
G36*
X220414Y428000D02*
X218417Y428000D01*
X214782Y440341D01*
X216525Y440341D01*
X218741Y432502D01*
X219120Y431009D01*
X219468Y429471D01*
X219954Y431573D01*
X220209Y432548D01*
X220699Y434335D01*
X222384Y440341D01*
X223987Y440341D01*
X226133Y432660D01*
X226571Y430921D01*
X226904Y429471D01*
X226983Y429778D01*
X227368Y431420D01*
X228058Y433968D01*
X229829Y440341D01*
X231572Y440341D01*
X227937Y428000D01*
X225940Y428000D01*
X223803Y435839D01*
X223545Y436866D01*
X223190Y438475D01*
X222805Y436776D01*
X222128Y434240D01*
X220414Y428000D01*
G37*
G36*
X232754Y428000D02*
X231019Y428000D01*
X236056Y440341D01*
X237956Y440341D01*
X242914Y428000D01*
X241206Y428000D01*
X239795Y431609D01*
X234172Y431609D01*
X232754Y428000D01*
G37*
%LPC*%
G36*
X239296Y432914D02*
X237711Y436986D01*
X237466Y437630D01*
X237220Y438353D01*
X236984Y439080D01*
X236905Y438834D01*
X236634Y438004D01*
X236257Y436969D01*
X234680Y432914D01*
X239296Y432914D01*
G37*
%LPD*%
G36*
X314414Y428000D02*
X312925Y428000D01*
X312925Y440341D01*
X314869Y440341D01*
X321543Y429760D01*
X321464Y431241D01*
X321438Y432248D01*
X321438Y440341D01*
X322944Y440341D01*
X322944Y428000D01*
X320930Y428000D01*
X314326Y438510D01*
X314370Y437661D01*
X314414Y436198D01*
X314414Y428000D01*
G37*
G36*
X263803Y428000D02*
X254081Y428000D01*
X254081Y440341D01*
X263444Y440341D01*
X263444Y438974D01*
X255754Y438974D01*
X255754Y435016D01*
X262918Y435016D01*
X262918Y433667D01*
X255754Y433667D01*
X255754Y429366D01*
X263803Y429366D01*
X263803Y428000D01*
G37*
G36*
X310678Y428000D02*
X300956Y428000D01*
X300956Y440341D01*
X310319Y440341D01*
X310319Y438974D01*
X302629Y438974D01*
X302629Y435016D01*
X309793Y435016D01*
X309793Y433667D01*
X302629Y433667D01*
X302629Y429366D01*
X310678Y429366D01*
X310678Y428000D01*
G37*
G36*
X293559Y427825D02*
X293010Y427837D01*
X292491Y427874D01*
X292001Y427935D01*
X291541Y428021D01*
X291110Y428131D01*
X290709Y428266D01*
X290338Y428425D01*
X289996Y428609D01*
X289684Y428817D01*
X289402Y429050D01*
X289149Y429307D01*
X288926Y429589D01*
X288733Y429895D01*
X288569Y430225D01*
X288435Y430581D01*
X288330Y430960D01*
X289951Y431284D01*
X290030Y431016D01*
X290130Y430765D01*
X290249Y430533D01*
X290388Y430320D01*
X290547Y430125D01*
X290726Y429949D01*
X290924Y429791D01*
X291142Y429651D01*
X291380Y429529D01*
X291638Y429423D01*
X291917Y429333D01*
X292217Y429260D01*
X292537Y429203D01*
X292877Y429162D01*
X293239Y429138D01*
X293620Y429130D01*
X294014Y429139D01*
X294384Y429165D01*
X294732Y429208D01*
X295056Y429269D01*
X295357Y429347D01*
X295635Y429443D01*
X295889Y429556D01*
X296121Y429686D01*
X296327Y429833D01*
X296506Y429997D01*
X296657Y430176D01*
X296781Y430372D01*
X296877Y430585D01*
X296946Y430813D01*
X296987Y431058D01*
X297001Y431319D01*
X296984Y431607D01*
X296932Y431867D01*
X296846Y432098D01*
X296725Y432300D01*
X296573Y432481D01*
X296394Y432644D01*
X296186Y432791D01*
X295950Y432922D01*
X295688Y433040D01*
X295403Y433148D01*
X295093Y433246D01*
X294759Y433334D01*
X293226Y433693D01*
X292539Y433855D01*
X291940Y434017D01*
X291429Y434179D01*
X291006Y434341D01*
X290647Y434508D01*
X290328Y434684D01*
X290049Y434869D01*
X289810Y435064D01*
X289604Y435272D01*
X289424Y435496D01*
X289269Y435738D01*
X289140Y435997D01*
X289039Y436274D01*
X288966Y436570D01*
X288923Y436887D01*
X288908Y437223D01*
X288927Y437608D01*
X288984Y437970D01*
X289079Y438309D01*
X289211Y438626D01*
X289382Y438920D01*
X289591Y439192D01*
X289837Y439440D01*
X290121Y439666D01*
X290441Y439868D01*
X290793Y440042D01*
X291178Y440189D01*
X291596Y440310D01*
X292046Y440404D01*
X292530Y440471D01*
X293045Y440511D01*
X293594Y440525D01*
X294104Y440515D01*
X294583Y440484D01*
X295031Y440434D01*
X295449Y440364D01*
X295835Y440273D01*
X296190Y440163D01*
X296515Y440032D01*
X296808Y439881D01*
X297076Y439706D01*
X297323Y439502D01*
X297549Y439271D01*
X297754Y439011D01*
X297939Y438722D01*
X298103Y438405D01*
X298245Y438060D01*
X298367Y437687D01*
X296721Y437398D01*
X296645Y437635D01*
X296554Y437855D01*
X296448Y438058D01*
X296327Y438244D01*
X296190Y438414D01*
X296038Y438566D01*
X295870Y438702D01*
X295687Y438821D01*
X295488Y438925D01*
X295270Y439015D01*
X295033Y439091D01*
X294779Y439153D01*
X294506Y439201D01*
X294214Y439236D01*
X293905Y439257D01*
X293577Y439263D01*
X293217Y439256D01*
X292880Y439233D01*
X292565Y439195D01*
X292272Y439141D01*
X292000Y439072D01*
X291750Y438988D01*
X291523Y438888D01*
X291317Y438773D01*
X291134Y438643D01*
X290976Y438498D01*
X290842Y438337D01*
X290732Y438162D01*
X290647Y437972D01*
X290586Y437766D01*
X290550Y437546D01*
X290537Y437310D01*
X290556Y437038D01*
X290613Y436790D01*
X290707Y436567D01*
X290839Y436369D01*
X291007Y436190D01*
X291208Y436025D01*
X291443Y435874D01*
X291711Y435738D01*
X292066Y435602D01*
X292563Y435450D01*
X293200Y435284D01*
X293979Y435103D01*
X295114Y434836D01*
X295667Y434687D01*
X296195Y434512D01*
X296696Y434307D01*
X297163Y434070D01*
X297381Y433936D01*
X297585Y433787D01*
X297773Y433625D01*
X297947Y433448D01*
X298104Y433256D01*
X298244Y433047D01*
X298365Y432822D01*
X298468Y432581D01*
X298551Y432320D01*
X298609Y432038D01*
X298645Y431733D01*
X298656Y431407D01*
X298636Y430992D01*
X298573Y430601D01*
X298469Y430235D01*
X298323Y429892D01*
X298135Y429573D01*
X297905Y429279D01*
X297634Y429008D01*
X297321Y428762D01*
X296970Y428542D01*
X296585Y428352D01*
X296166Y428191D01*
X295713Y428059D01*
X295225Y427957D01*
X294704Y427883D01*
X294149Y427840D01*
X293559Y427825D01*
G37*
G36*
X330465Y427825D02*
X329916Y427837D01*
X329397Y427874D01*
X328907Y427935D01*
X328447Y428021D01*
X328016Y428131D01*
X327616Y428266D01*
X327244Y428425D01*
X326903Y428609D01*
X326591Y428817D01*
X326308Y429050D01*
X326056Y429307D01*
X325833Y429589D01*
X325639Y429895D01*
X325475Y430225D01*
X325341Y430581D01*
X325236Y430960D01*
X326857Y431284D01*
X326937Y431016D01*
X327036Y430765D01*
X327156Y430533D01*
X327295Y430320D01*
X327453Y430125D01*
X327632Y429949D01*
X327830Y429791D01*
X328048Y429651D01*
X328286Y429529D01*
X328544Y429423D01*
X328823Y429333D01*
X329123Y429260D01*
X329443Y429203D01*
X329784Y429162D01*
X330145Y429138D01*
X330527Y429130D01*
X330920Y429139D01*
X331290Y429165D01*
X331638Y429208D01*
X331962Y429269D01*
X332263Y429347D01*
X332541Y429443D01*
X332796Y429556D01*
X333027Y429686D01*
X333233Y429833D01*
X333412Y429997D01*
X333564Y430176D01*
X333687Y430372D01*
X333784Y430585D01*
X333852Y430813D01*
X333894Y431058D01*
X333907Y431319D01*
X333890Y431607D01*
X333838Y431867D01*
X333752Y432098D01*
X333631Y432300D01*
X333480Y432481D01*
X333300Y432644D01*
X333092Y432791D01*
X332856Y432922D01*
X332595Y433040D01*
X332309Y433148D01*
X331999Y433246D01*
X331665Y433334D01*
X330132Y433693D01*
X329445Y433855D01*
X328846Y434017D01*
X328335Y434179D01*
X327912Y434341D01*
X327553Y434508D01*
X327234Y434684D01*
X326956Y434869D01*
X326717Y435064D01*
X326511Y435272D01*
X326330Y435496D01*
X326175Y435738D01*
X326047Y435997D01*
X325945Y436274D01*
X325873Y436570D01*
X325829Y436887D01*
X325814Y437223D01*
X325833Y437608D01*
X325890Y437970D01*
X325985Y438309D01*
X326118Y438626D01*
X326288Y438920D01*
X326497Y439192D01*
X326743Y439440D01*
X327028Y439666D01*
X327347Y439868D01*
X327699Y440042D01*
X328085Y440189D01*
X328502Y440310D01*
X328953Y440404D01*
X329436Y440471D01*
X329952Y440511D01*
X330500Y440525D01*
X331010Y440515D01*
X331489Y440484D01*
X331938Y440434D01*
X332355Y440364D01*
X332741Y440273D01*
X333097Y440163D01*
X333421Y440032D01*
X333715Y439881D01*
X333982Y439706D01*
X334229Y439502D01*
X334455Y439271D01*
X334661Y439011D01*
X334845Y438722D01*
X335009Y438405D01*
X335152Y438060D01*
X335274Y437687D01*
X333627Y437398D01*
X333552Y437635D01*
X333461Y437855D01*
X333354Y438058D01*
X333233Y438244D01*
X333096Y438414D01*
X332944Y438566D01*
X332776Y438702D01*
X332594Y438821D01*
X332394Y438925D01*
X332176Y439015D01*
X331940Y439091D01*
X331685Y439153D01*
X331412Y439201D01*
X331121Y439236D01*
X330811Y439257D01*
X330483Y439263D01*
X330124Y439256D01*
X329786Y439233D01*
X329471Y439195D01*
X329178Y439141D01*
X328906Y439072D01*
X328657Y438988D01*
X328429Y438888D01*
X328223Y438773D01*
X328040Y438643D01*
X327882Y438498D01*
X327748Y438337D01*
X327638Y438162D01*
X327553Y437972D01*
X327492Y437766D01*
X327456Y437546D01*
X327444Y437310D01*
X327462Y437038D01*
X327519Y436790D01*
X327614Y436567D01*
X327746Y436369D01*
X327914Y436190D01*
X328115Y436025D01*
X328349Y435874D01*
X328617Y435738D01*
X328972Y435602D01*
X329469Y435450D01*
X330107Y435284D01*
X330886Y435103D01*
X332020Y434836D01*
X332573Y434687D01*
X333102Y434512D01*
X333602Y434307D01*
X334069Y434070D01*
X334288Y433936D01*
X334491Y433787D01*
X334679Y433625D01*
X334853Y433448D01*
X335011Y433256D01*
X335150Y433047D01*
X335271Y432822D01*
X335374Y432581D01*
X335457Y432320D01*
X335516Y432038D01*
X335551Y431733D01*
X335563Y431407D01*
X335542Y430992D01*
X335479Y430601D01*
X335375Y430235D01*
X335229Y429892D01*
X335041Y429573D01*
X334811Y429279D01*
X334540Y429008D01*
X334227Y428762D01*
X333876Y428542D01*
X333491Y428352D01*
X333072Y428191D01*
X332619Y428059D01*
X332132Y427957D01*
X331610Y427883D01*
X331055Y427840D01*
X330465Y427825D01*
G37*
G36*
X247947Y428000D02*
X246283Y428000D01*
X246283Y438974D01*
X242044Y438974D01*
X242044Y440341D01*
X252186Y440341D01*
X252186Y438974D01*
X247947Y438974D01*
X247947Y428000D01*
G37*
G36*
X287724Y424435D02*
X277275Y424435D01*
X277275Y425574D01*
X287724Y425574D01*
X287724Y424435D01*
G37*
G36*
X152556Y348160D02*
X150883Y348160D01*
X150883Y360501D01*
X152556Y360501D01*
X152556Y354317D01*
X158503Y360501D01*
X160473Y360501D01*
X155218Y355141D01*
X161174Y348160D01*
X159098Y348160D01*
X154167Y354116D01*
X152556Y352890D01*
X152556Y348160D01*
G37*
G36*
X148543Y348160D02*
X140809Y348160D01*
X140809Y349500D01*
X143953Y349500D01*
X143953Y358994D01*
X141168Y357006D01*
X141168Y358495D01*
X144085Y360501D01*
X145538Y360501D01*
X145538Y349500D01*
X148543Y349500D01*
X148543Y348160D01*
G37*
G36*
X112633Y455240D02*
X110960Y455240D01*
X110960Y467581D01*
X112633Y467581D01*
X112633Y461397D01*
X118580Y467581D01*
X120551Y467581D01*
X115296Y462221D01*
X121251Y455240D01*
X119176Y455240D01*
X114245Y461196D01*
X112633Y459970D01*
X112633Y455240D01*
G37*
G36*
X104521Y455065D02*
X104064Y455078D01*
X103631Y455118D01*
X103222Y455184D01*
X102836Y455276D01*
X102474Y455395D01*
X102136Y455540D01*
X101821Y455712D01*
X101530Y455910D01*
X101265Y456134D01*
X101028Y456383D01*
X100820Y456658D01*
X100640Y456958D01*
X100488Y457283D01*
X100365Y457634D01*
X100270Y458009D01*
X100203Y458411D01*
X101832Y458559D01*
X101880Y458294D01*
X101943Y458046D01*
X102023Y457815D01*
X102119Y457602D01*
X102230Y457405D01*
X102358Y457225D01*
X102502Y457063D01*
X102662Y456917D01*
X102838Y456789D01*
X103030Y456678D01*
X103239Y456584D01*
X103463Y456507D01*
X103703Y456447D01*
X103960Y456404D01*
X104232Y456378D01*
X104521Y456370D01*
X104811Y456379D01*
X105085Y456407D01*
X105342Y456452D01*
X105584Y456517D01*
X105810Y456599D01*
X106020Y456700D01*
X106213Y456819D01*
X106391Y456957D01*
X106550Y457112D01*
X106688Y457286D01*
X106805Y457477D01*
X106900Y457686D01*
X106974Y457913D01*
X107027Y458157D01*
X107059Y458419D01*
X107070Y458700D01*
X107058Y458945D01*
X107021Y459176D01*
X106961Y459393D01*
X106876Y459596D01*
X106767Y459786D01*
X106634Y459962D01*
X106476Y460124D01*
X106295Y460272D01*
X106090Y460404D01*
X105864Y460519D01*
X105617Y460616D01*
X105348Y460695D01*
X105057Y460757D01*
X104745Y460801D01*
X104412Y460828D01*
X104057Y460837D01*
X103164Y460837D01*
X103164Y462203D01*
X104022Y462203D01*
X104337Y462212D01*
X104634Y462238D01*
X104912Y462282D01*
X105173Y462344D01*
X105415Y462424D01*
X105639Y462521D01*
X105844Y462636D01*
X106032Y462768D01*
X106199Y462916D01*
X106344Y463078D01*
X106467Y463253D01*
X106567Y463441D01*
X106645Y463643D01*
X106701Y463859D01*
X106735Y464089D01*
X106746Y464331D01*
X106737Y464572D01*
X106709Y464800D01*
X106664Y465015D01*
X106600Y465217D01*
X106518Y465406D01*
X106418Y465582D01*
X106300Y465745D01*
X106163Y465895D01*
X106009Y466029D01*
X105837Y466146D01*
X105647Y466244D01*
X105440Y466325D01*
X105215Y466388D01*
X104972Y466433D01*
X104712Y466459D01*
X104434Y466468D01*
X104179Y466460D01*
X103937Y466435D01*
X103708Y466393D01*
X103491Y466335D01*
X103286Y466260D01*
X103094Y466168D01*
X102915Y466059D01*
X102748Y465934D01*
X102595Y465794D01*
X102459Y465640D01*
X102340Y465472D01*
X102238Y465290D01*
X102153Y465095D01*
X102085Y464886D01*
X102033Y464664D01*
X101999Y464428D01*
X100413Y464550D01*
X100471Y464919D01*
X100558Y465266D01*
X100672Y465593D01*
X100815Y465899D01*
X100986Y466184D01*
X101186Y466449D01*
X101414Y466692D01*
X101670Y466915D01*
X101950Y467114D01*
X102250Y467287D01*
X102568Y467433D01*
X102906Y467552D01*
X103264Y467645D01*
X103640Y467712D01*
X104036Y467751D01*
X104451Y467765D01*
X104902Y467751D01*
X105328Y467711D01*
X105727Y467643D01*
X106101Y467549D01*
X106449Y467428D01*
X106771Y467279D01*
X107067Y467104D01*
X107337Y466902D01*
X107578Y466676D01*
X107787Y466428D01*
X107964Y466160D01*
X108109Y465870D01*
X108221Y465558D01*
X108302Y465226D01*
X108350Y464873D01*
X108366Y464498D01*
X108356Y464209D01*
X108325Y463934D01*
X108273Y463673D01*
X108201Y463426D01*
X108108Y463193D01*
X107994Y462973D01*
X107860Y462767D01*
X107705Y462575D01*
X107530Y462398D01*
X107337Y462235D01*
X107125Y462087D01*
X106894Y461955D01*
X106644Y461837D01*
X106375Y461734D01*
X106088Y461646D01*
X105782Y461572D01*
X105782Y461537D01*
X106119Y461490D01*
X106436Y461424D01*
X106734Y461337D01*
X107013Y461231D01*
X107273Y461105D01*
X107513Y460959D01*
X107735Y460794D01*
X107937Y460609D01*
X108118Y460408D01*
X108274Y460194D01*
X108407Y459968D01*
X108515Y459729D01*
X108599Y459477D01*
X108660Y459213D01*
X108696Y458936D01*
X108708Y458647D01*
X108691Y458232D01*
X108640Y457841D01*
X108555Y457475D01*
X108436Y457132D01*
X108283Y456813D01*
X108097Y456519D01*
X107876Y456248D01*
X107622Y456002D01*
X107336Y455782D01*
X107021Y455592D01*
X106677Y455431D01*
X106303Y455299D01*
X105901Y455197D01*
X105470Y455123D01*
X105010Y455080D01*
X104521Y455065D01*
G37*
G36*
X126459Y455065D02*
X126002Y455078D01*
X125569Y455118D01*
X125159Y455184D01*
X124774Y455276D01*
X124412Y455395D01*
X124073Y455540D01*
X123759Y455712D01*
X123468Y455910D01*
X123203Y456134D01*
X122966Y456383D01*
X122758Y456658D01*
X122577Y456958D01*
X122426Y457283D01*
X122302Y457634D01*
X122207Y458009D01*
X122141Y458411D01*
X123770Y458559D01*
X123817Y458294D01*
X123881Y458046D01*
X123960Y457815D01*
X124056Y457602D01*
X124168Y457405D01*
X124296Y457225D01*
X124440Y457063D01*
X124600Y456917D01*
X124776Y456789D01*
X124968Y456678D01*
X125176Y456584D01*
X125400Y456507D01*
X125641Y456447D01*
X125897Y456404D01*
X126170Y456378D01*
X126459Y456370D01*
X126748Y456379D01*
X127022Y456407D01*
X127280Y456452D01*
X127522Y456517D01*
X127747Y456599D01*
X127957Y456700D01*
X128151Y456819D01*
X128329Y456957D01*
X128488Y457112D01*
X128626Y457286D01*
X128742Y457477D01*
X128838Y457686D01*
X128912Y457913D01*
X128965Y458157D01*
X128997Y458419D01*
X129007Y458700D01*
X128995Y458945D01*
X128959Y459176D01*
X128898Y459393D01*
X128814Y459596D01*
X128705Y459786D01*
X128571Y459962D01*
X128414Y460124D01*
X128232Y460272D01*
X128028Y460404D01*
X127802Y460519D01*
X127554Y460616D01*
X127285Y460695D01*
X126995Y460757D01*
X126683Y460801D01*
X126349Y460828D01*
X125994Y460837D01*
X125101Y460837D01*
X125101Y462203D01*
X125959Y462203D01*
X126274Y462212D01*
X126571Y462238D01*
X126850Y462282D01*
X127110Y462344D01*
X127352Y462424D01*
X127576Y462521D01*
X127782Y462636D01*
X127969Y462768D01*
X128137Y462916D01*
X128282Y463078D01*
X128404Y463253D01*
X128505Y463441D01*
X128583Y463643D01*
X128639Y463859D01*
X128672Y464089D01*
X128683Y464331D01*
X128674Y464572D01*
X128647Y464800D01*
X128601Y465015D01*
X128538Y465217D01*
X128456Y465406D01*
X128356Y465582D01*
X128237Y465745D01*
X128101Y465895D01*
X127946Y466029D01*
X127774Y466146D01*
X127585Y466244D01*
X127377Y466325D01*
X127152Y466388D01*
X126909Y466433D01*
X126649Y466459D01*
X126371Y466468D01*
X126117Y466460D01*
X125875Y466435D01*
X125645Y466393D01*
X125428Y466335D01*
X125224Y466260D01*
X125032Y466168D01*
X124852Y466059D01*
X124685Y465934D01*
X124533Y465794D01*
X124397Y465640D01*
X124278Y465472D01*
X124176Y465290D01*
X124091Y465095D01*
X124022Y464886D01*
X123971Y464664D01*
X123936Y464428D01*
X122351Y464550D01*
X122409Y464919D01*
X122495Y465266D01*
X122610Y465593D01*
X122753Y465899D01*
X122924Y466184D01*
X123124Y466449D01*
X123351Y466692D01*
X123608Y466915D01*
X123888Y467114D01*
X124187Y467287D01*
X124506Y467433D01*
X124844Y467552D01*
X125201Y467645D01*
X125578Y467712D01*
X125973Y467751D01*
X126389Y467765D01*
X126840Y467751D01*
X127265Y467711D01*
X127665Y467643D01*
X128038Y467549D01*
X128386Y467428D01*
X128708Y467279D01*
X129004Y467104D01*
X129275Y466902D01*
X129516Y466676D01*
X129725Y466428D01*
X129902Y466160D01*
X130046Y465870D01*
X130159Y465558D01*
X130239Y465226D01*
X130288Y464873D01*
X130304Y464498D01*
X130293Y464209D01*
X130262Y463934D01*
X130211Y463673D01*
X130138Y463426D01*
X130045Y463193D01*
X129932Y462973D01*
X129797Y462767D01*
X129642Y462575D01*
X129468Y462398D01*
X129274Y462235D01*
X129062Y462087D01*
X128831Y461955D01*
X128581Y461837D01*
X128313Y461734D01*
X128026Y461646D01*
X127720Y461572D01*
X127720Y461537D01*
X128056Y461490D01*
X128373Y461424D01*
X128672Y461337D01*
X128950Y461231D01*
X129210Y461105D01*
X129451Y460959D01*
X129672Y460794D01*
X129874Y460609D01*
X130055Y460408D01*
X130212Y460194D01*
X130344Y459968D01*
X130453Y459729D01*
X130537Y459477D01*
X130597Y459213D01*
X130633Y458936D01*
X130645Y458647D01*
X130628Y458232D01*
X130577Y457841D01*
X130492Y457475D01*
X130374Y457132D01*
X130221Y456813D01*
X130034Y456519D01*
X129814Y456248D01*
X129559Y456002D01*
X129273Y455782D01*
X128958Y455592D01*
X128614Y455431D01*
X128241Y455299D01*
X127839Y455197D01*
X127408Y455123D01*
X126948Y455080D01*
X126459Y455065D01*
G37*
G36*
X129422Y108885D02*
X124806Y108885D01*
X124806Y121226D01*
X128888Y121226D01*
X129274Y121220D01*
X129649Y121201D01*
X130013Y121171D01*
X130366Y121128D01*
X130708Y121072D01*
X131038Y121005D01*
X131357Y120925D01*
X131665Y120833D01*
X131962Y120728D01*
X132248Y120612D01*
X132522Y120483D01*
X132786Y120341D01*
X133038Y120188D01*
X133279Y120022D01*
X133508Y119844D01*
X133727Y119654D01*
X133933Y119452D01*
X134126Y119240D01*
X134306Y119017D01*
X134472Y118785D01*
X134625Y118541D01*
X134765Y118288D01*
X134892Y118024D01*
X135005Y117750D01*
X135104Y117465D01*
X135191Y117170D01*
X135264Y116865D01*
X135324Y116549D01*
X135371Y116223D01*
X135404Y115886D01*
X135424Y115540D01*
X135431Y115182D01*
X135419Y114713D01*
X135384Y114258D01*
X135326Y113817D01*
X135244Y113392D01*
X135140Y112982D01*
X135012Y112587D01*
X134861Y112206D01*
X134686Y111841D01*
X134490Y111493D01*
X134275Y111167D01*
X134040Y110861D01*
X133786Y110576D01*
X133513Y110313D01*
X133220Y110070D01*
X132907Y109848D01*
X132575Y109647D01*
X132227Y109468D01*
X131866Y109314D01*
X131491Y109183D01*
X131104Y109075D01*
X130703Y108992D01*
X130289Y108933D01*
X129862Y108897D01*
X129422Y108885D01*
G37*
%LPC*%
G36*
X129230Y110225D02*
X129564Y110234D01*
X129888Y110262D01*
X130201Y110309D01*
X130505Y110374D01*
X130798Y110458D01*
X131081Y110560D01*
X131354Y110681D01*
X131616Y110821D01*
X131866Y110978D01*
X132101Y111151D01*
X132321Y111341D01*
X132526Y111548D01*
X132716Y111770D01*
X132891Y112010D01*
X133052Y112265D01*
X133197Y112537D01*
X133326Y112824D01*
X133439Y113123D01*
X133533Y113435D01*
X133611Y113759D01*
X133671Y114096D01*
X133714Y114446D01*
X133740Y114808D01*
X133749Y115182D01*
X133729Y115739D01*
X133670Y116262D01*
X133572Y116750D01*
X133435Y117205D01*
X133258Y117625D01*
X133042Y118011D01*
X132787Y118363D01*
X132492Y118681D01*
X132160Y118964D01*
X131793Y119208D01*
X131391Y119415D01*
X130954Y119585D01*
X130481Y119716D01*
X129974Y119810D01*
X129431Y119867D01*
X128853Y119886D01*
X126479Y119886D01*
X126479Y110225D01*
X129230Y110225D01*
G37*
%LPD*%
G36*
X139448Y108885D02*
X137775Y108885D01*
X137775Y121226D01*
X139448Y121226D01*
X139448Y116006D01*
X146122Y116006D01*
X146122Y121226D01*
X147795Y121226D01*
X147795Y108885D01*
X146122Y108885D01*
X146122Y114604D01*
X139448Y114604D01*
X139448Y108885D01*
G37*
G36*
X155579Y108885D02*
X153915Y108885D01*
X153915Y119859D01*
X149675Y119859D01*
X149675Y121226D01*
X159818Y121226D01*
X159818Y119859D01*
X155579Y119859D01*
X155579Y108885D01*
G37*
G36*
X169341Y108885D02*
X161608Y108885D01*
X161608Y110225D01*
X164752Y110225D01*
X164752Y119719D01*
X161967Y117731D01*
X161967Y119220D01*
X164883Y121226D01*
X166337Y121226D01*
X166337Y110225D01*
X169341Y110225D01*
X169341Y108885D01*
G37*
G36*
X177966Y108885D02*
X170233Y108885D01*
X170233Y110225D01*
X173377Y110225D01*
X173377Y119719D01*
X170592Y117731D01*
X170592Y119220D01*
X173508Y121226D01*
X174962Y121226D01*
X174962Y110225D01*
X177966Y110225D01*
X177966Y108885D01*
G37*
G36*
X402622Y368100D02*
X400950Y368100D01*
X400950Y380441D01*
X406143Y380441D01*
X406648Y380426D01*
X407123Y380380D01*
X407568Y380304D01*
X407985Y380198D01*
X408372Y380061D01*
X408730Y379894D01*
X409058Y379696D01*
X409358Y379469D01*
X409625Y379213D01*
X409856Y378933D01*
X410052Y378627D01*
X410212Y378297D01*
X410336Y377942D01*
X410425Y377562D01*
X410479Y377157D01*
X410496Y376727D01*
X410479Y376300D01*
X410425Y375896D01*
X410336Y375514D01*
X410211Y375155D01*
X410050Y374818D01*
X409853Y374504D01*
X409621Y374212D01*
X409353Y373942D01*
X409055Y373700D01*
X408731Y373490D01*
X408381Y373312D01*
X408006Y373167D01*
X407605Y373054D01*
X407178Y372973D01*
X406726Y372925D01*
X406248Y372908D01*
X402622Y372908D01*
X402622Y368100D01*
G37*
%LPC*%
G36*
X406012Y374231D02*
X406351Y374241D01*
X406669Y374270D01*
X406964Y374318D01*
X407238Y374386D01*
X407490Y374473D01*
X407720Y374580D01*
X407928Y374705D01*
X408114Y374851D01*
X408278Y375015D01*
X408421Y375199D01*
X408541Y375403D01*
X408640Y375625D01*
X408716Y375867D01*
X408771Y376129D01*
X408804Y376409D01*
X408815Y376710D01*
X408804Y376999D01*
X408770Y377270D01*
X408714Y377522D01*
X408635Y377756D01*
X408534Y377971D01*
X408411Y378167D01*
X408265Y378344D01*
X408097Y378503D01*
X407906Y378643D01*
X407693Y378764D01*
X407457Y378867D01*
X407199Y378951D01*
X406918Y379017D01*
X406615Y379063D01*
X406290Y379091D01*
X405942Y379101D01*
X402622Y379101D01*
X402622Y374231D01*
X406012Y374231D01*
G37*
%LPD*%
G36*
X442497Y368100D02*
X440825Y368100D01*
X440825Y380441D01*
X446018Y380441D01*
X446523Y380426D01*
X446998Y380380D01*
X447443Y380304D01*
X447860Y380198D01*
X448247Y380061D01*
X448605Y379894D01*
X448933Y379696D01*
X449233Y379469D01*
X449500Y379213D01*
X449731Y378933D01*
X449927Y378627D01*
X450087Y378297D01*
X450211Y377942D01*
X450300Y377562D01*
X450354Y377157D01*
X450371Y376727D01*
X450354Y376300D01*
X450300Y375896D01*
X450211Y375514D01*
X450086Y375155D01*
X449925Y374818D01*
X449728Y374504D01*
X449496Y374212D01*
X449228Y373942D01*
X448930Y373700D01*
X448606Y373490D01*
X448256Y373312D01*
X447881Y373167D01*
X447480Y373054D01*
X447053Y372973D01*
X446601Y372925D01*
X446123Y372908D01*
X442497Y372908D01*
X442497Y368100D01*
G37*
%LPC*%
G36*
X445887Y374231D02*
X446226Y374241D01*
X446544Y374270D01*
X446839Y374318D01*
X447113Y374386D01*
X447365Y374473D01*
X447595Y374580D01*
X447803Y374705D01*
X447989Y374851D01*
X448153Y375015D01*
X448296Y375199D01*
X448416Y375403D01*
X448515Y375625D01*
X448591Y375867D01*
X448646Y376129D01*
X448679Y376409D01*
X448690Y376710D01*
X448679Y376999D01*
X448645Y377270D01*
X448589Y377522D01*
X448510Y377756D01*
X448409Y377971D01*
X448286Y378167D01*
X448140Y378344D01*
X447972Y378503D01*
X447781Y378643D01*
X447568Y378764D01*
X447332Y378867D01*
X447074Y378951D01*
X446793Y379017D01*
X446490Y379063D01*
X446165Y379091D01*
X445817Y379101D01*
X442497Y379101D01*
X442497Y374231D01*
X445887Y374231D01*
G37*
%LPD*%
G36*
X427376Y368100D02*
X425887Y368100D01*
X425887Y380441D01*
X428085Y380441D01*
X431370Y371884D01*
X431542Y371348D01*
X431707Y370776D01*
X431922Y369922D01*
X432030Y370363D01*
X432215Y370986D01*
X432402Y371567D01*
X432517Y371884D01*
X435740Y380441D01*
X437886Y380441D01*
X437886Y368100D01*
X436380Y368100D01*
X436380Y376333D01*
X436400Y377673D01*
X436459Y378961D01*
X436051Y377564D01*
X435864Y376993D01*
X435688Y376508D01*
X432500Y368100D01*
X431326Y368100D01*
X428094Y376508D01*
X427604Y377997D01*
X427315Y378961D01*
X427341Y377988D01*
X427376Y376333D01*
X427376Y368100D01*
G37*
G36*
X417849Y367925D02*
X417477Y367933D01*
X417116Y367959D01*
X416767Y368002D01*
X416430Y368063D01*
X416106Y368140D01*
X415793Y368235D01*
X415493Y368347D01*
X415204Y368477D01*
X414930Y368622D01*
X414671Y368784D01*
X414428Y368961D01*
X414201Y369153D01*
X413990Y369361D01*
X413795Y369585D01*
X413616Y369824D01*
X413453Y370079D01*
X413307Y370348D01*
X413181Y370630D01*
X413074Y370924D01*
X412986Y371231D01*
X412918Y371551D01*
X412870Y371883D01*
X412840Y372227D01*
X412831Y372584D01*
X412831Y380441D01*
X414504Y380441D01*
X414504Y372725D01*
X414517Y372315D01*
X414557Y371930D01*
X414624Y371571D01*
X414718Y371238D01*
X414839Y370930D01*
X414986Y370647D01*
X415161Y370390D01*
X415362Y370158D01*
X415588Y369953D01*
X415839Y369775D01*
X416113Y369625D01*
X416411Y369501D01*
X416733Y369406D01*
X417078Y369337D01*
X417447Y369296D01*
X417841Y369282D01*
X418245Y369297D01*
X418626Y369339D01*
X418985Y369410D01*
X419320Y369509D01*
X419632Y369637D01*
X419920Y369792D01*
X420186Y369976D01*
X420429Y370189D01*
X420645Y370429D01*
X420833Y370694D01*
X420992Y370986D01*
X421122Y371305D01*
X421223Y371649D01*
X421295Y372019D01*
X421338Y372416D01*
X421353Y372838D01*
X421353Y380441D01*
X423017Y380441D01*
X423017Y372742D01*
X423007Y372374D01*
X422977Y372019D01*
X422928Y371677D01*
X422858Y371347D01*
X422769Y371031D01*
X422660Y370727D01*
X422531Y370436D01*
X422382Y370158D01*
X422215Y369895D01*
X422032Y369647D01*
X421832Y369416D01*
X421616Y369200D01*
X421383Y369001D01*
X421134Y368817D01*
X420868Y368650D01*
X420586Y368499D01*
X420290Y368364D01*
X419980Y368248D01*
X419658Y368149D01*
X419322Y368068D01*
X418973Y368006D01*
X418612Y367961D01*
X418237Y367934D01*
X417849Y367925D01*
G37*
G36*
X177741Y195225D02*
X177274Y195237D01*
X176823Y195273D01*
X176389Y195333D01*
X175971Y195418D01*
X175569Y195526D01*
X175183Y195658D01*
X174814Y195815D01*
X174461Y195996D01*
X174126Y196199D01*
X173812Y196424D01*
X173518Y196670D01*
X173245Y196938D01*
X172992Y197228D01*
X172759Y197538D01*
X172547Y197871D01*
X172355Y198225D01*
X172184Y198597D01*
X172037Y198984D01*
X171912Y199387D01*
X171809Y199804D01*
X171730Y200237D01*
X171673Y200686D01*
X171639Y201149D01*
X171628Y201627D01*
X171634Y201992D01*
X171653Y202347D01*
X171685Y202692D01*
X171729Y203027D01*
X171786Y203351D01*
X171856Y203666D01*
X171938Y203970D01*
X172033Y204265D01*
X172140Y204549D01*
X172261Y204823D01*
X172394Y205087D01*
X172539Y205341D01*
X172868Y205819D01*
X173248Y206256D01*
X173673Y206647D01*
X173900Y206823D01*
X174138Y206986D01*
X174385Y207136D01*
X174642Y207273D01*
X174909Y207397D01*
X175186Y207508D01*
X175473Y207605D01*
X175770Y207690D01*
X176076Y207762D01*
X176393Y207820D01*
X176719Y207866D01*
X177056Y207899D01*
X177402Y207918D01*
X177759Y207925D01*
X178222Y207913D01*
X178669Y207878D01*
X179101Y207819D01*
X179517Y207738D01*
X179918Y207632D01*
X180302Y207503D01*
X180672Y207351D01*
X181026Y207176D01*
X181361Y206978D01*
X181677Y206759D01*
X181972Y206519D01*
X182246Y206257D01*
X182501Y205975D01*
X182734Y205671D01*
X182948Y205346D01*
X183141Y204999D01*
X183312Y204634D01*
X183461Y204253D01*
X183586Y203856D01*
X183689Y203443D01*
X183769Y203013D01*
X183826Y202567D01*
X183861Y202105D01*
X183872Y201627D01*
X183861Y201151D01*
X183826Y200690D01*
X183768Y200243D01*
X183687Y199812D01*
X183583Y199396D01*
X183456Y198995D01*
X183306Y198609D01*
X183132Y198238D01*
X182937Y197885D01*
X182722Y197553D01*
X182486Y197242D01*
X182231Y196952D01*
X181955Y196684D01*
X181660Y196436D01*
X181344Y196210D01*
X181008Y196004D01*
X180654Y195822D01*
X180285Y195663D01*
X179900Y195529D01*
X179499Y195420D01*
X179083Y195334D01*
X178652Y195274D01*
X178204Y195237D01*
X177741Y195225D01*
G37*
%LPC*%
G36*
X177741Y196582D02*
X178260Y196603D01*
X178748Y196665D01*
X179204Y196768D01*
X179630Y196912D01*
X180024Y197097D01*
X180388Y197324D01*
X180720Y197592D01*
X181021Y197901D01*
X181289Y198247D01*
X181521Y198628D01*
X181718Y199043D01*
X181878Y199491D01*
X182004Y199974D01*
X182093Y200491D01*
X182146Y201042D01*
X182164Y201627D01*
X182146Y202188D01*
X182092Y202717D01*
X182002Y203216D01*
X181876Y203683D01*
X181714Y204120D01*
X181516Y204526D01*
X181282Y204901D01*
X181012Y205245D01*
X180710Y205553D01*
X180377Y205819D01*
X180015Y206045D01*
X179623Y206230D01*
X179202Y206374D01*
X178750Y206476D01*
X178269Y206538D01*
X177759Y206558D01*
X177244Y206538D01*
X176759Y206477D01*
X176304Y206376D01*
X175880Y206234D01*
X175486Y206052D01*
X175121Y205829D01*
X174787Y205566D01*
X174483Y205262D01*
X174212Y204922D01*
X173977Y204549D01*
X173778Y204143D01*
X173616Y203705D01*
X173489Y203235D01*
X173399Y202731D01*
X173345Y202196D01*
X173327Y201627D01*
X173345Y201062D01*
X173400Y200527D01*
X173491Y200021D01*
X173619Y199546D01*
X173784Y199101D01*
X173985Y198685D01*
X174222Y198300D01*
X174496Y197944D01*
X174803Y197625D01*
X175137Y197349D01*
X175501Y197114D01*
X175892Y196923D01*
X176312Y196774D01*
X176760Y196668D01*
X177236Y196604D01*
X177741Y196582D01*
G37*
%LPD*%
G36*
X216766Y195400D02*
X215093Y195400D01*
X215093Y207741D01*
X220900Y207741D01*
X221407Y207726D01*
X221883Y207682D01*
X222330Y207610D01*
X222747Y207508D01*
X223135Y207376D01*
X223492Y207216D01*
X223821Y207027D01*
X224119Y206808D01*
X224385Y206563D01*
X224615Y206296D01*
X224810Y206006D01*
X224970Y205692D01*
X225094Y205356D01*
X225182Y204997D01*
X225236Y204616D01*
X225253Y204211D01*
X225241Y203874D01*
X225203Y203551D01*
X225141Y203241D01*
X225053Y202945D01*
X224940Y202663D01*
X224802Y202395D01*
X224640Y202140D01*
X224452Y201899D01*
X224242Y201675D01*
X224013Y201474D01*
X223765Y201293D01*
X223654Y201227D01*
X223498Y201135D01*
X223212Y200998D01*
X222907Y200882D01*
X222583Y200789D01*
X222240Y200716D01*
X223732Y198453D01*
X225744Y195400D01*
X223817Y195400D01*
X220611Y200524D01*
X216766Y200524D01*
X216766Y195400D01*
G37*
%LPC*%
G36*
X220804Y201846D02*
X221125Y201856D01*
X221428Y201885D01*
X221711Y201933D01*
X221976Y202001D01*
X222223Y202087D01*
X222450Y202194D01*
X222659Y202319D01*
X222849Y202464D01*
X223018Y202626D01*
X223165Y202803D01*
X223289Y202996D01*
X223391Y203205D01*
X223470Y203429D01*
X223526Y203668D01*
X223560Y203923D01*
X223572Y204194D01*
X223560Y204455D01*
X223526Y204700D01*
X223469Y204930D01*
X223389Y205143D01*
X223286Y205340D01*
X223160Y205521D01*
X223012Y205687D01*
X222840Y205836D01*
X222647Y205968D01*
X222434Y206083D01*
X222201Y206180D01*
X221948Y206260D01*
X221675Y206321D01*
X221381Y206365D01*
X221068Y206392D01*
X220734Y206401D01*
X216766Y206401D01*
X216766Y201846D01*
X220804Y201846D01*
G37*
%LPD*%
G36*
X161954Y195400D02*
X160281Y195400D01*
X160281Y207741D01*
X165475Y207741D01*
X165979Y207726D01*
X166454Y207680D01*
X166900Y207604D01*
X167316Y207498D01*
X167703Y207361D01*
X168061Y207194D01*
X168390Y206996D01*
X168689Y206769D01*
X168956Y206513D01*
X169187Y206233D01*
X169383Y205927D01*
X169543Y205597D01*
X169668Y205242D01*
X169756Y204862D01*
X169810Y204457D01*
X169828Y204027D01*
X169810Y203600D01*
X169756Y203196D01*
X169667Y202814D01*
X169542Y202455D01*
X169381Y202118D01*
X169185Y201804D01*
X168953Y201512D01*
X168685Y201242D01*
X168386Y201000D01*
X168062Y200790D01*
X167712Y200612D01*
X167337Y200467D01*
X166936Y200354D01*
X166510Y200273D01*
X166057Y200225D01*
X165580Y200208D01*
X161954Y200208D01*
X161954Y195400D01*
G37*
%LPC*%
G36*
X165343Y201531D02*
X165683Y201541D01*
X166000Y201570D01*
X166296Y201618D01*
X166569Y201686D01*
X166821Y201773D01*
X167051Y201880D01*
X167259Y202005D01*
X167445Y202151D01*
X167610Y202315D01*
X167752Y202499D01*
X167872Y202703D01*
X167971Y202925D01*
X168047Y203167D01*
X168102Y203429D01*
X168135Y203709D01*
X168146Y204010D01*
X168135Y204299D01*
X168101Y204570D01*
X168045Y204822D01*
X167966Y205056D01*
X167865Y205271D01*
X167742Y205467D01*
X167596Y205644D01*
X167428Y205803D01*
X167237Y205943D01*
X167024Y206064D01*
X166788Y206167D01*
X166530Y206251D01*
X166249Y206317D01*
X165946Y206363D01*
X165621Y206391D01*
X165273Y206401D01*
X161954Y206401D01*
X161954Y201531D01*
X165343Y201531D01*
G37*
%LPD*%
G36*
X190426Y195400D02*
X188429Y195400D01*
X184794Y207741D01*
X186537Y207741D01*
X188753Y199902D01*
X189132Y198409D01*
X189480Y196871D01*
X189966Y198973D01*
X190222Y199948D01*
X190712Y201735D01*
X192397Y207741D01*
X194000Y207741D01*
X196146Y200060D01*
X196583Y198321D01*
X196916Y196871D01*
X196995Y197178D01*
X197380Y198820D01*
X198070Y201368D01*
X199842Y207741D01*
X201585Y207741D01*
X197950Y195400D01*
X195953Y195400D01*
X193816Y203239D01*
X193557Y204266D01*
X193203Y205875D01*
X192817Y204176D01*
X192141Y201640D01*
X190426Y195400D01*
G37*
G36*
X212847Y195400D02*
X203125Y195400D01*
X203125Y207741D01*
X212487Y207741D01*
X212487Y206374D01*
X204797Y206374D01*
X204797Y202416D01*
X211962Y202416D01*
X211962Y201067D01*
X204797Y201067D01*
X204797Y196766D01*
X212847Y196766D01*
X212847Y195400D01*
G37*
G36*
X134467Y340305D02*
X133986Y340320D01*
X133532Y340363D01*
X133104Y340437D01*
X132704Y340539D01*
X132330Y340671D01*
X131984Y340832D01*
X131664Y341022D01*
X131371Y341242D01*
X131109Y341489D01*
X130883Y341760D01*
X130691Y342056D01*
X130534Y342376D01*
X130412Y342721D01*
X130324Y343091D01*
X130272Y343486D01*
X130255Y343905D01*
X130265Y344201D01*
X130298Y344485D01*
X130352Y344757D01*
X130427Y345017D01*
X130525Y345265D01*
X130644Y345501D01*
X130784Y345725D01*
X130946Y345937D01*
X131125Y346132D01*
X131316Y346308D01*
X131520Y346463D01*
X131735Y346598D01*
X131962Y346713D01*
X132201Y346807D01*
X132452Y346881D01*
X132716Y346935D01*
X132716Y346970D01*
X132470Y347038D01*
X132239Y347123D01*
X132020Y347225D01*
X131815Y347345D01*
X131623Y347481D01*
X131444Y347635D01*
X131278Y347806D01*
X131126Y347995D01*
X130989Y348196D01*
X130871Y348406D01*
X130771Y348624D01*
X130689Y348851D01*
X130625Y349086D01*
X130580Y349330D01*
X130553Y349582D01*
X130544Y349843D01*
X130560Y350187D01*
X130610Y350515D01*
X130692Y350825D01*
X130807Y351119D01*
X130956Y351397D01*
X131137Y351658D01*
X131352Y351902D01*
X131599Y352129D01*
X131874Y352334D01*
X132172Y352512D01*
X132492Y352663D01*
X132835Y352786D01*
X133200Y352882D01*
X133589Y352950D01*
X133999Y352991D01*
X134432Y353005D01*
X134876Y352991D01*
X135295Y352951D01*
X135691Y352884D01*
X136063Y352790D01*
X136410Y352669D01*
X136734Y352522D01*
X137034Y352348D01*
X137310Y352146D01*
X137557Y351922D01*
X137771Y351679D01*
X137953Y351418D01*
X138101Y351137D01*
X138217Y350837D01*
X138299Y350519D01*
X138348Y350182D01*
X138365Y349825D01*
X138356Y349565D01*
X138328Y349312D01*
X138282Y349069D01*
X138218Y348833D01*
X138136Y348607D01*
X138035Y348388D01*
X137916Y348179D01*
X137778Y347977D01*
X137625Y347789D01*
X137458Y347620D01*
X137440Y347605D01*
X137278Y347469D01*
X137084Y347336D01*
X136877Y347221D01*
X136656Y347125D01*
X136423Y347047D01*
X136175Y346988D01*
X136175Y346953D01*
X136463Y346895D01*
X136734Y346818D01*
X136988Y346721D01*
X137226Y346606D01*
X137448Y346471D01*
X137653Y346316D01*
X137842Y346143D01*
X137981Y345987D01*
X138015Y345950D01*
X138169Y345741D01*
X138302Y345519D01*
X138415Y345285D01*
X138507Y345038D01*
X138579Y344778D01*
X138630Y344505D01*
X138661Y344220D01*
X138671Y343922D01*
X138655Y343507D01*
X138604Y343115D01*
X138519Y342747D01*
X138400Y342403D01*
X138247Y342081D01*
X138061Y341784D01*
X137840Y341510D01*
X137585Y341260D01*
X137299Y341036D01*
X136983Y340842D01*
X136638Y340678D01*
X136263Y340543D01*
X135858Y340439D01*
X135424Y340365D01*
X134961Y340320D01*
X134467Y340305D01*
G37*
%LPC*%
G36*
X134485Y341487D02*
X134797Y341497D01*
X135088Y341526D01*
X135358Y341574D01*
X135608Y341642D01*
X135838Y341728D01*
X136047Y341835D01*
X136235Y341960D01*
X136403Y342105D01*
X136551Y342271D01*
X136679Y342459D01*
X136787Y342671D01*
X136876Y342905D01*
X136945Y343162D01*
X136994Y343442D01*
X137024Y343745D01*
X137034Y344071D01*
X137023Y344349D01*
X136991Y344609D01*
X136938Y344852D01*
X136863Y345077D01*
X136767Y345285D01*
X136649Y345474D01*
X136511Y345646D01*
X136350Y345801D01*
X136171Y345937D01*
X135974Y346056D01*
X135760Y346156D01*
X135529Y346238D01*
X135281Y346301D01*
X135015Y346347D01*
X134732Y346374D01*
X134432Y346383D01*
X134141Y346373D01*
X133865Y346344D01*
X133606Y346295D01*
X133364Y346227D01*
X133138Y346139D01*
X132928Y346031D01*
X132735Y345904D01*
X132558Y345757D01*
X132400Y345593D01*
X132263Y345415D01*
X132147Y345221D01*
X132052Y345014D01*
X131978Y344791D01*
X131926Y344554D01*
X131894Y344302D01*
X131884Y344036D01*
X131894Y343727D01*
X131924Y343439D01*
X131975Y343170D01*
X132046Y342921D01*
X132138Y342692D01*
X132249Y342483D01*
X132382Y342294D01*
X132534Y342124D01*
X132707Y341975D01*
X132900Y341846D01*
X133113Y341736D01*
X133347Y341647D01*
X133601Y341577D01*
X133875Y341527D01*
X134170Y341497D01*
X134485Y341487D01*
G37*
G36*
X134450Y347566D02*
X134720Y347574D01*
X134973Y347598D01*
X135210Y347638D01*
X135430Y347694D01*
X135633Y347766D01*
X135820Y347854D01*
X135991Y347958D01*
X136145Y348078D01*
X136281Y348216D01*
X136399Y348374D01*
X136500Y348552D01*
X136581Y348749D01*
X136645Y348967D01*
X136691Y349204D01*
X136718Y349461D01*
X136727Y349738D01*
X136718Y349991D01*
X136691Y350228D01*
X136646Y350449D01*
X136584Y350654D01*
X136503Y350842D01*
X136404Y351013D01*
X136288Y351169D01*
X136153Y351308D01*
X136001Y351430D01*
X135831Y351537D01*
X135642Y351627D01*
X135436Y351700D01*
X135212Y351757D01*
X134970Y351798D01*
X134710Y351823D01*
X134432Y351831D01*
X134163Y351823D01*
X133909Y351798D01*
X133673Y351757D01*
X133452Y351700D01*
X133249Y351626D01*
X133062Y351535D01*
X132891Y351429D01*
X132738Y351306D01*
X132601Y351166D01*
X132483Y351011D01*
X132383Y350839D01*
X132301Y350651D01*
X132237Y350447D01*
X132192Y350227D01*
X132164Y349990D01*
X132155Y349738D01*
X132164Y349481D01*
X132193Y349239D01*
X132239Y349014D01*
X132305Y348804D01*
X132389Y348610D01*
X132493Y348431D01*
X132614Y348269D01*
X132755Y348122D01*
X132913Y347991D01*
X133086Y347879D01*
X133275Y347783D01*
X133479Y347705D01*
X133698Y347644D01*
X133933Y347600D01*
X134184Y347574D01*
X134450Y347566D01*
G37*
%LPD*%
G36*
X100612Y340305D02*
X100063Y340317D01*
X99544Y340354D01*
X99054Y340415D01*
X98594Y340501D01*
X98163Y340611D01*
X97762Y340746D01*
X97391Y340905D01*
X97050Y341089D01*
X96738Y341297D01*
X96455Y341530D01*
X96203Y341787D01*
X95979Y342069D01*
X95786Y342375D01*
X95622Y342705D01*
X95488Y343061D01*
X95383Y343440D01*
X97004Y343764D01*
X97084Y343496D01*
X97183Y343245D01*
X97303Y343013D01*
X97442Y342800D01*
X97600Y342605D01*
X97779Y342429D01*
X97977Y342271D01*
X98195Y342131D01*
X98433Y342009D01*
X98691Y341903D01*
X98970Y341813D01*
X99270Y341740D01*
X99590Y341683D01*
X99931Y341642D01*
X100292Y341618D01*
X100673Y341610D01*
X101067Y341619D01*
X101437Y341645D01*
X101785Y341688D01*
X102109Y341749D01*
X102410Y341827D01*
X102688Y341923D01*
X102942Y342036D01*
X103174Y342166D01*
X103380Y342313D01*
X103559Y342477D01*
X103710Y342656D01*
X103834Y342852D01*
X103930Y343065D01*
X103999Y343293D01*
X104041Y343538D01*
X104054Y343799D01*
X104037Y344087D01*
X103985Y344347D01*
X103899Y344578D01*
X103778Y344780D01*
X103626Y344961D01*
X103447Y345124D01*
X103239Y345271D01*
X103003Y345402D01*
X102742Y345520D01*
X102456Y345628D01*
X102146Y345726D01*
X101812Y345814D01*
X100279Y346173D01*
X99592Y346335D01*
X98993Y346497D01*
X98482Y346659D01*
X98059Y346821D01*
X97700Y346988D01*
X97381Y347164D01*
X97102Y347349D01*
X96863Y347544D01*
X96657Y347752D01*
X96477Y347976D01*
X96322Y348218D01*
X96193Y348477D01*
X96092Y348754D01*
X96019Y349050D01*
X95976Y349367D01*
X95961Y349703D01*
X95980Y350088D01*
X96037Y350450D01*
X96132Y350789D01*
X96265Y351106D01*
X96435Y351400D01*
X96644Y351672D01*
X96890Y351920D01*
X97174Y352146D01*
X97494Y352348D01*
X97846Y352522D01*
X98231Y352669D01*
X98649Y352790D01*
X99100Y352884D01*
X99583Y352951D01*
X100099Y352991D01*
X100647Y353005D01*
X101157Y352995D01*
X101636Y352964D01*
X102085Y352914D01*
X102502Y352844D01*
X102888Y352753D01*
X103244Y352643D01*
X103568Y352512D01*
X103862Y352361D01*
X104129Y352186D01*
X104376Y351982D01*
X104602Y351751D01*
X104807Y351491D01*
X104992Y351202D01*
X105156Y350885D01*
X105299Y350540D01*
X105421Y350167D01*
X103774Y349878D01*
X103698Y350115D01*
X103608Y350335D01*
X103501Y350538D01*
X103380Y350724D01*
X103243Y350894D01*
X103091Y351046D01*
X102923Y351182D01*
X102740Y351301D01*
X102541Y351405D01*
X102323Y351495D01*
X102086Y351571D01*
X101832Y351633D01*
X101559Y351681D01*
X101267Y351716D01*
X100958Y351737D01*
X100630Y351743D01*
X100271Y351736D01*
X99933Y351713D01*
X99618Y351675D01*
X99325Y351621D01*
X99053Y351552D01*
X98804Y351468D01*
X98576Y351368D01*
X98370Y351253D01*
X98187Y351123D01*
X98029Y350978D01*
X97895Y350817D01*
X97785Y350642D01*
X97700Y350452D01*
X97639Y350246D01*
X97603Y350026D01*
X97590Y349790D01*
X97609Y349518D01*
X97666Y349270D01*
X97760Y349047D01*
X97893Y348849D01*
X98060Y348670D01*
X98262Y348505D01*
X98496Y348354D01*
X98764Y348218D01*
X99119Y348082D01*
X99616Y347930D01*
X100254Y347764D01*
X101033Y347583D01*
X102167Y347316D01*
X102720Y347167D01*
X103248Y346992D01*
X103749Y346787D01*
X104216Y346550D01*
X104434Y346416D01*
X104638Y346267D01*
X104826Y346105D01*
X105000Y345928D01*
X105158Y345736D01*
X105297Y345527D01*
X105418Y345302D01*
X105521Y345061D01*
X105604Y344800D01*
X105663Y344518D01*
X105698Y344213D01*
X105710Y343887D01*
X105689Y343472D01*
X105626Y343081D01*
X105522Y342715D01*
X105376Y342372D01*
X105188Y342053D01*
X104958Y341759D01*
X104687Y341488D01*
X104374Y341242D01*
X104023Y341022D01*
X103638Y340832D01*
X103219Y340671D01*
X102766Y340539D01*
X102278Y340437D01*
X101757Y340363D01*
X101202Y340320D01*
X100612Y340305D01*
G37*
G36*
X113466Y340305D02*
X113007Y340317D01*
X112564Y340353D01*
X112137Y340414D01*
X111726Y340499D01*
X111330Y340608D01*
X110950Y340741D01*
X110586Y340898D01*
X110238Y341080D01*
X109908Y341284D01*
X109598Y341509D01*
X109308Y341755D01*
X109038Y342022D01*
X108789Y342309D01*
X108560Y342617D01*
X108351Y342946D01*
X108162Y343296D01*
X107995Y343664D01*
X107850Y344049D01*
X107727Y344451D01*
X107627Y344869D01*
X107549Y345304D01*
X107493Y345755D01*
X107460Y346223D01*
X107448Y346707D01*
X107455Y347071D01*
X107473Y347425D01*
X107504Y347769D01*
X107548Y348103D01*
X107604Y348427D01*
X107673Y348741D01*
X107754Y349045D01*
X107847Y349339D01*
X107953Y349623D01*
X108071Y349897D01*
X108345Y350415D01*
X108669Y350894D01*
X109042Y351332D01*
X109460Y351724D01*
X109916Y352064D01*
X110158Y352214D01*
X110410Y352351D01*
X110672Y352475D01*
X110943Y352586D01*
X111224Y352685D01*
X111514Y352769D01*
X111814Y352841D01*
X112123Y352900D01*
X112442Y352946D01*
X112771Y352979D01*
X113109Y352998D01*
X113457Y353005D01*
X113939Y352993D01*
X114402Y352957D01*
X114844Y352896D01*
X115265Y352812D01*
X115667Y352704D01*
X116048Y352571D01*
X116409Y352415D01*
X116750Y352234D01*
X117070Y352030D01*
X117367Y351802D01*
X117643Y351551D01*
X117897Y351277D01*
X118129Y350980D01*
X118340Y350659D01*
X118528Y350315D01*
X118694Y349948D01*
X117109Y349422D01*
X116994Y349684D01*
X116862Y349929D01*
X116714Y350159D01*
X116550Y350373D01*
X116369Y350571D01*
X116172Y350753D01*
X115959Y350919D01*
X115730Y351069D01*
X115486Y351203D01*
X115232Y351318D01*
X114967Y351416D01*
X114691Y351496D01*
X114403Y351558D01*
X114105Y351603D01*
X113795Y351629D01*
X113474Y351638D01*
X112976Y351618D01*
X112506Y351556D01*
X112065Y351453D01*
X111652Y351309D01*
X111268Y351123D01*
X110912Y350897D01*
X110585Y350629D01*
X110286Y350320D01*
X110019Y349975D01*
X109788Y349600D01*
X109592Y349194D01*
X109432Y348758D01*
X109308Y348291D01*
X109219Y347794D01*
X109165Y347266D01*
X109148Y346707D01*
X109166Y346154D01*
X109222Y345629D01*
X109314Y345131D01*
X109444Y344661D01*
X109611Y344219D01*
X109815Y343805D01*
X110056Y343418D01*
X110334Y343059D01*
X110644Y342736D01*
X110980Y342456D01*
X111342Y342219D01*
X111730Y342025D01*
X112145Y341874D01*
X112585Y341766D01*
X113052Y341701D01*
X113544Y341680D01*
X113863Y341690D01*
X114172Y341720D01*
X114471Y341770D01*
X114760Y341840D01*
X115039Y341931D01*
X115308Y342041D01*
X115566Y342171D01*
X115815Y342321D01*
X116054Y342492D01*
X116282Y342682D01*
X116501Y342893D01*
X116709Y343123D01*
X116907Y343374D01*
X117096Y343645D01*
X117274Y343935D01*
X117442Y344246D01*
X118808Y343563D01*
X118608Y343176D01*
X118389Y342814D01*
X118150Y342475D01*
X117892Y342159D01*
X117615Y341868D01*
X117318Y341601D01*
X117002Y341357D01*
X116667Y341137D01*
X116315Y340942D01*
X115949Y340773D01*
X115570Y340630D01*
X115177Y340513D01*
X114770Y340422D01*
X114349Y340357D01*
X113914Y340318D01*
X113466Y340305D01*
G37*
G36*
X154256Y340305D02*
X153835Y340317D01*
X153435Y340352D01*
X153056Y340411D01*
X152697Y340493D01*
X152359Y340599D01*
X152042Y340729D01*
X151746Y340882D01*
X151471Y341058D01*
X151218Y341257D01*
X150990Y341477D01*
X150786Y341718D01*
X150606Y341980D01*
X150451Y342263D01*
X150320Y342567D01*
X150213Y342893D01*
X150131Y343239D01*
X151725Y343423D01*
X151793Y343201D01*
X151874Y342994D01*
X151967Y342801D01*
X152072Y342622D01*
X152190Y342458D01*
X152320Y342307D01*
X152462Y342172D01*
X152616Y342050D01*
X152782Y341943D01*
X152961Y341850D01*
X153152Y341771D01*
X153355Y341707D01*
X153571Y341657D01*
X153799Y341621D01*
X154039Y341599D01*
X154291Y341592D01*
X154600Y341604D01*
X154892Y341640D01*
X155166Y341700D01*
X155423Y341784D01*
X155663Y341892D01*
X155886Y342023D01*
X156091Y342179D01*
X156279Y342359D01*
X156448Y342559D01*
X156593Y342778D01*
X156717Y343014D01*
X156818Y343269D01*
X156896Y343541D01*
X156953Y343831D01*
X156986Y344139D01*
X156997Y344465D01*
X156986Y344749D01*
X156952Y345020D01*
X156896Y345276D01*
X156817Y345518D01*
X156715Y345747D01*
X156591Y345961D01*
X156444Y346162D01*
X156275Y346348D01*
X156086Y346517D01*
X155882Y346662D01*
X155662Y346786D01*
X155426Y346887D01*
X155175Y346965D01*
X154908Y347022D01*
X154625Y347055D01*
X154326Y347066D01*
X154012Y347054D01*
X153709Y347016D01*
X153416Y346953D01*
X153135Y346865D01*
X152859Y346747D01*
X152583Y346593D01*
X152307Y346405D01*
X152031Y346182D01*
X150490Y346182D01*
X150901Y352821D01*
X157917Y352821D01*
X157917Y351481D01*
X152338Y351481D01*
X152101Y347566D01*
X152365Y347750D01*
X152645Y347911D01*
X152940Y348046D01*
X153251Y348157D01*
X153577Y348243D01*
X153919Y348305D01*
X154277Y348342D01*
X154650Y348354D01*
X155094Y348337D01*
X155515Y348287D01*
X155912Y348204D01*
X156287Y348087D01*
X156638Y347937D01*
X156966Y347753D01*
X157272Y347536D01*
X157554Y347285D01*
X157807Y347008D01*
X158027Y346711D01*
X158213Y346393D01*
X158365Y346055D01*
X158483Y345697D01*
X158568Y345318D01*
X158618Y344919D01*
X158635Y344500D01*
X158617Y344025D01*
X158563Y343576D01*
X158472Y343152D01*
X158345Y342755D01*
X158182Y342384D01*
X157982Y342038D01*
X157747Y341719D01*
X157475Y341426D01*
X157171Y341163D01*
X156838Y340935D01*
X156478Y340743D01*
X156090Y340585D01*
X155673Y340463D01*
X155229Y340375D01*
X154757Y340322D01*
X154256Y340305D01*
G37*
G36*
X93674Y340480D02*
X85502Y340480D01*
X85502Y341592D01*
X85738Y342090D01*
X85998Y342557D01*
X86283Y342994D01*
X86593Y343401D01*
X86919Y343784D01*
X87253Y344148D01*
X87595Y344493D01*
X87946Y344820D01*
X88652Y345432D01*
X89352Y345998D01*
X90014Y346541D01*
X90608Y347084D01*
X90875Y347359D01*
X91115Y347640D01*
X91328Y347928D01*
X91515Y348223D01*
X91666Y348530D01*
X91774Y348858D01*
X91839Y349205D01*
X91861Y349571D01*
X91852Y349818D01*
X91824Y350051D01*
X91777Y350269D01*
X91712Y350473D01*
X91628Y350663D01*
X91526Y350839D01*
X91405Y351001D01*
X91265Y351148D01*
X91109Y351279D01*
X90938Y351393D01*
X90753Y351489D01*
X90554Y351568D01*
X90339Y351630D01*
X90111Y351673D01*
X89868Y351700D01*
X89610Y351708D01*
X89364Y351700D01*
X89128Y351674D01*
X88904Y351631D01*
X88691Y351572D01*
X88489Y351495D01*
X88299Y351401D01*
X88119Y351289D01*
X87950Y351161D01*
X87795Y351017D01*
X87658Y350860D01*
X87537Y350688D01*
X87432Y350503D01*
X87345Y350304D01*
X87274Y350091D01*
X87221Y349864D01*
X87184Y349624D01*
X85572Y349773D01*
X85630Y350133D01*
X85716Y350475D01*
X85831Y350798D01*
X85974Y351102D01*
X86145Y351387D01*
X86345Y351653D01*
X86573Y351900D01*
X86829Y352129D01*
X87109Y352334D01*
X87408Y352512D01*
X87727Y352663D01*
X88065Y352786D01*
X88422Y352882D01*
X88799Y352950D01*
X89195Y352991D01*
X89610Y353005D01*
X90063Y352991D01*
X90489Y352950D01*
X90888Y352881D01*
X91260Y352785D01*
X91605Y352661D01*
X91923Y352510D01*
X92214Y352331D01*
X92478Y352124D01*
X92713Y351893D01*
X92917Y351638D01*
X93089Y351360D01*
X93230Y351059D01*
X93340Y350735D01*
X93418Y350388D01*
X93465Y350017D01*
X93481Y349624D01*
X93461Y349265D01*
X93399Y348908D01*
X93296Y348552D01*
X93153Y348196D01*
X92969Y347842D01*
X92744Y347487D01*
X92480Y347132D01*
X92176Y346777D01*
X91778Y346374D01*
X91232Y345873D01*
X90539Y345275D01*
X89697Y344579D01*
X89220Y344177D01*
X88793Y343796D01*
X88418Y343435D01*
X88095Y343094D01*
X87818Y342767D01*
X87582Y342445D01*
X87389Y342130D01*
X87236Y341820D01*
X93674Y341820D01*
X93674Y340480D01*
G37*
G36*
X128606Y340480D02*
X120873Y340480D01*
X120873Y341820D01*
X124017Y341820D01*
X124017Y351314D01*
X121232Y349326D01*
X121232Y350815D01*
X124148Y352821D01*
X125602Y352821D01*
X125602Y341820D01*
X128606Y341820D01*
X128606Y340480D01*
G37*
G36*
X148544Y340480D02*
X140810Y340480D01*
X140810Y341820D01*
X143954Y341820D01*
X143954Y351314D01*
X141169Y349326D01*
X141169Y350815D01*
X144086Y352821D01*
X145540Y352821D01*
X145540Y341820D01*
X148544Y341820D01*
X148544Y340480D01*
G37*
G36*
X322154Y122700D02*
X319942Y122700D01*
X319942Y128612D01*
X321898Y128612D01*
X322263Y128601D01*
X322606Y128565D01*
X322928Y128506D01*
X323229Y128424D01*
X323508Y128318D01*
X323765Y128189D01*
X324001Y128036D01*
X324216Y127859D01*
X324408Y127661D01*
X324573Y127443D01*
X324714Y127205D01*
X324828Y126947D01*
X324918Y126669D01*
X324981Y126372D01*
X325020Y126054D01*
X325032Y125717D01*
X325010Y125274D01*
X324943Y124859D01*
X324832Y124474D01*
X324676Y124116D01*
X324479Y123793D01*
X324245Y123510D01*
X323973Y123268D01*
X323664Y123065D01*
X323325Y122905D01*
X322960Y122791D01*
X322569Y122723D01*
X322154Y122700D01*
G37*
%LPC*%
G36*
X322062Y123342D02*
X322377Y123360D01*
X322673Y123413D01*
X322949Y123503D01*
X323205Y123627D01*
X323437Y123786D01*
X323641Y123976D01*
X323816Y124197D01*
X323962Y124450D01*
X324078Y124730D01*
X324161Y125035D01*
X324210Y125364D01*
X324227Y125717D01*
X324217Y125984D01*
X324189Y126234D01*
X324142Y126468D01*
X324076Y126686D01*
X323992Y126887D01*
X323888Y127072D01*
X323766Y127241D01*
X323625Y127393D01*
X323466Y127529D01*
X323290Y127646D01*
X323097Y127745D01*
X322888Y127826D01*
X322661Y127889D01*
X322418Y127934D01*
X322158Y127961D01*
X321881Y127970D01*
X320744Y127970D01*
X320744Y123342D01*
X322062Y123342D01*
G37*
%LPD*%
G36*
X346529Y122700D02*
X344317Y122700D01*
X344317Y128612D01*
X346273Y128612D01*
X346638Y128601D01*
X346981Y128565D01*
X347303Y128506D01*
X347604Y128424D01*
X347883Y128318D01*
X348140Y128189D01*
X348376Y128036D01*
X348591Y127859D01*
X348783Y127661D01*
X348948Y127443D01*
X349089Y127205D01*
X349203Y126947D01*
X349293Y126669D01*
X349356Y126372D01*
X349395Y126054D01*
X349407Y125717D01*
X349385Y125274D01*
X349318Y124859D01*
X349207Y124474D01*
X349051Y124116D01*
X348854Y123793D01*
X348620Y123510D01*
X348348Y123268D01*
X348039Y123065D01*
X347700Y122905D01*
X347335Y122791D01*
X346944Y122723D01*
X346529Y122700D01*
G37*
%LPC*%
G36*
X346437Y123342D02*
X346752Y123360D01*
X347048Y123413D01*
X347324Y123503D01*
X347580Y123627D01*
X347812Y123786D01*
X348016Y123976D01*
X348191Y124197D01*
X348337Y124450D01*
X348453Y124730D01*
X348536Y125035D01*
X348585Y125364D01*
X348602Y125717D01*
X348592Y125984D01*
X348564Y126234D01*
X348517Y126468D01*
X348451Y126686D01*
X348367Y126887D01*
X348263Y127072D01*
X348141Y127241D01*
X348000Y127393D01*
X347841Y127529D01*
X347665Y127646D01*
X347472Y127745D01*
X347263Y127826D01*
X347036Y127889D01*
X346793Y127934D01*
X346533Y127961D01*
X346256Y127970D01*
X345119Y127970D01*
X345119Y123342D01*
X346437Y123342D01*
G37*
%LPD*%
G36*
X330710Y122616D02*
X330463Y122628D01*
X330232Y122665D01*
X330017Y122725D01*
X329818Y122810D01*
X329634Y122919D01*
X329467Y123053D01*
X329315Y123210D01*
X329179Y123392D01*
X329059Y123598D01*
X328955Y123825D01*
X328867Y124075D01*
X328795Y124347D01*
X328739Y124641D01*
X328699Y124958D01*
X328675Y125297D01*
X328667Y125658D01*
X328675Y126027D01*
X328698Y126372D01*
X328737Y126693D01*
X328791Y126991D01*
X328861Y127264D01*
X328947Y127514D01*
X329048Y127739D01*
X329164Y127941D01*
X329298Y128119D01*
X329449Y128273D01*
X329618Y128404D01*
X329806Y128511D01*
X330011Y128594D01*
X330235Y128653D01*
X330476Y128689D01*
X330736Y128701D01*
X330988Y128689D01*
X331224Y128653D01*
X331442Y128593D01*
X331644Y128509D01*
X331828Y128401D01*
X331995Y128269D01*
X332145Y128113D01*
X332278Y127933D01*
X332394Y127729D01*
X332495Y127503D01*
X332581Y127253D01*
X332651Y126980D01*
X332705Y126684D01*
X332744Y126365D01*
X332767Y126023D01*
X332775Y125658D01*
X332767Y125299D01*
X332742Y124961D01*
X332702Y124646D01*
X332644Y124352D01*
X332571Y124080D01*
X332481Y123831D01*
X332375Y123603D01*
X332253Y123397D01*
X332114Y123214D01*
X331960Y123055D01*
X331791Y122921D01*
X331606Y122811D01*
X331405Y122726D01*
X331189Y122665D01*
X330958Y122628D01*
X330710Y122616D01*
G37*
%LPC*%
G36*
X330719Y123233D02*
X330880Y123242D01*
X331030Y123270D01*
X331169Y123317D01*
X331297Y123382D01*
X331414Y123466D01*
X331519Y123568D01*
X331613Y123689D01*
X331697Y123829D01*
X331769Y123988D01*
X331832Y124167D01*
X331929Y124584D01*
X331988Y125081D01*
X332007Y125658D01*
X331989Y126254D01*
X331933Y126762D01*
X331841Y127182D01*
X331781Y127358D01*
X331711Y127513D01*
X331631Y127648D01*
X331539Y127765D01*
X331435Y127863D01*
X331319Y127944D01*
X331191Y128007D01*
X331052Y128052D01*
X330900Y128079D01*
X330736Y128088D01*
X330568Y128079D01*
X330412Y128052D01*
X330268Y128008D01*
X330137Y127946D01*
X330018Y127867D01*
X329912Y127769D01*
X329817Y127654D01*
X329735Y127521D01*
X329664Y127368D01*
X329602Y127193D01*
X329549Y126994D01*
X329507Y126772D01*
X329450Y126261D01*
X329431Y125658D01*
X329450Y125071D01*
X329508Y124568D01*
X329551Y124349D01*
X329604Y124150D01*
X329667Y123973D01*
X329739Y123816D01*
X329822Y123679D01*
X329916Y123561D01*
X330021Y123461D01*
X330138Y123379D01*
X330266Y123315D01*
X330406Y123269D01*
X330557Y123242D01*
X330719Y123233D01*
G37*
%LPD*%
G36*
X314525Y122700D02*
X313724Y122700D01*
X313724Y128612D01*
X316506Y128612D01*
X316748Y128605D01*
X316977Y128584D01*
X317191Y128550D01*
X317391Y128501D01*
X317576Y128438D01*
X317748Y128361D01*
X317905Y128270D01*
X318048Y128166D01*
X318175Y128048D01*
X318286Y127920D01*
X318379Y127781D01*
X318455Y127631D01*
X318515Y127470D01*
X318557Y127298D01*
X318583Y127115D01*
X318591Y126921D01*
X318567Y126605D01*
X318495Y126315D01*
X318375Y126051D01*
X318207Y125814D01*
X317997Y125610D01*
X317825Y125497D01*
X317750Y125447D01*
X317467Y125327D01*
X317148Y125247D01*
X317862Y124163D01*
X318826Y122700D01*
X317903Y122700D01*
X316367Y125155D01*
X314525Y125155D01*
X314525Y122700D01*
G37*
%LPC*%
G36*
X316460Y125788D02*
X316758Y125807D01*
X317021Y125862D01*
X317248Y125955D01*
X317439Y126084D01*
X317591Y126247D01*
X317699Y126439D01*
X317764Y126661D01*
X317786Y126913D01*
X317764Y127156D01*
X317698Y127368D01*
X317589Y127549D01*
X317435Y127700D01*
X317241Y127818D01*
X317008Y127903D01*
X316736Y127953D01*
X316426Y127970D01*
X314525Y127970D01*
X314525Y125788D01*
X316460Y125788D01*
G37*
%LPD*%
G36*
X310195Y122616D02*
X309932Y122622D01*
X309683Y122640D01*
X309449Y122669D01*
X309228Y122710D01*
X309022Y122763D01*
X308830Y122827D01*
X308652Y122904D01*
X308489Y122992D01*
X308339Y123091D01*
X308204Y123203D01*
X308083Y123326D01*
X307976Y123461D01*
X307883Y123608D01*
X307805Y123766D01*
X307740Y123936D01*
X307690Y124118D01*
X308467Y124274D01*
X308553Y124025D01*
X308676Y123811D01*
X308838Y123634D01*
X309037Y123491D01*
X309275Y123382D01*
X309552Y123304D01*
X309869Y123257D01*
X310225Y123241D01*
X310591Y123258D01*
X310912Y123308D01*
X311190Y123391D01*
X311423Y123508D01*
X311607Y123657D01*
X311739Y123837D01*
X311818Y124048D01*
X311838Y124165D01*
X311844Y124290D01*
X311836Y124428D01*
X311811Y124553D01*
X311770Y124663D01*
X311712Y124760D01*
X311553Y124925D01*
X311341Y125058D01*
X311079Y125166D01*
X310770Y125255D01*
X310036Y125428D01*
X309420Y125583D01*
X308972Y125738D01*
X308647Y125902D01*
X308399Y126084D01*
X308214Y126291D01*
X308078Y126531D01*
X308030Y126664D01*
X307995Y126806D01*
X307974Y126958D01*
X307967Y127119D01*
X307976Y127303D01*
X308004Y127477D01*
X308049Y127639D01*
X308112Y127791D01*
X308194Y127932D01*
X308294Y128062D01*
X308412Y128181D01*
X308548Y128289D01*
X308701Y128386D01*
X308870Y128469D01*
X309055Y128540D01*
X309255Y128598D01*
X309471Y128643D01*
X309702Y128675D01*
X309949Y128694D01*
X310212Y128701D01*
X310686Y128681D01*
X311101Y128623D01*
X311456Y128527D01*
X311752Y128392D01*
X311880Y128308D01*
X311999Y128211D01*
X312205Y127975D01*
X312372Y127685D01*
X312499Y127341D01*
X311710Y127202D01*
X311630Y127421D01*
X311521Y127608D01*
X311383Y127762D01*
X311215Y127884D01*
X311015Y127977D01*
X310780Y128043D01*
X310509Y128083D01*
X310204Y128096D01*
X309870Y128082D01*
X309579Y128038D01*
X309329Y127964D01*
X309121Y127861D01*
X308958Y127729D01*
X308841Y127569D01*
X308771Y127379D01*
X308748Y127161D01*
X308757Y127030D01*
X308784Y126911D01*
X308829Y126805D01*
X308892Y126709D01*
X309069Y126545D01*
X309310Y126407D01*
X309480Y126342D01*
X309718Y126269D01*
X310397Y126103D01*
X310940Y125975D01*
X311205Y125904D01*
X311458Y125820D01*
X311698Y125722D01*
X311922Y125608D01*
X312124Y125473D01*
X312298Y125310D01*
X312440Y125118D01*
X312547Y124895D01*
X312615Y124634D01*
X312638Y124332D01*
X312628Y124134D01*
X312598Y123946D01*
X312548Y123771D01*
X312478Y123606D01*
X312388Y123454D01*
X312278Y123313D01*
X312148Y123183D01*
X311998Y123065D01*
X311829Y122960D01*
X311645Y122869D01*
X311444Y122791D01*
X311227Y122728D01*
X310994Y122679D01*
X310744Y122644D01*
X310478Y122623D01*
X310195Y122616D01*
G37*
G36*
X361820Y122616D02*
X361557Y122622D01*
X361308Y122640D01*
X361074Y122669D01*
X360853Y122710D01*
X360647Y122763D01*
X360455Y122827D01*
X360277Y122904D01*
X360114Y122992D01*
X359964Y123091D01*
X359829Y123203D01*
X359708Y123326D01*
X359601Y123461D01*
X359508Y123608D01*
X359430Y123766D01*
X359365Y123936D01*
X359315Y124118D01*
X360092Y124274D01*
X360178Y124025D01*
X360301Y123811D01*
X360463Y123634D01*
X360662Y123491D01*
X360900Y123382D01*
X361177Y123304D01*
X361494Y123257D01*
X361850Y123241D01*
X362216Y123258D01*
X362537Y123308D01*
X362815Y123391D01*
X363048Y123508D01*
X363232Y123657D01*
X363364Y123837D01*
X363443Y124048D01*
X363463Y124165D01*
X363469Y124290D01*
X363461Y124428D01*
X363436Y124553D01*
X363395Y124663D01*
X363337Y124760D01*
X363178Y124925D01*
X362966Y125058D01*
X362704Y125166D01*
X362395Y125255D01*
X361661Y125428D01*
X361045Y125583D01*
X360597Y125738D01*
X360272Y125902D01*
X360024Y126084D01*
X359839Y126291D01*
X359703Y126531D01*
X359655Y126664D01*
X359620Y126806D01*
X359599Y126958D01*
X359592Y127119D01*
X359601Y127303D01*
X359629Y127477D01*
X359674Y127639D01*
X359737Y127791D01*
X359819Y127932D01*
X359919Y128062D01*
X360037Y128181D01*
X360173Y128289D01*
X360326Y128386D01*
X360495Y128469D01*
X360680Y128540D01*
X360880Y128598D01*
X361096Y128643D01*
X361327Y128675D01*
X361574Y128694D01*
X361837Y128701D01*
X362311Y128681D01*
X362726Y128623D01*
X363081Y128527D01*
X363377Y128392D01*
X363505Y128308D01*
X363624Y128211D01*
X363830Y127975D01*
X363997Y127685D01*
X364124Y127341D01*
X363335Y127202D01*
X363255Y127421D01*
X363146Y127608D01*
X363008Y127762D01*
X362840Y127884D01*
X362640Y127977D01*
X362405Y128043D01*
X362134Y128083D01*
X361829Y128096D01*
X361495Y128082D01*
X361204Y128038D01*
X360954Y127964D01*
X360746Y127861D01*
X360583Y127729D01*
X360466Y127569D01*
X360396Y127379D01*
X360373Y127161D01*
X360382Y127030D01*
X360409Y126911D01*
X360454Y126805D01*
X360517Y126709D01*
X360694Y126545D01*
X360935Y126407D01*
X361105Y126342D01*
X361343Y126269D01*
X362022Y126103D01*
X362565Y125975D01*
X362830Y125904D01*
X363083Y125820D01*
X363323Y125722D01*
X363547Y125608D01*
X363749Y125473D01*
X363923Y125310D01*
X364065Y125118D01*
X364172Y124895D01*
X364240Y124634D01*
X364263Y124332D01*
X364253Y124134D01*
X364223Y123946D01*
X364173Y123771D01*
X364103Y123606D01*
X364013Y123454D01*
X363903Y123313D01*
X363773Y123183D01*
X363623Y123065D01*
X363454Y122960D01*
X363270Y122869D01*
X363069Y122791D01*
X362852Y122728D01*
X362619Y122679D01*
X362369Y122644D01*
X362103Y122623D01*
X361820Y122616D01*
G37*
G36*
X353150Y122616D02*
X352719Y122639D01*
X352317Y122709D01*
X351945Y122825D01*
X351604Y122987D01*
X351297Y123193D01*
X351029Y123439D01*
X350800Y123724D01*
X350610Y124049D01*
X350460Y124410D01*
X350353Y124803D01*
X350289Y125227D01*
X350268Y125683D01*
X350280Y126027D01*
X350315Y126352D01*
X350375Y126658D01*
X350459Y126944D01*
X350566Y127212D01*
X350697Y127460D01*
X350852Y127689D01*
X351031Y127899D01*
X351231Y128087D01*
X351450Y128250D01*
X351687Y128387D01*
X351942Y128500D01*
X352215Y128588D01*
X352507Y128650D01*
X352818Y128688D01*
X353146Y128701D01*
X353599Y128677D01*
X354013Y128608D01*
X354388Y128493D01*
X354724Y128331D01*
X355020Y128124D01*
X355274Y127873D01*
X355486Y127577D01*
X355656Y127236D01*
X354896Y126984D01*
X354778Y127227D01*
X354628Y127440D01*
X354447Y127622D01*
X354235Y127773D01*
X353997Y127892D01*
X353737Y127978D01*
X353457Y128029D01*
X353155Y128046D01*
X352916Y128036D01*
X352691Y128006D01*
X352480Y127957D01*
X352282Y127888D01*
X352098Y127799D01*
X351927Y127691D01*
X351770Y127562D01*
X351627Y127414D01*
X351499Y127249D01*
X351389Y127069D01*
X351295Y126875D01*
X351218Y126666D01*
X351158Y126442D01*
X351116Y126204D01*
X351090Y125951D01*
X351082Y125683D01*
X351091Y125418D01*
X351117Y125167D01*
X351162Y124928D01*
X351224Y124703D01*
X351304Y124491D01*
X351402Y124293D01*
X351517Y124108D01*
X351650Y123936D01*
X351799Y123781D01*
X351960Y123647D01*
X352133Y123533D01*
X352319Y123440D01*
X352518Y123368D01*
X352729Y123316D01*
X352952Y123285D01*
X353188Y123275D01*
X353489Y123294D01*
X353771Y123352D01*
X354033Y123448D01*
X354276Y123582D01*
X354500Y123755D01*
X354704Y123966D01*
X354890Y124216D01*
X355055Y124504D01*
X355710Y124177D01*
X355509Y123818D01*
X355271Y123505D01*
X354996Y123237D01*
X354684Y123015D01*
X354340Y122840D01*
X353970Y122716D01*
X353574Y122641D01*
X353365Y122622D01*
X353150Y122616D01*
G37*
G36*
X375619Y122616D02*
X375187Y122639D01*
X374786Y122709D01*
X374414Y122825D01*
X374073Y122987D01*
X373766Y123193D01*
X373498Y123439D01*
X373269Y123724D01*
X373078Y124049D01*
X372929Y124410D01*
X372822Y124803D01*
X372758Y125227D01*
X372736Y125683D01*
X372748Y126027D01*
X372784Y126352D01*
X372844Y126658D01*
X372927Y126944D01*
X373035Y127212D01*
X373166Y127460D01*
X373321Y127689D01*
X373500Y127899D01*
X373700Y128087D01*
X373919Y128250D01*
X374155Y128387D01*
X374411Y128500D01*
X374684Y128588D01*
X374976Y128650D01*
X375286Y128688D01*
X375615Y128701D01*
X376068Y128677D01*
X376481Y128608D01*
X376857Y128493D01*
X377193Y128331D01*
X377489Y128124D01*
X377742Y127873D01*
X377954Y127577D01*
X378124Y127236D01*
X377365Y126984D01*
X377246Y127227D01*
X377097Y127440D01*
X376916Y127622D01*
X376704Y127773D01*
X376466Y127892D01*
X376206Y127978D01*
X375925Y128029D01*
X375623Y128046D01*
X375385Y128036D01*
X375160Y128006D01*
X374948Y127957D01*
X374751Y127888D01*
X374566Y127799D01*
X374396Y127691D01*
X374239Y127562D01*
X374096Y127414D01*
X373968Y127249D01*
X373857Y127069D01*
X373764Y126875D01*
X373687Y126666D01*
X373627Y126442D01*
X373585Y126204D01*
X373559Y125951D01*
X373550Y125683D01*
X373559Y125418D01*
X373586Y125167D01*
X373630Y124928D01*
X373693Y124703D01*
X373773Y124491D01*
X373870Y124293D01*
X373986Y124108D01*
X374119Y123936D01*
X374267Y123781D01*
X374428Y123647D01*
X374602Y123533D01*
X374788Y123440D01*
X374986Y123368D01*
X375197Y123316D01*
X375421Y123285D01*
X375657Y123275D01*
X375958Y123294D01*
X376239Y123352D01*
X376502Y123448D01*
X376745Y123582D01*
X376969Y123755D01*
X377173Y123966D01*
X377358Y124216D01*
X377524Y124504D01*
X378179Y124177D01*
X377978Y123818D01*
X377740Y123505D01*
X377465Y123237D01*
X377153Y123015D01*
X376809Y122840D01*
X376439Y122716D01*
X376042Y122641D01*
X375834Y122622D01*
X375619Y122616D01*
G37*
G36*
X335433Y122616D02*
X335040Y122639D01*
X334686Y122706D01*
X334372Y122819D01*
X334099Y122977D01*
X333868Y123178D01*
X333684Y123419D01*
X333547Y123700D01*
X333457Y124022D01*
X334220Y124110D01*
X334292Y123904D01*
X334387Y123726D01*
X334505Y123575D01*
X334647Y123452D01*
X334813Y123356D01*
X335002Y123288D01*
X335214Y123247D01*
X335450Y123233D01*
X335737Y123256D01*
X335992Y123325D01*
X336214Y123439D01*
X336402Y123600D01*
X336553Y123801D01*
X336660Y124036D01*
X336725Y124305D01*
X336746Y124609D01*
X336725Y124875D01*
X336660Y125114D01*
X336552Y125326D01*
X336400Y125511D01*
X336212Y125662D01*
X335994Y125769D01*
X335745Y125834D01*
X335467Y125856D01*
X335171Y125831D01*
X334896Y125759D01*
X334632Y125629D01*
X334367Y125432D01*
X333629Y125432D01*
X333826Y128612D01*
X337187Y128612D01*
X337187Y127970D01*
X334514Y127970D01*
X334401Y126095D01*
X334661Y126260D01*
X334951Y126378D01*
X335272Y126449D01*
X335622Y126472D01*
X335834Y126464D01*
X336036Y126440D01*
X336227Y126400D01*
X336406Y126344D01*
X336574Y126272D01*
X336732Y126184D01*
X336878Y126080D01*
X337013Y125960D01*
X337134Y125828D01*
X337240Y125685D01*
X337329Y125533D01*
X337402Y125371D01*
X337458Y125199D01*
X337499Y125018D01*
X337523Y124827D01*
X337531Y124626D01*
X337522Y124398D01*
X337496Y124183D01*
X337453Y123980D01*
X337392Y123790D01*
X337314Y123612D01*
X337218Y123447D01*
X337105Y123294D01*
X336975Y123153D01*
X336829Y123027D01*
X336670Y122918D01*
X336498Y122826D01*
X336312Y122750D01*
X336112Y122692D01*
X335899Y122650D01*
X335673Y122625D01*
X335433Y122616D01*
G37*
G36*
X341175Y122700D02*
X340344Y122700D01*
X337932Y128612D01*
X338775Y128612D01*
X340411Y124450D01*
X340764Y123405D01*
X341116Y124450D01*
X342745Y128612D01*
X343588Y128612D01*
X341175Y122700D01*
G37*
G36*
X369138Y122700D02*
X365349Y122700D01*
X365349Y128612D01*
X366150Y128612D01*
X366150Y123355D01*
X369138Y123355D01*
X369138Y122700D01*
G37*
G36*
X327936Y124647D02*
X325838Y124647D01*
X325838Y125318D01*
X327936Y125318D01*
X327936Y124647D01*
G37*
G36*
X358530Y124647D02*
X356432Y124647D01*
X356432Y125318D01*
X358530Y125318D01*
X358530Y124647D01*
G37*
G36*
X371905Y124647D02*
X369807Y124647D01*
X369807Y125318D01*
X371905Y125318D01*
X371905Y124647D01*
G37*
D10*
X71000Y505950D02*
X77350Y499600D01*
X90050Y499600D01*
X96400Y505950D01*
X102750Y499600D01*
X115450Y499600D01*
X121800Y505950D01*
X128150Y499600D01*
X140850Y499600D01*
X147200Y505950D01*
X153550Y499600D01*
X166250Y499600D01*
X172600Y505950D01*
X178950Y499600D01*
X191650Y499600D01*
X198000Y505950D01*
X204350Y499600D01*
X217050Y499600D01*
X223400Y505950D01*
X71000Y505950D02*
X71000Y544050D01*
X77350Y550400D01*
X90050Y550400D01*
X96400Y544050D01*
X102750Y550400D01*
X115450Y550400D01*
X121800Y544050D01*
X128150Y550400D01*
X140850Y550400D01*
X147200Y544050D01*
X153550Y550400D01*
X166250Y550400D01*
X172600Y544050D01*
X178950Y550400D01*
X191650Y550400D01*
X198000Y544050D01*
X204350Y550400D01*
X217050Y550400D01*
X223400Y544050D01*
X229750Y550400D01*
X242450Y550400D01*
X248800Y544050D01*
X255150Y550400D01*
X267850Y550400D01*
X274200Y544050D01*
X280550Y550400D01*
X293250Y550400D01*
X299600Y544050D01*
X305950Y550400D01*
X318650Y550400D01*
X325000Y544050D01*
X331350Y550400D01*
X344050Y550400D01*
X350400Y544050D01*
X356750Y550400D01*
X369450Y550400D01*
X375800Y544050D01*
X382150Y550400D01*
X394850Y550400D01*
X401200Y544050D01*
X407550Y550400D01*
X420250Y550400D01*
X426600Y544050D01*
X432950Y550400D01*
X445650Y550400D01*
X452000Y544050D01*
X458350Y550400D01*
X471050Y550400D01*
X477400Y544050D01*
X483750Y550400D01*
X496450Y550400D01*
X502800Y544050D01*
X509150Y550400D01*
X521850Y550400D01*
X528200Y544050D01*
X534550Y550400D01*
X547250Y550400D01*
X553600Y544050D01*
X553600Y505950D02*
X547250Y499600D01*
X534550Y499600D01*
X528200Y505950D01*
X521850Y499600D01*
X509150Y499600D01*
X502800Y505950D01*
X496450Y499600D01*
X483750Y499600D01*
X477400Y505950D01*
X471050Y499600D01*
X458350Y499600D01*
X452000Y505950D01*
X445650Y499600D01*
X432950Y499600D01*
X426600Y505950D01*
X420250Y499600D01*
X407550Y499600D01*
X401200Y505950D01*
X394850Y499600D01*
X382150Y499600D01*
X375800Y505950D01*
X369450Y499600D01*
X356750Y499600D01*
X350400Y505950D01*
X344050Y499600D01*
X331350Y499600D01*
X325000Y505950D01*
X318650Y499600D01*
X305950Y499600D01*
X299600Y505950D01*
X293250Y499600D01*
X280550Y499600D01*
X274200Y505950D01*
X267850Y499600D01*
X255150Y499600D01*
X248800Y505950D01*
X242450Y499600D01*
X229750Y499600D01*
X223400Y505950D01*
X96400Y505950D02*
X96400Y544050D01*
X121800Y544050D02*
X121800Y505950D01*
X147200Y505950D02*
X147200Y544050D01*
X172600Y544050D02*
X172600Y505950D01*
X198000Y505950D02*
X198000Y544050D01*
X223400Y544050D02*
X223400Y505950D01*
X248800Y505950D02*
X248800Y544050D01*
X274200Y544050D02*
X274200Y505950D01*
X299600Y505950D02*
X299600Y544050D01*
X325000Y544050D02*
X325000Y505950D01*
X350400Y505950D02*
X350400Y544050D01*
X375800Y544050D02*
X375800Y505950D01*
X401200Y505950D02*
X401200Y544050D01*
X426600Y544050D02*
X426600Y505950D01*
X452000Y505950D02*
X452000Y544050D01*
X477400Y544050D02*
X477400Y505950D01*
X502800Y505950D02*
X502800Y544050D01*
X528200Y544050D02*
X528200Y505950D01*
X553600Y505950D02*
X553600Y544050D01*
X559950Y550400D01*
X572650Y550400D01*
X579000Y544050D01*
X579000Y505950D02*
X572650Y499600D01*
X559950Y499600D01*
X553600Y505950D01*
X579000Y505950D02*
X579000Y544050D01*
X264520Y320318D02*
X223880Y320318D01*
X223880Y294918D01*
X264520Y294918D01*
X264520Y320318D01*
X250550Y307618D02*
X244200Y307618D01*
X234040Y301268D02*
X234040Y313968D01*
X244200Y307618D01*
X228960Y307618D01*
X234040Y301268D02*
X244200Y307618D01*
X244200Y301268D01*
X244200Y307618D02*
X244200Y313968D01*
D11*
X258170Y307618D03*
D12*
X214355Y307618D03*
X274045Y307618D03*
D10*
X507800Y116100D02*
X581800Y116100D01*
X507800Y116100D02*
X507800Y58600D01*
X581800Y58600D02*
X581800Y116100D01*
X581800Y58600D02*
X507800Y58600D01*
X325800Y426100D02*
X251800Y426100D01*
X251800Y368600D01*
X325800Y368600D02*
X325800Y426100D01*
X325800Y368600D02*
X251800Y368600D01*
X162650Y367210D02*
X162648Y367110D01*
X162642Y367011D01*
X162632Y366911D01*
X162619Y366813D01*
X162601Y366714D01*
X162580Y366617D01*
X162555Y366521D01*
X162526Y366425D01*
X162493Y366331D01*
X162457Y366238D01*
X162417Y366147D01*
X162373Y366057D01*
X162326Y365969D01*
X162276Y365883D01*
X162222Y365799D01*
X162165Y365717D01*
X162105Y365638D01*
X162041Y365560D01*
X161975Y365486D01*
X161906Y365414D01*
X161834Y365345D01*
X161760Y365279D01*
X161682Y365215D01*
X161603Y365155D01*
X161521Y365098D01*
X161437Y365044D01*
X161351Y364994D01*
X161263Y364947D01*
X161173Y364903D01*
X161082Y364863D01*
X160989Y364827D01*
X160895Y364794D01*
X160799Y364765D01*
X160703Y364740D01*
X160606Y364719D01*
X160507Y364701D01*
X160409Y364688D01*
X160309Y364678D01*
X160210Y364672D01*
X160110Y364670D01*
X162650Y384990D02*
X162648Y385090D01*
X162642Y385189D01*
X162632Y385289D01*
X162619Y385387D01*
X162601Y385486D01*
X162580Y385583D01*
X162555Y385679D01*
X162526Y385775D01*
X162493Y385869D01*
X162457Y385962D01*
X162417Y386053D01*
X162373Y386143D01*
X162326Y386231D01*
X162276Y386317D01*
X162222Y386401D01*
X162165Y386483D01*
X162105Y386562D01*
X162041Y386640D01*
X161975Y386714D01*
X161906Y386786D01*
X161834Y386855D01*
X161760Y386921D01*
X161682Y386985D01*
X161603Y387045D01*
X161521Y387102D01*
X161437Y387156D01*
X161351Y387206D01*
X161263Y387253D01*
X161173Y387297D01*
X161082Y387337D01*
X160989Y387373D01*
X160895Y387406D01*
X160799Y387435D01*
X160703Y387460D01*
X160606Y387481D01*
X160507Y387499D01*
X160409Y387512D01*
X160309Y387522D01*
X160210Y387528D01*
X160110Y387530D01*
X101690Y387530D02*
X101590Y387528D01*
X101491Y387522D01*
X101391Y387512D01*
X101293Y387499D01*
X101194Y387481D01*
X101097Y387460D01*
X101001Y387435D01*
X100905Y387406D01*
X100811Y387373D01*
X100718Y387337D01*
X100627Y387297D01*
X100537Y387253D01*
X100449Y387206D01*
X100363Y387156D01*
X100279Y387102D01*
X100197Y387045D01*
X100118Y386985D01*
X100040Y386921D01*
X99966Y386855D01*
X99894Y386786D01*
X99825Y386714D01*
X99759Y386640D01*
X99695Y386562D01*
X99635Y386483D01*
X99578Y386401D01*
X99524Y386317D01*
X99474Y386231D01*
X99427Y386143D01*
X99383Y386053D01*
X99343Y385962D01*
X99307Y385869D01*
X99274Y385775D01*
X99245Y385679D01*
X99220Y385583D01*
X99199Y385486D01*
X99181Y385387D01*
X99168Y385289D01*
X99158Y385189D01*
X99152Y385090D01*
X99150Y384990D01*
X99150Y367210D02*
X99152Y367110D01*
X99158Y367011D01*
X99168Y366911D01*
X99181Y366813D01*
X99199Y366714D01*
X99220Y366617D01*
X99245Y366521D01*
X99274Y366425D01*
X99307Y366331D01*
X99343Y366238D01*
X99383Y366147D01*
X99427Y366057D01*
X99474Y365969D01*
X99524Y365883D01*
X99578Y365799D01*
X99635Y365717D01*
X99695Y365638D01*
X99759Y365560D01*
X99825Y365486D01*
X99894Y365414D01*
X99966Y365345D01*
X100040Y365279D01*
X100118Y365215D01*
X100197Y365155D01*
X100279Y365098D01*
X100363Y365044D01*
X100449Y364994D01*
X100537Y364947D01*
X100627Y364903D01*
X100718Y364863D01*
X100811Y364827D01*
X100905Y364794D01*
X101001Y364765D01*
X101097Y364740D01*
X101194Y364719D01*
X101293Y364701D01*
X101391Y364688D01*
X101491Y364678D01*
X101590Y364672D01*
X101690Y364670D01*
X162650Y367210D02*
X162650Y384990D01*
X160110Y364670D02*
X156300Y364670D01*
X155030Y365940D01*
X156300Y387530D02*
X160110Y387530D01*
X156300Y387530D02*
X155030Y386260D01*
X106770Y365940D02*
X105500Y364670D01*
X106770Y365940D02*
X155030Y365940D01*
X106770Y386260D02*
X105500Y387530D01*
X106770Y386260D02*
X155030Y386260D01*
X105500Y364670D02*
X101690Y364670D01*
X101690Y387530D02*
X105500Y387530D01*
X99150Y384990D02*
X99150Y367210D01*
D13*
X94832Y376100D03*
X166968Y376100D03*
D14*
X470600Y144800D02*
X620600Y144800D01*
X470600Y144800D02*
X470600Y444800D01*
X620600Y444800D01*
X620600Y144800D01*
D10*
X100790Y451430D02*
X100690Y451428D01*
X100591Y451422D01*
X100491Y451412D01*
X100393Y451399D01*
X100294Y451381D01*
X100197Y451360D01*
X100101Y451335D01*
X100005Y451306D01*
X99911Y451273D01*
X99818Y451237D01*
X99727Y451197D01*
X99637Y451153D01*
X99549Y451106D01*
X99463Y451056D01*
X99379Y451002D01*
X99297Y450945D01*
X99218Y450885D01*
X99140Y450821D01*
X99066Y450755D01*
X98994Y450686D01*
X98925Y450614D01*
X98859Y450540D01*
X98795Y450462D01*
X98735Y450383D01*
X98678Y450301D01*
X98624Y450217D01*
X98574Y450131D01*
X98527Y450043D01*
X98483Y449953D01*
X98443Y449862D01*
X98407Y449769D01*
X98374Y449675D01*
X98345Y449579D01*
X98320Y449483D01*
X98299Y449386D01*
X98281Y449287D01*
X98268Y449189D01*
X98258Y449089D01*
X98252Y448990D01*
X98250Y448890D01*
X98250Y431110D02*
X98252Y431010D01*
X98258Y430911D01*
X98268Y430811D01*
X98281Y430713D01*
X98299Y430614D01*
X98320Y430517D01*
X98345Y430421D01*
X98374Y430325D01*
X98407Y430231D01*
X98443Y430138D01*
X98483Y430047D01*
X98527Y429957D01*
X98574Y429869D01*
X98624Y429783D01*
X98678Y429699D01*
X98735Y429617D01*
X98795Y429538D01*
X98859Y429460D01*
X98925Y429386D01*
X98994Y429314D01*
X99066Y429245D01*
X99140Y429179D01*
X99218Y429115D01*
X99297Y429055D01*
X99379Y428998D01*
X99463Y428944D01*
X99549Y428894D01*
X99637Y428847D01*
X99727Y428803D01*
X99818Y428763D01*
X99911Y428727D01*
X100005Y428694D01*
X100101Y428665D01*
X100197Y428640D01*
X100294Y428619D01*
X100393Y428601D01*
X100491Y428588D01*
X100591Y428578D01*
X100690Y428572D01*
X100790Y428570D01*
X159210Y428570D02*
X159310Y428572D01*
X159409Y428578D01*
X159509Y428588D01*
X159607Y428601D01*
X159706Y428619D01*
X159803Y428640D01*
X159899Y428665D01*
X159995Y428694D01*
X160089Y428727D01*
X160182Y428763D01*
X160273Y428803D01*
X160363Y428847D01*
X160451Y428894D01*
X160537Y428944D01*
X160621Y428998D01*
X160703Y429055D01*
X160782Y429115D01*
X160860Y429179D01*
X160934Y429245D01*
X161006Y429314D01*
X161075Y429386D01*
X161141Y429460D01*
X161205Y429538D01*
X161265Y429617D01*
X161322Y429699D01*
X161376Y429783D01*
X161426Y429869D01*
X161473Y429957D01*
X161517Y430047D01*
X161557Y430138D01*
X161593Y430231D01*
X161626Y430325D01*
X161655Y430421D01*
X161680Y430517D01*
X161701Y430614D01*
X161719Y430713D01*
X161732Y430811D01*
X161742Y430911D01*
X161748Y431010D01*
X161750Y431110D01*
X161750Y448890D02*
X161748Y448990D01*
X161742Y449089D01*
X161732Y449189D01*
X161719Y449287D01*
X161701Y449386D01*
X161680Y449483D01*
X161655Y449579D01*
X161626Y449675D01*
X161593Y449769D01*
X161557Y449862D01*
X161517Y449953D01*
X161473Y450043D01*
X161426Y450131D01*
X161376Y450217D01*
X161322Y450301D01*
X161265Y450383D01*
X161205Y450462D01*
X161141Y450540D01*
X161075Y450614D01*
X161006Y450686D01*
X160934Y450755D01*
X160860Y450821D01*
X160782Y450885D01*
X160703Y450945D01*
X160621Y451002D01*
X160537Y451056D01*
X160451Y451106D01*
X160363Y451153D01*
X160273Y451197D01*
X160182Y451237D01*
X160089Y451273D01*
X159995Y451306D01*
X159899Y451335D01*
X159803Y451360D01*
X159706Y451381D01*
X159607Y451399D01*
X159509Y451412D01*
X159409Y451422D01*
X159310Y451428D01*
X159210Y451430D01*
X98250Y448890D02*
X98250Y431110D01*
X100790Y451430D02*
X104600Y451430D01*
X105870Y450160D01*
X104600Y428570D02*
X100790Y428570D01*
X104600Y428570D02*
X105870Y429840D01*
X154130Y450160D02*
X155400Y451430D01*
X154130Y450160D02*
X105870Y450160D01*
X154130Y429840D02*
X155400Y428570D01*
X154130Y429840D02*
X105870Y429840D01*
X155400Y451430D02*
X159210Y451430D01*
X159210Y428570D02*
X155400Y428570D01*
X161750Y431110D02*
X161750Y448890D01*
D13*
X166068Y440000D03*
X93932Y440000D03*
D10*
X88485Y105285D02*
X212485Y105285D01*
X212485Y47785D02*
X88485Y47785D01*
X88485Y105285D01*
X212485Y105285D02*
X212485Y47785D01*
D14*
X380500Y367000D02*
X459100Y367000D01*
X459100Y282000D01*
X380500Y282000D01*
X380500Y367000D01*
D10*
X229500Y193500D02*
X155500Y193500D01*
X155500Y136000D01*
X229500Y136000D02*
X229500Y193500D01*
X229500Y136000D02*
X155500Y136000D01*
D14*
X130950Y293490D02*
X89050Y293490D01*
X85870Y321359D02*
X86153Y321943D01*
X86451Y322519D01*
X86762Y323088D01*
X87087Y323649D01*
X87426Y324202D01*
X87778Y324747D01*
X88143Y325283D01*
X88521Y325810D01*
X88912Y326327D01*
X89315Y326835D01*
X89731Y327333D01*
X90158Y327821D01*
X90597Y328298D01*
X91048Y328765D01*
X91510Y329220D01*
X91983Y329664D01*
X92466Y330096D01*
X92960Y330517D01*
X93464Y330925D01*
X93978Y331321D01*
X94501Y331704D01*
X95033Y332075D01*
X95575Y332432D01*
X96124Y332776D01*
X96682Y333107D01*
X97248Y333424D01*
X97821Y333727D01*
X98402Y334016D01*
X98989Y334291D01*
X99583Y334552D01*
X100183Y334798D01*
X100789Y335029D01*
X101401Y335246D01*
X102017Y335447D01*
X102638Y335634D01*
X103264Y335805D01*
X103893Y335961D01*
X104526Y336102D01*
X105163Y336228D01*
X105802Y336337D01*
X106443Y336432D01*
X107087Y336510D01*
X107733Y336573D01*
X108380Y336621D01*
X109027Y336652D01*
X109676Y336668D01*
X110324Y336668D01*
X110973Y336652D01*
X111620Y336621D01*
X112267Y336573D01*
X112913Y336510D01*
X113557Y336432D01*
X114198Y336337D01*
X114837Y336228D01*
X115474Y336102D01*
X116107Y335961D01*
X116736Y335805D01*
X117362Y335634D01*
X117983Y335447D01*
X118599Y335246D01*
X119211Y335029D01*
X119817Y334798D01*
X120417Y334552D01*
X121011Y334291D01*
X121598Y334016D01*
X122179Y333727D01*
X122752Y333424D01*
X123318Y333107D01*
X123876Y332776D01*
X124425Y332432D01*
X124967Y332075D01*
X125499Y331704D01*
X126022Y331321D01*
X126536Y330925D01*
X127040Y330517D01*
X127534Y330096D01*
X128017Y329664D01*
X128490Y329220D01*
X128952Y328765D01*
X129403Y328298D01*
X129842Y327821D01*
X130269Y327333D01*
X130685Y326835D01*
X131088Y326327D01*
X131479Y325810D01*
X131857Y325283D01*
X132222Y324747D01*
X132574Y324202D01*
X132913Y323649D01*
X133238Y323088D01*
X133549Y322519D01*
X133847Y321943D01*
X134130Y321359D01*
X89050Y293490D02*
X88680Y293971D01*
X88321Y294460D01*
X87973Y294957D01*
X87636Y295462D01*
X87311Y295975D01*
X86998Y296495D01*
X86696Y297022D01*
X86407Y297555D01*
X86130Y298095D01*
X85865Y298641D01*
X95960Y308730D02*
X98640Y308730D01*
X121360Y308730D02*
X124040Y308730D01*
X134247Y298882D02*
X133976Y298309D01*
X133691Y297743D01*
X133394Y297184D01*
X133083Y296632D01*
X132758Y296088D01*
X132422Y295552D01*
X132072Y295023D01*
X131710Y294503D01*
X131336Y293992D01*
X130950Y293490D01*
D15*
X416100Y183800D02*
X416100Y33800D01*
X231100Y33800D01*
X231100Y183800D01*
X416100Y183800D01*
M02*
