G04 EAGLE Gerber RS-274X export*
G75*
%MOMM*%
%FSLAX34Y34*%
%LPD*%
%INSoldermask Top*%
%IPPOS*%
%AMOC8*
5,1,8,0,0,1.08239X$1,22.5*%
G01*
G04 Define Apertures*
%ADD10C,2.953200*%
%ADD11C,0.553200*%
%ADD12P,2.14443X8X22.5*%
%ADD13C,1.879600*%
%ADD14C,1.711200*%
%ADD15P,1.64956X8X202.5*%
%ADD16R,1.711200X1.711200*%
%ADD17P,1.64956X8X22.5*%
%ADD18C,1.611200*%
%ADD19C,2.828200*%
%ADD20C,1.524000*%
%ADD21R,2.387600X2.387600*%
D10*
X35000Y525000D03*
X615000Y35000D03*
X615000Y525000D03*
X35000Y35000D03*
D11*
X750000Y660000D03*
X-100000Y-100000D03*
D12*
X83700Y512300D03*
X83700Y537700D03*
X109100Y512300D03*
X109100Y537700D03*
X134500Y512300D03*
X134500Y537700D03*
X159900Y512300D03*
X159900Y537700D03*
X185300Y512300D03*
X185300Y537700D03*
X210700Y512300D03*
X210700Y537700D03*
X236100Y512300D03*
X236100Y537700D03*
X261500Y512300D03*
X261500Y537700D03*
X286900Y512300D03*
X286900Y537700D03*
X312300Y512300D03*
X312300Y537700D03*
X337700Y512300D03*
X337700Y537700D03*
X363100Y512300D03*
X363100Y537700D03*
X388500Y512300D03*
X388500Y537700D03*
X413900Y512300D03*
X413900Y537700D03*
X439300Y512300D03*
X439300Y537700D03*
X464700Y512300D03*
X464700Y537700D03*
X490100Y512300D03*
X490100Y537700D03*
X515500Y512300D03*
X515500Y537700D03*
X540900Y512300D03*
X540900Y537700D03*
X566300Y512300D03*
X566300Y537700D03*
D13*
X193400Y307618D03*
X295000Y307618D03*
D14*
X532300Y92600D03*
X557300Y92600D03*
X276300Y402600D03*
X301300Y402600D03*
D15*
X181700Y376100D03*
X80100Y376100D03*
D16*
X560600Y164800D03*
X535200Y164800D03*
X581800Y409800D03*
X556400Y409800D03*
X531000Y409800D03*
X505600Y409800D03*
D17*
X79200Y440000D03*
X180800Y440000D03*
D18*
X112985Y70785D03*
X137985Y70785D03*
X162985Y70785D03*
X187985Y70785D03*
D19*
X400000Y330000D03*
X439600Y330000D03*
D14*
X180000Y170000D03*
X205000Y170000D03*
D20*
X110000Y303396D02*
X110000Y316604D01*
X135400Y316604D02*
X135400Y303396D01*
X84600Y303396D02*
X84600Y316604D01*
D18*
X386100Y48800D03*
X266100Y168800D03*
X246100Y108800D03*
X386100Y168800D03*
X266100Y48800D03*
D21*
X510000Y470000D03*
X310000Y460000D03*
X400000Y420000D03*
X230000Y460000D03*
X40000Y470000D03*
X200000Y410000D03*
X120000Y220000D03*
X360000Y310000D03*
X290000Y250000D03*
M02*
