M48
;GenerationSoftware,Autodesk,EAGLE,9.7.0*%
;CreationDate,2026-05-24T14:15:11Z*%
FMAT,2
ICI,OFF
METRIC,TZ,000.000
T8C0.350
T7C0.813
T6C0.900
T5C1.000
T4C1.050
T3C1.118
T2C1.750
T1C2.750
%
G90
M71
T1
X61500Y3500
X3500Y52500
X61500Y52500
X3500Y3500
T2
X40000Y33000
X43960Y33000
T3
X29500Y30762
X19340Y30762
T4
X31000Y46000
X40000Y42000
X23000Y46000
X4000Y47000
X20000Y41000
X12000Y22000
X36000Y31000
X29000Y25000
X51000Y47000
T5
X18000Y17000
X20500Y17000
X55640Y40980
X53230Y9260
X55730Y9260
X27630Y40260
X30130Y40260
X56060Y16480
X53520Y16480
X58180Y40980
X53100Y40980
X50560Y40980
T6
X13450Y53770
X24610Y10880
X8370Y51230
X8370Y53770
X10910Y51230
X10910Y53770
X13450Y51230
X23610Y51230
X15990Y51230
X15990Y53770
X18530Y51230
X18530Y53770
X21070Y51230
X21070Y53770
X38610Y16880
X23610Y53770
X26150Y51230
X26150Y53770
X28690Y51230
X28690Y53770
X31230Y51230
X31230Y53770
X33770Y51230
X33770Y53770
X36310Y51230
X36310Y53770
X41390Y53770
X41390Y51230
X43930Y53770
X46470Y51230
X46470Y53770
X49010Y51230
X49010Y53770
X51550Y51230
X51550Y53770
X38850Y53770
X54090Y51230
X54090Y53770
X11298Y7078
X13798Y7078
X16298Y7078
X18799Y7078
X38850Y51230
X43930Y51230
X56630Y51230
X56630Y53770
X26610Y4880
X38610Y4880
X26610Y16880
T7
X13540Y31000
X8460Y31000
X8010Y37610
X7920Y44000
X18080Y44000
X18170Y37610
X11000Y31000
T8
X-10000Y-10000
X75000Y66000
M30